<svg width="26" height="13" viewBox="0 0 26 13" fill="none" xmlns="http://www.w3.org/2000/svg">
<path d="M4.55398 10.6826L4.41262 10.6355C4.40215 10.6669 4.37598 10.6773 4.33409 10.6669C4.30268 10.6669 4.2765 10.6564 4.25556 10.6355C4.2032 10.5517 4.14561 10.515 4.08278 10.5255C4.01996 10.5464 3.93619 10.536 3.83148 10.4941H3.81577C3.78436 10.4941 3.74771 10.4993 3.70583 10.5098C3.67441 10.5307 3.643 10.536 3.61159 10.5255L3.50164 10.4313C3.50164 10.4417 3.49117 10.447 3.47023 10.447C3.43881 10.447 3.4074 10.4417 3.37599 10.4313C3.34457 10.4208 3.3341 10.4103 3.34457 10.3999L3.07756 10.2585L3.04615 10.2742L2.87337 10.0857C2.8629 10.0962 2.85243 10.1014 2.84196 10.1014C2.82102 10.1014 2.80008 10.0857 2.77913 10.0543C2.75819 10.0334 2.74249 10.0229 2.73201 10.0229C2.66919 9.97054 2.59589 9.91818 2.51212 9.86583C2.43882 9.82394 2.36553 9.77682 2.29223 9.72447C2.28176 9.714 2.27652 9.69305 2.27652 9.66164C2.27652 9.6407 2.26605 9.62499 2.24511 9.61452C2.2137 9.58311 2.17705 9.55169 2.13516 9.52028C2.09328 9.48887 2.0671 9.45222 2.05663 9.41033L1.9938 9.42604C1.93098 9.31086 1.85768 9.20615 1.77391 9.11191C1.69014 9.01767 1.65349 8.89202 1.66396 8.73495H1.63255L1.42836 8.65642V8.6093C1.41789 8.6093 1.40219 8.61453 1.38124 8.625C1.3603 8.625 1.33412 8.61977 1.30271 8.6093C1.22941 8.57788 1.16135 8.54123 1.09852 8.49935C1.0357 8.44699 0.988578 8.38417 0.957165 8.31087C0.946694 8.27946 0.930987 8.26375 0.910045 8.26375C0.899574 8.26375 0.889103 8.25851 0.878632 8.24804C0.85769 8.19569 0.826276 8.14857 0.784392 8.10668C0.742508 8.0648 0.726801 8.01244 0.737272 7.94962L0.784392 7.55695C0.868161 7.46271 0.930987 7.41559 0.972872 7.41559C1.01476 7.41559 1.0357 7.46271 1.0357 7.55695L0.941458 7.71402L0.957165 7.9025C0.978107 7.92344 1.00952 7.93391 1.0514 7.93391C1.09329 7.93391 1.1247 7.92868 1.14564 7.9182L1.12994 8.01244L1.19276 8.12239L1.20847 8.09098L1.30271 8.12239L1.38124 8.23234C1.40219 8.19045 1.42313 8.19045 1.44407 8.23234C1.46501 8.26375 1.47548 8.27946 1.47548 8.27946L1.55402 8.21663C1.54355 8.16427 1.53307 8.11192 1.5226 8.05956C1.51213 7.99674 1.5069 7.93915 1.5069 7.88679C1.5069 7.81349 1.51213 7.76114 1.5226 7.72972C1.55402 7.61454 1.56449 7.52554 1.55402 7.46271C1.55402 7.46271 1.57496 7.42606 1.61684 7.35277C1.65873 7.269 1.70061 7.21664 1.7425 7.1957L1.86815 7.11717L1.89956 7.16429C1.88909 7.17476 1.86815 7.20617 1.83674 7.25853C1.80532 7.31088 1.77915 7.34753 1.7582 7.36847C1.67443 7.54648 1.64302 7.72449 1.66396 7.9025C1.66396 7.91297 1.66396 7.92868 1.66396 7.94962C1.67443 7.96009 1.67443 7.98103 1.66396 8.01244V8.23234C1.68491 8.24281 1.69538 8.28469 1.69538 8.35799C1.69538 8.42082 1.70585 8.44699 1.72679 8.43652C1.77915 8.42605 1.82103 8.44176 1.85244 8.48364C1.89433 8.51506 1.92574 8.49935 1.94668 8.43652L2.05663 8.56218H2.2137C2.20322 8.58312 2.2294 8.60406 2.29223 8.625C2.36553 8.63547 2.43882 8.64071 2.51212 8.64071C2.58542 8.64071 2.62207 8.64071 2.62207 8.64071L2.71631 8.71924C2.71631 8.70877 2.73201 8.71924 2.76343 8.75066H2.77913C2.81055 8.75066 2.84196 8.74018 2.87337 8.71924C2.91526 8.6983 2.94667 8.68783 2.96761 8.68783C3.01997 8.6983 3.07232 8.71924 3.12468 8.75066C3.18751 8.78207 3.23463 8.78207 3.26604 8.75066L3.39169 8.79778L3.53305 8.71924C3.554 8.74018 3.59588 8.76113 3.65871 8.78207C3.67965 8.79254 3.71106 8.79778 3.75295 8.79778C3.84719 8.79778 3.91525 8.77683 3.95713 8.73495L4.01996 8.81348C4.16655 8.80301 4.31315 8.80301 4.45974 8.81348C4.61681 8.81348 4.76341 8.81348 4.89953 8.81348C5.01471 8.81348 5.12466 8.81348 5.22937 8.81348C5.34455 8.80301 5.4545 8.79254 5.55921 8.78207C5.59062 8.78207 5.6168 8.78207 5.63774 8.78207C5.65868 8.7716 5.67439 8.76636 5.68486 8.76636C5.75816 8.76636 5.84193 8.74542 5.93617 8.70354C6.03041 8.66165 6.10894 8.64071 6.17177 8.64071C6.19271 8.64071 6.23983 8.625 6.31313 8.59359C6.3969 8.55171 6.42307 8.57788 6.39166 8.67212L6.23459 8.75066L6.18747 8.73495C6.177 8.74542 6.12988 8.7716 6.04611 8.81348C5.97282 8.8449 5.93093 8.85013 5.92046 8.82919L5.59062 8.87631C5.54874 8.88678 5.48591 8.89725 5.40214 8.90772C5.31837 8.91819 5.27649 8.91819 5.27649 8.90772L5.13513 8.93914C5.13513 8.92866 5.12466 8.92343 5.10372 8.92343C5.06183 8.92343 4.99901 8.93914 4.91524 8.97055C4.84194 9.00196 4.80005 9.01243 4.78958 9.00196C4.77911 8.98102 4.72676 8.98102 4.63252 9.00196C4.54875 9.01243 4.46498 9.01767 4.38121 9.01767C4.25556 9.01767 4.1875 8.99673 4.17702 8.95484L4.05137 9.00196C4.07231 8.98102 4.06184 8.97055 4.01996 8.97055C3.98855 8.96008 3.96237 8.96008 3.94143 8.97055L3.92572 9.04908C3.90478 9.05955 3.88383 9.05955 3.86289 9.04908C3.84195 9.03861 3.82101 9.02814 3.80007 9.01767C3.73724 8.98626 3.63776 8.97055 3.50164 8.97055C3.36552 8.97055 3.23463 8.96531 3.10897 8.95484C2.98332 8.94437 2.90479 8.91819 2.87337 8.87631L2.74772 8.93914C2.70584 8.93914 2.64301 8.9339 2.55924 8.92343C2.48594 8.90249 2.42835 8.88678 2.38647 8.87631C2.31317 8.85537 2.2294 8.83442 2.13516 8.81348C2.05139 8.79254 1.96763 8.7873 1.88386 8.79778L1.96239 8.92343V8.95484C2.03569 8.99673 2.09328 9.06479 2.13516 9.15903C2.18752 9.2428 2.26605 9.27421 2.37076 9.25327L2.41788 9.45745L2.54353 9.53599C2.55401 9.52552 2.56448 9.52028 2.57495 9.52028C2.60636 9.52028 2.65872 9.54122 2.73201 9.58311C2.80531 9.62499 2.8629 9.6564 2.90479 9.67735L2.95191 9.64593L3.03044 9.78729C3.04091 9.77682 3.05138 9.77159 3.06185 9.77159C3.09327 9.77159 3.12992 9.78206 3.1718 9.803C3.21368 9.82394 3.23986 9.82918 3.25033 9.81871L3.36028 9.85012L3.47023 9.81871C3.51211 9.88153 3.53829 9.92865 3.54876 9.96007C3.55923 9.99148 3.57494 10.0124 3.59588 10.0229C3.64823 10.0438 3.64823 10.0595 3.59588 10.07C3.55399 10.0805 3.53305 10.0962 3.53305 10.1171L3.54876 10.1485H3.69012C3.69012 10.1171 3.72677 10.091 3.80007 10.07C3.88383 10.0595 3.9676 10.0543 4.05137 10.0543C4.17702 10.0543 4.25032 10.0648 4.27126 10.0857C4.31315 10.1067 4.32362 10.1067 4.30268 10.0857L4.44404 10.07L4.53828 10.1485C4.55922 10.1171 4.58016 10.1014 4.6011 10.1014C4.63252 10.1014 4.65869 10.1067 4.67964 10.1171C4.71105 10.1381 4.72676 10.1485 4.72676 10.1485C4.7477 10.159 4.76864 10.1381 4.78958 10.0857C4.821 10.0438 4.85765 10.0281 4.89953 10.0386L4.96236 10.0543C5.03565 10.0543 5.10895 10.0438 5.18225 10.0229C5.26602 10.002 5.31314 10.0229 5.32361 10.0857L5.43356 10.0072L5.51209 10.0229L5.48068 10.1485C5.48068 10.1904 5.48591 10.2114 5.49638 10.2114C5.51732 10.2114 5.5435 10.1747 5.57491 10.1014C5.6168 10.0386 5.63774 10.0334 5.63774 10.0857L5.74769 9.96007C5.7791 9.98101 5.82099 9.99148 5.87334 9.99148C5.95711 9.99148 6.03564 9.96007 6.10894 9.89724C6.18224 9.84488 6.27124 9.80824 6.37595 9.78729L6.39166 9.81871C6.4126 9.80824 6.43354 9.79776 6.45449 9.78729C6.4859 9.78729 6.50161 9.79776 6.50161 9.81871L6.67438 9.803C6.71626 9.77159 6.78433 9.73494 6.87857 9.69305C6.98328 9.65117 7.05657 9.61976 7.09846 9.59881L7.11417 9.53599C7.11417 9.53599 7.14034 9.53599 7.1927 9.53599C7.25553 9.52552 7.29217 9.51505 7.30264 9.50457V9.48887C7.30264 9.46793 7.30264 9.43651 7.30264 9.39463C7.30264 9.34227 7.32359 9.32133 7.36547 9.3318L7.444 9.37892C7.53824 9.34751 7.60107 9.30562 7.63248 9.25327C7.67437 9.19044 7.73719 9.13285 7.82096 9.0805C7.85238 9.05955 7.87855 9.03338 7.8995 9.00196C7.93091 8.97055 7.96756 8.94961 8.00944 8.93914C8.01991 8.93914 8.03562 8.95484 8.05656 8.98626C8.08798 9.01767 8.11939 9.01243 8.1508 8.97055L8.16651 8.81348L8.30787 8.76636L8.3864 8.65642C8.3864 8.65642 8.3864 8.66165 8.3864 8.67212C8.39687 8.67212 8.40734 8.67212 8.41782 8.67212C8.4597 8.67212 8.50682 8.63024 8.55917 8.54647C8.61153 8.4627 8.622 8.40511 8.59059 8.3737L8.74765 8.20092C8.73718 8.1381 8.75813 8.05956 8.81048 7.96532C8.87331 7.87108 8.90472 7.7559 8.90472 7.61978C8.90472 7.53601 8.87854 7.43653 8.82619 7.32135C8.77383 7.20617 8.66912 7.08052 8.51206 6.94439L8.43352 6.89727C8.30787 6.8135 8.19269 6.75068 8.08798 6.70879C7.99374 6.65644 7.86808 6.60408 7.71102 6.55173C7.71102 6.55173 7.69531 6.54126 7.6639 6.52031L7.22411 6.39466C7.18223 6.36325 7.08799 6.33707 6.94139 6.31613C6.7948 6.29519 6.69532 6.27948 6.64297 6.26901C6.62202 6.25854 6.59585 6.24283 6.56443 6.22189C6.54349 6.20095 6.52255 6.20618 6.50161 6.23759L6.36025 6.15906C6.3393 6.16953 6.31313 6.17477 6.28171 6.17477C6.26077 6.17477 6.23983 6.16953 6.21889 6.15906C6.20842 6.14859 6.177 6.14335 6.12465 6.14335C6.05135 6.13288 5.93093 6.10147 5.76339 6.04912C5.60633 5.99676 5.51732 5.98105 5.49638 6.00199L5.08801 5.79781L5.04089 5.81352L4.89953 5.73498C4.93094 5.77687 4.91 5.78734 4.8367 5.7664C4.76341 5.73498 4.67964 5.69833 4.5854 5.65645C4.49116 5.60409 4.41786 5.57268 4.3655 5.56221C4.1875 5.48891 4.02519 5.3842 3.8786 5.24808C3.74247 5.11195 3.67441 4.94442 3.67441 4.74546C3.67441 4.56746 3.68488 4.4418 3.70583 4.36851C3.72677 4.29521 3.75295 4.23238 3.78436 4.18003C3.82624 4.12767 3.86289 4.04914 3.89431 3.94443C3.91525 3.91301 3.94143 3.8816 3.97284 3.85019C4.01472 3.8083 4.0409 3.76642 4.05137 3.72453L4.17702 3.646C4.1875 3.59364 4.21367 3.54129 4.25556 3.48893C4.30791 3.43658 4.35503 3.39993 4.39692 3.37899C4.53304 3.31616 4.68487 3.21145 4.85241 3.06485C5.03042 2.90779 5.20319 2.79261 5.37073 2.71931C5.41261 2.69837 5.44926 2.68266 5.48068 2.67219C5.51209 2.65125 5.54874 2.63554 5.59062 2.62507L5.60633 2.65648C5.70057 2.62507 5.85763 2.57795 6.07753 2.51512C6.29742 2.44183 6.53826 2.36853 6.80003 2.29523C7.07228 2.22193 7.32359 2.15911 7.55395 2.10675C7.79479 2.05439 7.98327 2.02822 8.11939 2.02822C8.21363 2.02822 8.26598 2.04392 8.27646 2.07534L8.46493 1.96539C8.47541 1.97586 8.49635 1.98633 8.52776 1.9968C8.55918 1.9968 8.58012 1.99157 8.59059 1.9811L8.74765 2.02822C8.78954 2.00727 8.82095 1.9968 8.84189 1.9968C8.90472 1.9968 8.97278 2.01775 9.04608 2.05963C9.12985 2.09104 9.19268 2.10151 9.23456 2.09104C9.28692 2.0701 9.32356 2.06487 9.34451 2.07534C9.37592 2.07534 9.40733 2.07534 9.43875 2.07534H9.50157C9.53299 2.07534 9.5644 2.08057 9.59581 2.09104C9.6377 2.09104 9.67958 2.11199 9.72147 2.15387L9.8 2.16958C9.83141 2.20099 9.84712 2.23764 9.84712 2.27952C9.86806 2.32141 9.93089 2.34759 10.0356 2.35806C10.1403 2.36853 10.2084 2.38947 10.2398 2.42088C10.3236 2.48371 10.3707 2.58842 10.3811 2.73502C10.4021 2.87114 10.4126 2.99679 10.4126 3.11197C10.4021 3.22716 10.355 3.36852 10.2712 3.53605C10.1979 3.69312 10.1037 3.81877 9.98848 3.91301C9.93612 3.9549 9.85759 4.00202 9.75288 4.05437C9.64817 4.09626 9.56964 4.13291 9.51728 4.16432C9.4021 4.23762 9.27644 4.27427 9.14032 4.27427C8.94137 4.27427 8.84189 4.23238 8.84189 4.14861C8.84189 4.1172 8.87854 4.08579 8.95184 4.05437C9.0042 4.03343 9.05132 4.01249 9.0932 3.99155C9.14556 3.96013 9.19268 3.92348 9.23456 3.8816C9.27644 3.86066 9.30262 3.85019 9.31309 3.85019C9.33404 3.83972 9.34974 3.82924 9.36021 3.81877C9.38116 3.8083 9.39686 3.79783 9.40733 3.78736C9.4178 3.76642 9.43875 3.74548 9.47016 3.72453C9.53299 3.67218 9.61152 3.58841 9.70576 3.47323C9.81047 3.34757 9.88377 3.25333 9.92565 3.19051C9.93612 3.13815 9.95707 3.07009 9.98848 2.98632C10.0304 2.89208 10.0513 2.80831 10.0513 2.73502C10.0513 2.67219 10.0356 2.62507 10.0042 2.59366C9.99371 2.59366 9.98848 2.58842 9.98848 2.57795L9.97277 2.54654C9.889 2.36853 9.72147 2.26905 9.47016 2.24811C9.22932 2.2167 9.02514 2.20099 8.8576 2.20099C8.8576 2.20099 8.84713 2.19575 8.82619 2.18528C8.80525 2.17481 8.79477 2.18005 8.79477 2.20099L8.44923 2.2324L8.41782 2.20099L8.08798 2.26382L8.05656 2.24811L7.71102 2.34235C7.72149 2.32141 7.71625 2.31617 7.69531 2.32664C7.67437 2.32664 7.6639 2.32664 7.6639 2.32664L7.31835 2.42088L7.30264 2.40518L7.14558 2.49942C7.14558 2.48894 7.14034 2.47847 7.12987 2.468C7.1194 2.45753 7.11417 2.4523 7.11417 2.4523C7.10369 2.46277 7.09322 2.47847 7.08275 2.49942C7.07228 2.50989 7.05657 2.52036 7.03563 2.53083L7.00422 2.51512L6.78433 2.59366C6.78433 2.60413 6.76338 2.60936 6.7215 2.60936C6.43878 2.73502 6.12988 2.88161 5.79481 3.04915C5.4702 3.20621 5.2189 3.43134 5.04089 3.72453L5.00948 3.69312L4.86812 3.81877C4.85765 3.82924 4.84194 3.84495 4.821 3.86589C4.81053 3.88684 4.79482 3.92348 4.77388 3.97584C4.74246 4.05961 4.69534 4.15908 4.63252 4.27427C4.58016 4.38945 4.55398 4.49939 4.55398 4.6041C4.55398 4.70882 4.57493 4.80829 4.61681 4.90253C4.65869 4.9863 4.69011 5.00724 4.71105 4.96536L4.85241 5.0596L4.89953 5.23237L4.93094 5.21666L5.13513 5.37373H5.16654L5.41785 5.57792L5.60633 5.68786H5.73198L5.92046 5.75069C5.9414 5.76116 5.95711 5.77687 5.96758 5.79781C5.98852 5.80828 6.0147 5.79781 6.04611 5.7664L6.20318 5.87634C6.21365 5.86587 6.22936 5.86064 6.2503 5.86064C6.27124 5.86064 6.29218 5.87111 6.31313 5.89205C6.33407 5.90252 6.34978 5.91299 6.36025 5.92346L6.39166 5.90776L6.94139 6.12765C6.96233 6.11718 6.98851 6.11194 7.01993 6.11194C7.07228 6.11194 7.11417 6.12241 7.14558 6.14335C7.18746 6.15383 7.22935 6.1643 7.27123 6.17477C7.29217 6.18524 7.31835 6.20095 7.34976 6.22189C7.39165 6.24283 7.41259 6.25854 7.41259 6.26901C7.43353 6.27948 7.45448 6.28471 7.47542 6.28471C7.50683 6.28471 7.53301 6.28471 7.55395 6.28471L7.69531 6.33183L7.83667 6.41037L7.97803 6.42607C7.97803 6.42607 8.01991 6.44702 8.10368 6.4889C8.19792 6.52031 8.29216 6.55173 8.3864 6.58314C8.49111 6.61455 8.5487 6.6355 8.55917 6.64597L8.65342 6.74021L8.66912 6.7245L8.77907 6.78733C8.89425 6.86062 9.00943 7.00198 9.12461 7.21141C9.25027 7.41036 9.31309 7.63025 9.31309 7.87108C9.31309 8.02815 9.28692 8.18522 9.23456 8.34228C9.19268 8.48888 9.14032 8.6093 9.07749 8.70354C8.92043 8.91296 8.74765 9.10144 8.55917 9.26897C8.38117 9.43651 8.21886 9.57787 8.07227 9.69305C8.01991 9.72447 7.98327 9.75064 7.96232 9.77159C7.94138 9.79253 7.90997 9.803 7.86808 9.803C7.83667 9.81347 7.81049 9.82918 7.78955 9.85012C7.64295 9.93389 7.48065 10.0072 7.30264 10.07C7.12464 10.1433 6.96757 10.2114 6.83145 10.2742C6.76862 10.2951 6.71626 10.3056 6.67438 10.3056C6.6325 10.3161 6.59061 10.3266 6.54873 10.337C6.53826 10.337 6.51731 10.3423 6.4859 10.3527C6.46496 10.3737 6.45449 10.3789 6.45449 10.3684L6.34454 10.447C6.33407 10.4365 6.31836 10.4313 6.29742 10.4313C6.25554 10.4313 6.20842 10.4522 6.15606 10.4941C6.11418 10.536 6.07229 10.5517 6.03041 10.5412H6.0147C5.98329 10.5412 5.9414 10.5464 5.88905 10.5569C5.84716 10.5779 5.81575 10.5779 5.79481 10.5569L5.59062 10.6355L5.55921 10.5569C5.54874 10.5569 5.53303 10.5674 5.51209 10.5883C5.50162 10.6197 5.48591 10.6355 5.46497 10.6355C5.46497 10.6355 5.44403 10.625 5.40214 10.604C5.36026 10.5831 5.32884 10.5936 5.3079 10.6355L5.13513 10.6826C5.12466 10.6407 5.09324 10.6197 5.04089 10.6197C4.99901 10.6197 4.96236 10.6355 4.93094 10.6669L4.80529 10.604V10.6197L4.67964 10.604L4.55398 10.6826Z" fill="white"/>
<path d="M12.6733 9.59881C12.6105 9.59881 12.5791 9.56216 12.5791 9.48887C12.5791 9.43651 12.5948 9.37369 12.6262 9.30039C12.71 9.12238 12.8042 8.87107 12.9089 8.54647C13.0241 8.22187 13.1655 7.94438 13.333 7.71402C13.4482 7.48365 13.5529 7.25853 13.6471 7.03863C13.7519 6.80827 13.8513 6.5779 13.9456 6.34754C13.9456 6.34754 13.9351 6.34231 13.9142 6.33183C13.8932 6.31089 13.8827 6.28995 13.8827 6.26901C13.8304 6.22712 13.7676 6.16953 13.6943 6.09623C13.621 6.01247 13.6157 5.9287 13.6786 5.84493C13.6995 5.82399 13.71 5.81352 13.71 5.81352C13.7204 5.81352 13.7257 5.81352 13.7257 5.81352C13.7257 5.80304 13.7204 5.79781 13.71 5.79781C13.71 5.79781 13.71 5.79257 13.71 5.7821L13.6943 5.7664C13.6838 5.7664 13.6733 5.7664 13.6628 5.7664C13.6628 5.75592 13.6576 5.75069 13.6471 5.75069C13.6053 5.75069 13.5581 5.76116 13.5058 5.7821C13.4534 5.79257 13.4011 5.79781 13.3487 5.79781C13.2859 5.79781 13.2021 5.82399 13.0974 5.87634C12.9927 5.91823 12.8985 5.95488 12.8147 5.98629C12.7728 5.99676 12.7466 6.00199 12.7362 6.00199C12.7362 5.99152 12.7152 5.99676 12.6733 6.0177C12.6629 6.02817 12.6629 6.01247 12.6733 5.97058C12.6943 5.91823 12.7047 5.88158 12.7047 5.86064C12.7047 5.85016 12.6995 5.84493 12.689 5.84493C12.6681 5.84493 12.6262 5.87634 12.5634 5.93917C12.5006 5.99152 12.4587 6.02294 12.4377 6.03341C12.4273 6.04388 12.422 6.05959 12.422 6.08053C12.4325 6.10147 12.4377 6.12241 12.4377 6.14335C12.4377 6.17477 12.4116 6.21142 12.3592 6.2533C12.3068 6.28471 12.2702 6.31089 12.2493 6.33183C12.2074 6.36325 12.155 6.38419 12.0922 6.39466C12.0398 6.39466 11.9875 6.4156 11.9351 6.45749C11.8723 6.49937 11.8409 6.53078 11.8409 6.55173C11.8514 6.57267 11.8199 6.60932 11.7466 6.66167C11.6524 6.73497 11.5215 6.84492 11.354 6.99151C11.1969 7.13811 11.0765 7.269 10.9927 7.38418C10.7938 7.62501 10.6105 7.9025 10.443 8.21663C10.2859 8.53076 10.2074 8.77683 10.2074 8.95484C10.2074 9.09097 10.265 9.15903 10.3802 9.15903C10.4011 9.15903 10.422 9.15903 10.443 9.15903C10.4639 9.14856 10.4901 9.13809 10.5215 9.12761L10.9299 8.89202L11.0241 8.87631V8.8606L11.087 8.90772C11.0974 8.89725 11.0922 8.88154 11.0713 8.8606C11.0608 8.82919 11.0608 8.81348 11.0713 8.81348C11.0817 8.81348 11.087 8.81872 11.087 8.82919C11.0974 8.82919 11.1079 8.82919 11.1184 8.82919L11.1498 8.78207C11.1498 8.78207 11.1655 8.7873 11.1969 8.79778C11.2388 8.79778 11.2702 8.7873 11.2911 8.76636C11.3226 8.75589 11.3278 8.74018 11.3069 8.71924C11.2964 8.6983 11.2807 8.68259 11.2597 8.67212L11.3697 8.57788C11.3802 8.55694 11.422 8.536 11.4953 8.51506C11.6733 8.39987 11.8199 8.26375 11.9351 8.10668C12.0608 7.93915 12.2021 7.78732 12.3592 7.65119H12.3749L12.5634 7.46271L12.5477 7.41559L12.7519 7.17999H12.7833C12.7937 7.15905 12.8147 7.13287 12.8461 7.10146C12.888 7.07005 12.9142 7.04387 12.9246 7.02293C12.9456 7.01246 12.9927 6.9601 13.066 6.86586C13.1498 6.76115 13.2283 6.67738 13.3016 6.61455C13.3854 6.55173 13.4325 6.52031 13.443 6.52031C13.4534 6.52031 13.4587 6.52555 13.4587 6.53602C13.4587 6.56743 13.443 6.61455 13.4115 6.67738C13.3906 6.74021 13.3697 6.78209 13.3487 6.80303C13.2754 6.91822 13.1812 7.0491 13.066 7.1957C12.9508 7.33182 12.8828 7.41559 12.8618 7.44701C12.7362 7.58313 12.5843 7.76637 12.4063 7.99674C12.2283 8.21663 12.0346 8.43652 11.8252 8.65642C11.6158 8.87631 11.4063 9.06479 11.1969 9.22185C10.998 9.36845 10.8095 9.44175 10.6315 9.44175C10.4639 9.44175 10.2859 9.38939 10.0974 9.28468C9.90896 9.17997 9.81472 8.98102 9.81472 8.68783C9.81472 8.59359 9.82519 8.48888 9.84614 8.3737C9.87755 8.24804 9.92467 8.11715 9.9875 7.98103C9.9875 7.98103 9.99797 7.97056 10.0189 7.94962C10.0399 7.9182 10.0556 7.90773 10.066 7.9182C10.087 7.88679 10.0922 7.85538 10.0817 7.82396C10.0817 7.78208 10.0817 7.7559 10.0817 7.74543L10.1131 7.71402C10.1341 7.59884 10.2126 7.49413 10.3487 7.39989C10.4849 7.30565 10.5582 7.23235 10.5686 7.17999C10.5791 7.16952 10.5843 7.15381 10.5843 7.13287L10.6472 6.92869V6.86586H10.71L10.7571 6.80303L10.7728 6.77162C10.7519 6.76115 10.7571 6.74544 10.7885 6.7245C10.8304 6.69309 10.8514 6.67738 10.8514 6.67738C10.8618 6.65644 10.8723 6.64073 10.8828 6.63026C10.9037 6.61979 10.9194 6.60932 10.9299 6.59885H11.0398C11.0608 6.56743 11.0503 6.55173 11.0084 6.55173C10.9665 6.55173 10.9456 6.55173 10.9456 6.55173C10.9456 6.54126 10.9456 6.53602 10.9456 6.53602C10.9561 6.52555 10.9613 6.51508 10.9613 6.50461L11.1341 6.36325C11.1864 6.32136 11.2388 6.28471 11.2911 6.2533C11.3435 6.22189 11.3906 6.18524 11.4325 6.14335C11.4639 6.14335 11.4692 6.15906 11.4482 6.19047C11.4587 6.21142 11.4692 6.21142 11.4796 6.19047C11.5006 6.16953 11.511 6.15906 11.511 6.15906L11.5896 6.14335V6.12765C11.5896 6.10671 11.5948 6.07529 11.6053 6.03341C11.6158 5.99152 11.621 5.96535 11.621 5.95487C11.8409 5.78734 12.0712 5.64074 12.3121 5.51509C12.5529 5.37897 12.7885 5.3109 13.0189 5.3109C13.2911 5.3109 13.5372 5.41561 13.7571 5.62504L13.8356 5.67216C13.8461 5.67216 13.8513 5.66692 13.8513 5.65645C13.8723 5.50985 13.9927 5.39991 14.2126 5.32661C14.4429 5.25331 14.6471 5.21666 14.8251 5.21666C15.0136 5.21666 15.1079 5.24284 15.1079 5.2952C15.1079 5.31614 15.0764 5.35279 15.0136 5.40514C14.9822 5.42609 14.9299 5.4732 14.8566 5.5465C14.7833 5.6198 14.71 5.7088 14.6367 5.81352C14.6262 5.84493 14.6105 5.87634 14.5895 5.90776C14.5686 5.93917 14.5477 5.97058 14.5267 6.00199C14.5162 6.02294 14.5005 6.04911 14.4796 6.08053C14.4691 6.10147 14.4534 6.12241 14.4325 6.14335C14.2545 6.44702 14.1131 6.70356 14.0084 6.91298C13.9037 7.1224 13.778 7.38941 13.6314 7.71402C13.6105 7.77684 13.6 7.81349 13.6 7.82396C13.6 7.90773 13.6471 7.94962 13.7414 7.94962C13.8042 7.94962 13.867 7.93391 13.9299 7.9025L14.0869 7.83967C14.3382 7.60931 14.6 7.41559 14.8723 7.25853C14.8827 7.25853 14.888 7.25853 14.888 7.25853C14.8984 7.24805 14.9089 7.24282 14.9194 7.24282C14.9508 7.24282 14.9717 7.26376 14.9822 7.30565C14.9927 7.33706 14.9822 7.36324 14.9508 7.38418C14.6471 7.55172 14.3644 7.76637 14.1026 8.02815C14.0922 8.04909 14.0817 8.07003 14.0712 8.09098C14.0607 8.11192 14.045 8.13286 14.0241 8.1538C13.9927 8.17475 13.9613 8.21139 13.9299 8.26375C13.8984 8.31611 13.8827 8.34752 13.8827 8.35799C13.8723 8.3894 13.8566 8.39987 13.8356 8.3894C13.8252 8.37893 13.7937 8.39464 13.7414 8.43652C13.7309 8.44699 13.7204 8.46794 13.71 8.49935C13.71 8.53076 13.7047 8.55694 13.6943 8.57788C13.6733 8.6093 13.6524 8.63547 13.6314 8.65642C13.6105 8.66689 13.6 8.67736 13.6 8.68783C13.5896 8.72971 13.5686 8.75589 13.5372 8.76636C13.5163 8.76636 13.4953 8.77683 13.4744 8.79778C13.4639 8.79778 13.4587 8.80301 13.4587 8.81348C13.4587 8.90772 13.4482 8.94961 13.4272 8.93914C13.4063 8.92866 13.3854 8.93914 13.3644 8.97055C13.3435 9.01243 13.3173 9.03338 13.2859 9.03338C13.2231 9.05432 13.1969 9.07002 13.2074 9.0805C13.2283 9.09097 13.244 9.10144 13.2545 9.11191C13.2754 9.11191 13.2597 9.12761 13.2074 9.15903C13.1864 9.1695 13.1655 9.20091 13.1445 9.25327C13.1236 9.29515 13.1026 9.32657 13.0817 9.34751C13.0503 9.36845 13.0189 9.38416 12.9875 9.39463C12.956 9.4051 12.9299 9.42604 12.9089 9.45745C12.8147 9.55169 12.7362 9.59881 12.6733 9.59881Z" fill="white"/>
<path d="M14.8323 9.59881C14.7694 9.59881 14.738 9.56216 14.738 9.48887C14.738 9.43651 14.7537 9.37369 14.7851 9.30039C14.8689 9.12238 14.9631 8.87107 15.0679 8.54647C15.183 8.22187 15.3244 7.94438 15.4919 7.71402C15.5443 7.59884 15.6228 7.45748 15.7275 7.28994C15.8427 7.11193 15.9527 6.90251 16.0574 6.66167V6.58314C16.0574 6.55173 16.0574 6.52555 16.0574 6.50461C16.0678 6.47319 16.0783 6.44178 16.0888 6.41037C16.1307 6.3266 16.1673 6.26901 16.1987 6.23759C16.2406 6.20618 16.2825 6.14859 16.3244 6.06482C16.3244 6.04388 16.3244 6.02294 16.3244 6.00199C16.3349 5.98105 16.3453 5.96011 16.3558 5.93917C16.3349 5.96011 16.3296 5.9444 16.3401 5.89205C16.3191 5.89205 16.3401 5.83969 16.4029 5.73498C16.4448 5.64074 16.4762 5.58839 16.4972 5.57792H16.5129C16.5547 5.51509 16.5914 5.46273 16.6228 5.42085C16.6542 5.36849 16.6647 5.33708 16.6542 5.32661V5.2952C16.6542 5.2219 16.6752 5.15384 16.7171 5.09101C16.7694 5.02818 16.8165 4.96012 16.8584 4.88682C16.8898 4.84494 16.916 4.824 16.9369 4.824C16.9579 4.824 16.9684 4.82923 16.9684 4.8397C16.9788 4.8397 16.9893 4.8397 16.9998 4.8397C17.0312 4.8397 17.0469 4.81353 17.0469 4.76117C17.0469 4.74023 17.0417 4.71405 17.0312 4.68264C17.0312 4.65122 17.0259 4.61458 17.0155 4.57269C17.0259 4.52034 17.0678 4.47845 17.1411 4.44704L17.1883 4.43133C17.2406 4.21144 17.3034 4.06484 17.3767 3.99155C17.3977 3.9706 17.4186 3.94966 17.4396 3.92872C17.4605 3.90778 17.4814 3.88684 17.5024 3.86589C17.628 3.72977 17.7223 3.58317 17.7851 3.42611C17.806 3.38422 17.8322 3.35281 17.8636 3.33187C17.9055 3.30045 17.9422 3.26381 17.9736 3.22192C17.9945 3.19051 17.9998 3.15909 17.9893 3.12768C17.9893 3.0858 17.9945 3.04915 18.005 3.01774C18.0574 2.93397 18.094 2.88685 18.1149 2.87638C18.1359 2.8659 18.1568 2.85543 18.1778 2.84496C18.2092 2.82402 18.2615 2.7769 18.3348 2.7036C18.3662 2.65125 18.3977 2.59889 18.4291 2.54654C18.471 2.49418 18.5128 2.44182 18.5547 2.38947C18.6176 2.31617 18.6856 2.26382 18.7589 2.2324C18.8322 2.20099 18.9055 2.15387 18.9788 2.09104C18.9997 2.0701 19.0102 2.03869 19.0102 1.9968C19.0102 1.94445 19.0207 1.9078 19.0416 1.88686C19.4081 1.59367 19.8008 1.3476 20.2196 1.14865C20.6489 0.949695 20.9788 0.85022 21.2091 0.85022C21.2929 0.85022 21.3715 0.855455 21.4447 0.865926C21.5285 0.876397 21.607 0.892104 21.6803 0.913046H21.7118C21.7641 0.913046 21.8165 0.923517 21.8688 0.944459C21.9212 0.965402 21.9683 0.986344 22.0102 1.00729C22.0521 1.00729 22.1044 1.01776 22.1673 1.0387C22.2196 1.05964 22.251 1.09105 22.2615 1.13294C22.272 1.17482 22.2615 1.20624 22.2301 1.22718C22.2196 1.23765 22.2039 1.23765 22.183 1.22718C22.162 1.21671 22.1411 1.21147 22.1201 1.21147C22.0992 1.21147 22.0782 1.201 22.0573 1.18006C22.0364 1.15912 22.0154 1.14341 21.9945 1.13294C21.9526 1.13294 21.9055 1.13817 21.8531 1.14865C21.8112 1.15912 21.7641 1.16435 21.7118 1.16435H21.6646C21.5913 1.16435 21.539 1.15388 21.5076 1.13294C21.4866 1.10153 21.4343 1.09629 21.3505 1.11723C21.34 1.11723 21.3086 1.12247 21.2563 1.13294C21.2039 1.14341 21.1673 1.14865 21.1463 1.14865C20.7694 1.24289 20.4395 1.39995 20.1568 1.61985C19.8741 1.82927 19.6228 2.06487 19.4029 2.32664C19.1935 2.58842 18.9893 2.83973 18.7903 3.08056C18.6961 3.26904 18.6018 3.42087 18.5076 3.53605C18.4971 3.54652 18.4867 3.54129 18.4762 3.52035C18.4657 3.49941 18.4553 3.49941 18.4448 3.52035C18.4134 3.55176 18.3872 3.60412 18.3662 3.67741C18.3558 3.74024 18.3348 3.7926 18.3034 3.83448C18.2929 3.84495 18.2825 3.83972 18.272 3.81877C18.2615 3.79783 18.2458 3.79783 18.2249 3.81877C18.2144 3.82924 18.1987 3.87113 18.1778 3.94443C18.1673 4.00725 18.1516 4.04914 18.1306 4.07008C18.005 4.23762 17.8689 4.39992 17.7223 4.55698C17.5757 4.71405 17.4291 4.8973 17.2825 5.10672C17.0731 5.43132 16.8741 5.75069 16.6856 6.06482C16.4972 6.37895 16.2982 6.7245 16.0888 7.10146C16.0155 7.22711 15.9579 7.34229 15.916 7.44701C15.8846 7.54125 15.848 7.63025 15.8061 7.71402C15.7851 7.74543 15.7747 7.78732 15.7747 7.83967C15.7747 7.91297 15.8165 7.94962 15.9003 7.94962C15.9631 7.94962 16.026 7.93391 16.0888 7.9025L16.2459 7.83967C16.4972 7.60931 16.7589 7.41559 17.0312 7.25853C17.0417 7.25853 17.0469 7.25853 17.0469 7.25853C17.0574 7.24805 17.0678 7.24282 17.0783 7.24282C17.1097 7.24282 17.1307 7.26376 17.1411 7.30565C17.1516 7.33706 17.1411 7.36324 17.1097 7.38418C16.8061 7.55172 16.5233 7.76637 16.2616 8.02815C16.2511 8.04909 16.2406 8.07003 16.2301 8.09098C16.2197 8.11192 16.204 8.13286 16.183 8.1538C16.1621 8.17475 16.1307 8.21139 16.0888 8.26375C16.0574 8.31611 16.0417 8.34752 16.0417 8.35799C16.0312 8.3894 16.0155 8.39987 15.9945 8.3894C15.9841 8.37893 15.9527 8.39464 15.9003 8.43652C15.8898 8.44699 15.8794 8.46794 15.8689 8.49935C15.8689 8.53076 15.8637 8.55694 15.8532 8.57788C15.8427 8.6093 15.8218 8.63547 15.7904 8.65642C15.7694 8.66689 15.7589 8.67736 15.7589 8.68783C15.7485 8.72971 15.7275 8.75589 15.6961 8.76636C15.6752 8.76636 15.6542 8.77683 15.6333 8.79778C15.6228 8.80825 15.6228 8.82395 15.6333 8.8449C15.6438 8.86584 15.6385 8.88678 15.6176 8.90772C15.6071 8.93914 15.5966 8.95484 15.5862 8.95484C15.5757 8.94437 15.56 8.94961 15.5391 8.97055C15.4972 9.01243 15.4658 9.03338 15.4448 9.03338C15.382 9.05432 15.3558 9.07002 15.3663 9.0805C15.3872 9.09097 15.4029 9.10144 15.4134 9.11191C15.4343 9.11191 15.4186 9.12761 15.3663 9.15903C15.3453 9.1695 15.3244 9.20091 15.3035 9.25327C15.2825 9.29515 15.2616 9.32657 15.2406 9.34751C15.2092 9.36845 15.1778 9.38416 15.1464 9.39463C15.1254 9.4051 15.0993 9.42604 15.0679 9.45745C14.9736 9.55169 14.8951 9.59881 14.8323 9.59881Z" fill="white"/>
<path d="M19.9346 4.65122C19.9032 4.65122 19.8718 4.64075 19.8403 4.61981C19.8194 4.59887 19.788 4.57269 19.7461 4.54128C19.7252 4.53081 19.699 4.52034 19.6676 4.50987C19.6466 4.48892 19.6362 4.45751 19.6362 4.41563C19.6257 4.40515 19.6047 4.39992 19.5733 4.39992C19.521 4.39992 19.4948 4.36327 19.4948 4.28997C19.4948 4.2062 19.5367 4.14861 19.6204 4.1172L19.699 4.05437V4.07008L19.7618 3.99155H19.7932C19.856 3.99155 19.8979 3.96013 19.9189 3.89731C19.9503 3.83448 20.0131 3.7926 20.1074 3.77165C20.1702 3.75071 20.2225 3.75595 20.2644 3.78736C20.3063 3.81877 20.3587 3.83448 20.4215 3.83448C20.4843 3.83448 20.5524 3.81354 20.6257 3.77165L20.8613 3.72453C20.8927 3.72453 20.9084 3.735 20.9084 3.75595C20.9084 3.77689 20.877 3.80307 20.8142 3.83448C20.7618 3.86589 20.7251 3.89207 20.7042 3.91301L20.6885 3.92872L20.6728 3.96013L20.61 4.03867C20.5471 4.11196 20.4738 4.20097 20.3901 4.30568C20.3168 4.39992 20.2382 4.47845 20.1545 4.54128C20.0602 4.61458 19.9869 4.65122 19.9346 4.65122ZM17.5472 9.59881C17.4843 9.59881 17.4529 9.56216 17.4529 9.48887C17.4529 9.43651 17.4686 9.37369 17.5001 9.30039C17.5838 9.12238 17.6781 8.87107 17.7828 8.54647C17.898 8.22187 18.0393 7.94438 18.2069 7.71402C18.322 7.48365 18.4267 7.25853 18.521 7.03863C18.6257 6.80827 18.7252 6.5779 18.8194 6.34754C18.8194 6.34754 18.8089 6.34231 18.788 6.33183C18.7775 6.31089 18.7723 6.28995 18.7723 6.26901C18.7095 6.22712 18.6414 6.16953 18.5681 6.09623C18.5053 6.01247 18.5 5.9287 18.5524 5.84493C18.5733 5.82399 18.589 5.81352 18.5995 5.81352C18.61 5.81352 18.6152 5.81352 18.6152 5.81352C18.6152 5.80304 18.61 5.79781 18.5995 5.79781C18.5995 5.78734 18.5995 5.7821 18.5995 5.7821C18.5995 5.74022 18.6205 5.71404 18.6623 5.70357C18.7042 5.6931 18.7252 5.67739 18.7252 5.65645C18.7461 5.50985 18.8718 5.39991 19.1021 5.32661C19.3325 5.25331 19.5367 5.21666 19.7147 5.21666C19.8927 5.21666 19.9817 5.24284 19.9817 5.2952C19.9817 5.31614 19.9503 5.35279 19.8875 5.40514C19.856 5.42609 19.8037 5.4732 19.7304 5.5465C19.6571 5.6198 19.589 5.7088 19.5262 5.81352L19.4006 6.00199C19.3901 6.02294 19.3744 6.04911 19.3534 6.08053C19.343 6.10147 19.3273 6.12241 19.3063 6.14335C19.1388 6.44702 19.0027 6.70356 18.8979 6.91298C18.7932 7.1224 18.6676 7.38941 18.521 7.71402C18.5 7.77684 18.4896 7.81873 18.4896 7.83967C18.4896 7.91297 18.5315 7.94962 18.6152 7.94962C18.678 7.94962 18.7409 7.93391 18.8037 7.9025L18.9608 7.83967C19.2121 7.60931 19.4739 7.41559 19.7461 7.25853C19.7566 7.25853 19.7618 7.25853 19.7618 7.25853C19.7723 7.24805 19.7827 7.24282 19.7932 7.24282C19.8246 7.24282 19.8456 7.26376 19.856 7.30565C19.8665 7.33706 19.856 7.36324 19.8246 7.38418C19.521 7.55172 19.2383 7.76637 18.9765 8.02815C18.966 8.04909 18.9555 8.07003 18.9451 8.09098C18.9346 8.11192 18.9189 8.13286 18.8979 8.1538C18.877 8.17475 18.8456 8.21139 18.8037 8.26375C18.7723 8.31611 18.7566 8.34752 18.7566 8.35799C18.7461 8.3894 18.7304 8.39987 18.7095 8.3894C18.699 8.37893 18.6676 8.39464 18.6152 8.43652C18.6048 8.44699 18.5943 8.46794 18.5838 8.49935C18.5838 8.53076 18.5786 8.55694 18.5681 8.57788C18.5576 8.6093 18.5367 8.63547 18.5053 8.65642C18.4843 8.66689 18.4739 8.67736 18.4739 8.68783C18.4634 8.72971 18.4424 8.75589 18.411 8.76636C18.3901 8.76636 18.3692 8.77683 18.3482 8.79778C18.3377 8.80825 18.3377 8.82395 18.3482 8.8449C18.3587 8.86584 18.3534 8.88678 18.3325 8.90772C18.322 8.93914 18.3116 8.95484 18.3011 8.95484C18.2906 8.94437 18.2749 8.94961 18.254 8.97055C18.2121 9.01243 18.1807 9.03338 18.1597 9.03338C18.0969 9.05432 18.0707 9.07002 18.0812 9.0805C18.1021 9.09097 18.1178 9.10144 18.1283 9.11191C18.1493 9.11191 18.1336 9.12761 18.0812 9.15903C18.0603 9.1695 18.0393 9.20091 18.0184 9.25327C17.9974 9.29515 17.9765 9.32657 17.9555 9.34751C17.9241 9.36845 17.8927 9.38416 17.8613 9.39463C17.8404 9.4051 17.8142 9.42604 17.7828 9.45745C17.6885 9.55169 17.61 9.59881 17.5472 9.59881Z" fill="white"/>
<path d="M20.1386 9.59881C20.0758 9.59881 20.0444 9.56216 20.0444 9.48887C20.0444 9.43651 20.0601 9.37369 20.0915 9.30039C20.1753 9.12238 20.2748 8.87107 20.3899 8.54647C20.5051 8.22187 20.6465 7.94438 20.814 7.71402L21.4266 6.34754C21.4266 6.34754 21.4161 6.34231 21.3952 6.33183C21.3742 6.31089 21.3638 6.28995 21.3638 6.26901C21.3009 6.22712 21.2329 6.16953 21.1596 6.09623C21.0967 6.01247 21.0915 5.9287 21.1439 5.84493C21.1648 5.82399 21.1805 5.81352 21.191 5.81352C21.2015 5.81352 21.2067 5.81352 21.2067 5.81352V5.7821C21.2067 5.74022 21.2224 5.71404 21.2538 5.70357C21.2957 5.6931 21.3219 5.67739 21.3323 5.65645C21.3533 5.50985 21.4737 5.39991 21.6936 5.32661C21.924 5.25331 22.1281 5.21666 22.3062 5.21666C22.4842 5.21666 22.5732 5.24284 22.5732 5.2952C22.5732 5.32661 22.5418 5.36326 22.4789 5.40514C22.458 5.42609 22.4056 5.4732 22.3219 5.5465C22.2486 5.6198 22.1805 5.7088 22.1177 5.81352L22.0077 6.00199L21.8978 6.14335C21.7302 6.44702 21.5941 6.70356 21.4894 6.91298C21.3847 7.1224 21.2591 7.38941 21.1125 7.71402C21.081 7.77684 21.0653 7.8292 21.0653 7.87108C21.0653 7.92344 21.0863 7.94962 21.1282 7.94962C21.1491 7.94962 21.17 7.94438 21.191 7.93391C21.2224 7.91297 21.2538 7.89726 21.2852 7.88679C21.369 7.83444 21.4371 7.78732 21.4894 7.74543C21.5522 7.69308 21.6203 7.64072 21.6936 7.58837C21.725 7.55695 21.7512 7.55695 21.7721 7.58837C21.7931 7.60931 21.7931 7.64072 21.7721 7.6826C21.7302 7.76637 21.6988 7.81873 21.6779 7.83967C21.6674 7.85014 21.6517 7.86061 21.6308 7.87108C21.6098 7.88156 21.5627 7.92868 21.4894 8.01244L21.4266 8.1381C21.4056 8.15904 21.3795 8.20092 21.3481 8.26375C21.3271 8.31611 21.3166 8.34752 21.3166 8.35799C21.3166 8.37893 21.3062 8.3894 21.2852 8.3894C21.2643 8.37893 21.2329 8.39464 21.191 8.43652C21.1805 8.44699 21.1753 8.46794 21.1753 8.49935C21.1858 8.53076 21.1805 8.55694 21.1596 8.57788C21.1491 8.6093 21.1334 8.63547 21.1125 8.65642C21.0915 8.66689 21.081 8.67736 21.081 8.68783C21.0706 8.72971 21.0496 8.75589 21.0182 8.76636C20.9973 8.76636 20.9763 8.77683 20.9554 8.79778C20.9449 8.79778 20.9397 8.80825 20.9397 8.82919C20.9397 8.91296 20.9292 8.94961 20.9083 8.93914C20.8873 8.92866 20.8664 8.93914 20.8454 8.97055C20.8245 9.01243 20.7983 9.03338 20.7669 9.03338C20.7041 9.05432 20.6779 9.07002 20.6884 9.0805C20.6988 9.09097 20.7146 9.10144 20.7355 9.11191C20.7564 9.11191 20.7407 9.12761 20.6884 9.15903C20.657 9.1695 20.6308 9.20091 20.6098 9.25327C20.5889 9.29515 20.568 9.32657 20.547 9.34751C20.5261 9.36845 20.4999 9.38416 20.4685 9.39463C20.4371 9.4051 20.4109 9.42604 20.3899 9.45745C20.2957 9.55169 20.2119 9.59881 20.1386 9.59881ZM24.8192 9.47316C24.7773 9.47316 24.7407 9.47316 24.7093 9.47316C24.6779 9.46269 24.6464 9.45222 24.615 9.44175C24.5103 9.42081 24.4161 9.38939 24.3323 9.34751C24.259 9.30562 24.1962 9.22709 24.1438 9.11191C24.1334 9.05955 24.1072 8.99149 24.0653 8.90772C24.0339 8.82395 24.0129 8.74542 24.0025 8.67212C23.992 8.61977 23.9868 8.55694 23.9868 8.48364C23.9763 8.43129 23.9711 8.36323 23.9711 8.27946C23.9501 8.17475 23.9396 8.08051 23.9396 7.99674C23.9501 7.91297 23.9554 7.81349 23.9554 7.69831C23.9554 7.58313 23.9606 7.49936 23.9711 7.44701C23.992 7.35277 24.0025 7.30565 24.0025 7.30565C24.0025 7.29517 24.0025 7.24282 24.0025 7.14858C24.0129 7.02293 24.0182 6.89204 24.0182 6.75591C24.0182 6.61979 24.0234 6.50984 24.0339 6.42607C24.0653 6.11194 24.0025 5.95487 23.8454 5.95487C23.7826 5.95487 23.6988 5.98105 23.5941 6.03341C23.5836 6.06482 23.5627 6.08576 23.5313 6.09623C23.5103 6.09623 23.4789 6.10671 23.437 6.12765L23.3585 6.17477C23.3585 6.18524 23.348 6.19047 23.3271 6.19047C23.3061 6.18 23.2957 6.18524 23.2957 6.20618C23.3061 6.24807 23.3009 6.27424 23.28 6.28471C23.2695 6.29519 23.2538 6.28995 23.2328 6.26901L23.0601 6.39466C23.0601 6.40513 23.0444 6.42607 23.013 6.45749L22.9973 6.47319C22.9554 6.51508 22.9187 6.53602 22.8873 6.53602L22.8402 6.58314C22.8402 6.59361 22.8297 6.61455 22.8088 6.64597C22.7983 6.66691 22.7721 6.67214 22.7302 6.66167L22.6517 6.74021C22.6098 6.80303 22.5732 6.83968 22.5418 6.85015C22.5208 6.86062 22.4946 6.8711 22.4632 6.88157L22.3376 7.03863L22.2747 7.05434C22.2747 7.09622 22.2276 7.15905 22.1334 7.24282C22.0496 7.32659 21.992 7.38418 21.9606 7.41559C21.9292 7.44701 21.8978 7.46271 21.8664 7.46271C21.8454 7.46271 21.835 7.45224 21.835 7.4313C21.835 7.42083 21.8611 7.37894 21.9135 7.30565C21.9554 7.26376 22.0182 7.18523 22.102 7.07005C22.1962 6.95486 22.2486 6.90251 22.259 6.91298C22.3114 6.86062 22.348 6.80827 22.369 6.75591C22.3899 6.69309 22.4266 6.64073 22.4789 6.59885C22.4789 6.60932 22.4789 6.61979 22.4789 6.63026C22.4894 6.63026 22.4946 6.63026 22.4946 6.63026C22.5156 6.63026 22.5418 6.60408 22.5732 6.55173C22.6046 6.4889 22.6255 6.46272 22.636 6.47319L22.903 6.23759C22.903 6.22712 22.9292 6.20618 22.9815 6.17477C23.0234 6.15383 23.0496 6.14335 23.0601 6.14335C23.0705 6.14335 23.0967 6.11194 23.1386 6.04912L23.2486 5.97058C23.259 5.94964 23.2695 5.95488 23.28 5.98629C23.3009 6.00723 23.3166 6.01247 23.3271 6.00199L23.3742 5.89205C23.3952 5.86064 23.4266 5.83446 23.4684 5.81352C23.5208 5.7821 23.5732 5.75069 23.6255 5.71928C23.7512 5.59362 23.8454 5.5308 23.9082 5.5308H23.9711C24.1072 5.47844 24.2328 5.45226 24.348 5.45226C24.5156 5.45226 24.6464 5.51509 24.7407 5.64074C24.7616 5.67216 24.7826 5.72975 24.8035 5.81352C24.8245 5.82399 24.8297 5.83969 24.8192 5.86064C24.8192 5.87111 24.8245 5.88681 24.8349 5.90776C24.8454 5.9287 24.8663 5.95488 24.8978 5.98629C24.9292 6.00723 24.9449 6.03341 24.9449 6.06482V6.09623C24.9449 6.13812 24.9187 6.17477 24.8663 6.20618C24.9187 6.24807 24.9396 6.27424 24.9292 6.28471C24.9292 6.28471 24.9239 6.30042 24.9135 6.33183L24.882 6.55173C24.8716 6.62502 24.8559 6.68262 24.8349 6.7245C24.814 6.75591 24.793 6.8135 24.7721 6.89727C24.814 6.9601 24.814 7.00198 24.7721 7.02293H24.7407L24.725 7.08575C24.725 7.1067 24.7355 7.12764 24.7564 7.14858L24.7093 7.24282C24.7197 7.23235 24.725 7.23235 24.725 7.24282C24.7355 7.24282 24.7407 7.24282 24.7407 7.24282C24.7302 7.26376 24.7145 7.30565 24.6936 7.36847C24.6726 7.42083 24.6569 7.46271 24.6464 7.49413C24.636 7.54648 24.615 7.57266 24.5836 7.57266C24.5522 7.57266 24.5417 7.59884 24.5522 7.65119C24.5627 7.66166 24.5679 7.69831 24.5679 7.76114C24.5784 7.81349 24.5731 7.83967 24.5522 7.83967L24.5208 8.02815V8.07527C24.5208 8.12763 24.5103 8.17998 24.4894 8.23234C24.4789 8.28469 24.4684 8.33705 24.458 8.3894C24.4475 8.44176 24.437 8.49935 24.4266 8.56218C24.4266 8.61453 24.4266 8.66689 24.4266 8.71924C24.4266 8.76113 24.4266 8.80825 24.4266 8.8606C24.437 8.90249 24.4475 8.94437 24.458 8.98626C24.458 8.99673 24.4737 9.02814 24.5051 9.0805C24.5365 9.13285 24.5522 9.16426 24.5522 9.17473L24.5993 9.22185C24.6203 9.23233 24.6517 9.23233 24.6936 9.22185C24.7459 9.21138 24.7826 9.21662 24.8035 9.23756C24.8978 9.24803 25.0182 9.20091 25.1648 9.0962C25.3218 8.98102 25.4632 8.85537 25.5888 8.71924C25.6203 8.68783 25.6517 8.67212 25.6831 8.67212C25.704 8.67212 25.7197 8.68783 25.7302 8.71924C25.7407 8.75066 25.7302 8.79254 25.6988 8.8449C25.5313 9.08573 25.3742 9.25327 25.2276 9.34751C25.081 9.43128 24.9449 9.47316 24.8192 9.47316Z" fill="white"/>
<path d="M15.004 12.2483C14.8323 12.2483 14.6916 12.2172 14.582 12.1551C14.4724 12.0912 14.382 12.0099 14.3108 11.9113L14.4779 11.7743C14.5528 11.8675 14.6313 11.9369 14.7135 11.9825C14.7976 12.0282 14.8971 12.051 15.0122 12.051C15.151 12.051 15.2569 12.0191 15.33 11.9551C15.4031 11.8912 15.4396 11.8017 15.4396 11.6866C15.4396 11.5935 15.4131 11.5213 15.3601 11.4702C15.3072 11.4172 15.2149 11.3798 15.0834 11.3578L14.8697 11.3222C14.7766 11.3058 14.698 11.2811 14.6341 11.2483C14.572 11.2154 14.5217 11.1761 14.4834 11.1304C14.445 11.0829 14.4176 11.0318 14.4012 10.977C14.3848 10.9204 14.3765 10.8619 14.3765 10.8017C14.3765 10.6263 14.4341 10.4939 14.5491 10.4044C14.6642 10.3149 14.8195 10.2701 15.0149 10.2701C15.1683 10.2701 15.2971 10.2957 15.4012 10.3469C15.5072 10.398 15.5921 10.4701 15.656 10.5633L15.4944 10.703C15.4414 10.6336 15.3775 10.577 15.3026 10.5332C15.2277 10.4893 15.1309 10.4674 15.0122 10.4674C14.8825 10.4674 14.7829 10.4948 14.7135 10.5496C14.6441 10.6044 14.6094 10.6866 14.6094 10.7962C14.6094 10.882 14.635 10.9524 14.6861 11.0071C14.7391 11.0601 14.8332 11.0985 14.9683 11.1222L15.1738 11.1578C15.267 11.1743 15.3455 11.1989 15.4094 11.2318C15.4734 11.2647 15.5245 11.304 15.5629 11.3496C15.6031 11.3953 15.6314 11.4464 15.6478 11.5031C15.6643 11.5597 15.6725 11.619 15.6725 11.6811C15.6725 11.8583 15.614 11.9971 15.4971 12.0976C15.382 12.1981 15.2177 12.2483 15.004 12.2483Z" fill="white"/>
<path d="M16.7208 12.2154C16.613 12.2154 16.5335 12.1853 16.4824 12.125C16.4331 12.0647 16.4084 11.9871 16.4084 11.8921V10.988H15.9372V10.8017H16.2879C16.3353 10.8017 16.3682 10.7925 16.3865 10.7743C16.4066 10.7542 16.4166 10.7204 16.4166 10.6729V10.303H16.6276V10.8017H17.2715V10.988H16.6276V12.0291H17.2715V12.2154H16.7208Z" fill="white"/>
<path d="M18.6293 11.9853H18.6184C18.6038 12.02 18.5855 12.0538 18.5636 12.0866C18.5417 12.1177 18.5143 12.1451 18.4814 12.1688C18.4503 12.1926 18.4129 12.2118 18.3691 12.2264C18.3252 12.241 18.2741 12.2483 18.2156 12.2483C18.0677 12.2483 17.9489 12.2017 17.8594 12.1086C17.7699 12.0136 17.7252 11.8802 17.7252 11.7085V10.8017H17.9444V11.6702C17.9444 11.7999 17.9727 11.8967 18.0293 11.9606C18.0859 12.0227 18.169 12.0538 18.2786 12.0538C18.3225 12.0538 18.3654 12.0483 18.4074 12.0373C18.4494 12.0264 18.4869 12.0099 18.5197 11.988C18.5526 11.9661 18.5791 11.9387 18.5992 11.9058C18.6193 11.8711 18.6293 11.83 18.6293 11.7825V10.8017H18.8485V12.2154H18.6293V11.9853Z" fill="white"/>
<path d="M20.2804 11.9853H20.2694C20.1781 12.1606 20.0329 12.2483 19.8338 12.2483C19.6603 12.2483 19.5242 12.1834 19.4256 12.0538C19.3287 11.9241 19.2803 11.7423 19.2803 11.5085C19.2803 11.2747 19.3287 11.093 19.4256 10.9633C19.5242 10.8336 19.6603 10.7688 19.8338 10.7688C20.0329 10.7688 20.1781 10.8565 20.2694 11.0318H20.2804V10.1879H20.4996V12.2154H20.2804V11.9853ZM19.9187 12.0538C19.968 12.0538 20.0146 12.0474 20.0585 12.0346C20.1023 12.0218 20.1406 12.0035 20.1735 11.9798C20.2064 11.9542 20.232 11.9241 20.2502 11.8894C20.2703 11.8528 20.2804 11.8108 20.2804 11.7633V11.2537C20.2804 11.2062 20.2703 11.1651 20.2502 11.1304C20.232 11.0939 20.2064 11.0638 20.1735 11.04C20.1406 11.0145 20.1023 10.9953 20.0585 10.9825C20.0146 10.9697 19.968 10.9633 19.9187 10.9633C19.7909 10.9633 19.6913 11.0026 19.6201 11.0811C19.5507 11.1578 19.516 11.2601 19.516 11.388V11.6291C19.516 11.7569 19.5507 11.8601 19.6201 11.9387C19.6913 12.0154 19.7909 12.0538 19.9187 12.0538Z" fill="white"/>
<path d="M21.6684 10.4893C21.6045 10.4893 21.5597 10.4765 21.5341 10.451C21.5086 10.4236 21.4958 10.3898 21.4958 10.3496V10.3058C21.4958 10.2656 21.5086 10.2327 21.5341 10.2071C21.5597 10.1797 21.6045 10.166 21.6684 10.166C21.7323 10.166 21.7771 10.1797 21.8026 10.2071C21.8282 10.2327 21.841 10.2656 21.841 10.3058V10.3496C21.841 10.3898 21.8282 10.4236 21.8026 10.451C21.7771 10.4765 21.7323 10.4893 21.6684 10.4893ZM21.0492 12.0291H21.5588V10.988H21.0492V10.8017H21.778V12.0291H22.2547V12.2154H21.0492V12.0291Z" fill="white"/>
<path d="M23.2235 12.2483C23.1249 12.2483 23.0354 12.2309 22.955 12.1962C22.8765 12.1615 22.8089 12.1122 22.7523 12.0483C22.6975 11.9825 22.6555 11.9049 22.6263 11.8154C22.597 11.7241 22.5824 11.6218 22.5824 11.5085C22.5824 11.3971 22.597 11.2957 22.6263 11.2044C22.6555 11.1131 22.6975 11.0355 22.7523 10.9715C22.8089 10.9058 22.8765 10.8555 22.955 10.8208C23.0354 10.7861 23.1249 10.7688 23.2235 10.7688C23.3222 10.7688 23.4108 10.7861 23.4893 10.8208C23.5697 10.8555 23.6373 10.9058 23.692 10.9715C23.7487 11.0355 23.7916 11.1131 23.8208 11.2044C23.85 11.2957 23.8647 11.3971 23.8647 11.5085C23.8647 11.6218 23.85 11.7241 23.8208 11.8154C23.7916 11.9049 23.7487 11.9825 23.692 12.0483C23.6373 12.1122 23.5697 12.1615 23.4893 12.1962C23.4108 12.2309 23.3222 12.2483 23.2235 12.2483ZM23.2235 12.0592C23.3459 12.0592 23.4446 12.0227 23.5194 11.9496C23.5943 11.8766 23.6318 11.7633 23.6318 11.6099V11.4072C23.6318 11.2537 23.5943 11.1405 23.5194 11.0674C23.4446 10.9944 23.3459 10.9578 23.2235 10.9578C23.1012 10.9578 23.0025 10.9944 22.9276 11.0674C22.8528 11.1405 22.8153 11.2537 22.8153 11.4072V11.6099C22.8153 11.7633 22.8528 11.8766 22.9276 11.9496C23.0025 12.0227 23.1012 12.0592 23.2235 12.0592Z" fill="white"/>
</svg>
