<svg width="329" height="157" viewBox="0 0 329 157" fill="none" xmlns="http://www.w3.org/2000/svg">
<path d="M50.635 129.664L48.7776 129.045C48.64 129.458 48.2961 129.595 47.7457 129.458C47.333 129.458 46.989 129.32 46.7138 129.045C46.0259 127.944 45.2692 127.463 44.4437 127.6C43.6182 127.875 42.5175 127.738 41.1416 127.187H40.9352C40.5225 127.187 40.0409 127.256 39.4906 127.394C39.0778 127.669 38.6651 127.738 38.2523 127.6L36.8077 126.362C36.8077 126.499 36.6701 126.568 36.3949 126.568C35.9822 126.568 35.5694 126.499 35.1567 126.362C34.7439 126.224 34.6063 126.087 34.7439 125.949L31.2355 124.092L30.8227 124.298L28.5525 121.822C28.415 121.959 28.2774 122.028 28.1398 122.028C27.8646 122.028 27.5895 121.822 27.3143 121.409C27.0391 121.134 26.8327 120.996 26.6951 120.996C25.8696 120.308 24.9065 119.62 23.8059 118.932C22.8428 118.382 21.8797 117.763 20.9166 117.075C20.779 116.937 20.7102 116.662 20.7102 116.249C20.7102 115.974 20.5726 115.768 20.2974 115.63C19.8847 115.217 19.4031 114.805 18.8528 114.392C18.3024 113.979 17.9585 113.498 17.8209 112.947L16.9954 113.154C16.1699 111.64 15.2068 110.264 14.1061 109.026C13.0054 107.788 12.5238 106.137 12.6614 104.073H12.2487L9.56576 103.041V102.422C9.42818 102.422 9.2218 102.491 8.94663 102.628C8.67146 102.628 8.32749 102.56 7.91474 102.422C6.95164 102.009 6.05733 101.528 5.23182 100.977C4.40631 100.289 3.78717 99.4639 3.37442 98.5008C3.23683 98.0881 3.03045 97.8817 2.75528 97.8817C2.6177 97.8817 2.48011 97.8129 2.34253 97.6753C2.06736 96.9874 1.6546 96.3682 1.10426 95.8179C0.553916 95.2675 0.347538 94.5796 0.485123 93.7541L1.10426 88.5947C2.20494 87.3564 3.03045 86.7373 3.5808 86.7373C4.13114 86.7373 4.40631 87.3564 4.40631 88.5947L3.16804 90.6584L3.37442 93.135C3.64959 93.4101 4.06234 93.5477 4.61269 93.5477C5.16303 93.5477 5.57578 93.4789 5.85095 93.3414L5.64458 94.5796L6.47009 96.0243L6.67647 95.6115L7.91474 96.0243L8.94663 97.4689C9.2218 96.9186 9.49697 96.9186 9.77214 97.4689C10.0473 97.8817 10.1849 98.0881 10.1849 98.0881L11.2168 97.2625C11.0792 96.5746 10.9416 95.8867 10.804 95.1988C10.6664 94.3732 10.5977 93.6165 10.5977 92.9286C10.5977 91.9655 10.6664 91.2776 10.804 90.8648C11.2168 89.3514 11.3544 88.1819 11.2168 87.3564C11.2168 87.3564 11.492 86.8748 12.0423 85.9117C12.5926 84.8111 13.143 84.1231 13.6933 83.848L15.3443 82.8161L15.7571 83.4352C15.6195 83.5728 15.3443 83.9855 14.9316 84.6735C14.5188 85.3614 14.1749 85.8429 13.8997 86.1181C12.799 88.4571 12.3863 90.796 12.6614 93.135C12.6614 93.2726 12.6614 93.4789 12.6614 93.7541C12.799 93.8917 12.799 94.1669 12.6614 94.5796V97.4689C12.9366 97.6065 13.0742 98.1568 13.0742 99.1199C13.0742 99.9455 13.2118 100.289 13.4869 100.152C14.1749 100.014 14.7252 100.221 15.138 100.771C15.6883 101.184 16.1011 100.977 16.3762 100.152L17.8209 101.803H19.8847C19.7471 102.078 20.091 102.353 20.9166 102.628C21.8797 102.766 22.8428 102.835 23.8059 102.835C24.769 102.835 25.2505 102.835 25.2505 102.835L26.4888 103.867C26.4888 103.729 26.6951 103.867 27.1079 104.279H27.3143C27.727 104.279 28.1398 104.142 28.5525 103.867C29.1029 103.591 29.5156 103.454 29.7908 103.454C30.4787 103.591 31.1667 103.867 31.8546 104.279C32.6801 104.692 33.2992 104.692 33.712 104.279L35.363 104.899L37.2204 103.867C37.4956 104.142 38.0459 104.417 38.8715 104.692C39.1466 104.83 39.5594 104.899 40.1097 104.899C41.348 104.899 42.2423 104.623 42.7926 104.073L43.6182 105.105C45.5444 104.967 47.4705 104.967 49.3967 105.105C51.4605 105.105 53.3867 105.105 55.1753 105.105C56.6888 105.105 58.1334 105.105 59.5093 105.105C61.0227 104.967 62.4674 104.83 63.8432 104.692C64.256 104.692 64.5999 104.692 64.8751 104.692C65.1503 104.555 65.3566 104.486 65.4942 104.486C66.4573 104.486 67.558 104.211 68.7963 103.66C70.0346 103.11 71.0664 102.835 71.892 102.835C72.1671 102.835 72.7863 102.628 73.7494 102.216C74.85 101.665 75.194 102.009 74.7812 103.248L72.7175 104.279L72.0983 104.073C71.9608 104.211 71.3416 104.555 70.2409 105.105C69.2778 105.518 68.7275 105.586 68.5899 105.311L64.256 105.93C63.7056 106.068 62.8801 106.206 61.7794 106.343C60.6787 106.481 60.1284 106.481 60.1284 106.343L58.271 106.756C58.271 106.618 58.1334 106.55 57.8582 106.55C57.3079 106.55 56.4824 106.756 55.3817 107.169C54.4186 107.581 53.8683 107.719 53.7307 107.581C53.5931 107.306 52.9052 107.306 51.6669 107.581C50.5662 107.719 49.4655 107.788 48.3649 107.788C46.7138 107.788 45.8195 107.513 45.6819 106.962L44.0309 107.581C44.3061 107.306 44.1685 107.169 43.6182 107.169C43.2054 107.031 42.8614 107.031 42.5863 107.169L42.3799 108.201C42.1047 108.338 41.8295 108.338 41.5544 108.201C41.2792 108.063 41.004 107.925 40.7289 107.788C39.9033 107.375 38.5963 107.169 36.8077 107.169C35.0191 107.169 33.2992 107.1 31.6482 106.962C29.9972 106.825 28.9653 106.481 28.5525 105.93L26.9015 106.756C26.3512 106.756 25.5257 106.687 24.425 106.55C23.4619 106.274 22.7052 106.068 22.1548 105.93C21.1917 105.655 20.091 105.38 18.8528 105.105C17.7521 104.83 16.6514 104.761 15.5507 104.899L16.5826 106.55V106.962C17.5457 107.513 18.3024 108.407 18.8528 109.645C19.5407 110.746 20.5726 111.159 21.9484 110.883L22.5676 113.566L24.2186 114.598C24.3562 114.461 24.4938 114.392 24.6314 114.392C25.0441 114.392 25.7321 114.667 26.6951 115.217C27.6582 115.768 28.415 116.181 28.9653 116.456L29.5844 116.043L30.6163 117.9C30.7539 117.763 30.8915 117.694 31.0291 117.694C31.4418 117.694 31.9234 117.832 32.4737 118.107C33.0241 118.382 33.368 118.451 33.5056 118.313L34.9503 118.726L36.3949 118.313C36.9453 119.139 37.2892 119.758 37.4268 120.171C37.5644 120.583 37.7708 120.858 38.0459 120.996C38.7339 121.271 38.7339 121.478 38.0459 121.615C37.4956 121.753 37.2204 121.959 37.2204 122.234L37.4268 122.647H39.2842C39.2842 122.234 39.7658 121.89 40.7289 121.615C41.8295 121.478 42.9302 121.409 44.0309 121.409C45.6819 121.409 46.645 121.546 46.9202 121.822C47.4705 122.097 47.6081 122.097 47.333 121.822L49.1904 121.615L50.4286 122.647C50.7038 122.234 50.979 122.028 51.2541 122.028C51.6669 122.028 52.0109 122.097 52.286 122.234C52.6988 122.509 52.9052 122.647 52.9052 122.647C53.1803 122.785 53.4555 122.509 53.7307 121.822C54.1434 121.271 54.625 121.065 55.1753 121.202L56.0008 121.409C56.9639 121.409 57.927 121.271 58.8901 120.996C59.9908 120.721 60.61 120.996 60.7475 121.822L62.1922 120.79L63.2241 120.996L62.8113 122.647C62.8113 123.197 62.8801 123.473 63.0177 123.473C63.2929 123.473 63.6368 122.991 64.0496 122.028C64.5999 121.202 64.8751 121.134 64.8751 121.822L66.3197 120.171C66.7325 120.446 67.2828 120.583 67.9708 120.583C69.0715 120.583 70.1033 120.171 71.0664 119.345C72.0295 118.657 73.199 118.176 74.5749 117.9L74.7812 118.313C75.0564 118.176 75.3316 118.038 75.6068 117.9C76.0195 117.9 76.2259 118.038 76.2259 118.313L78.4961 118.107C79.0464 117.694 79.9407 117.212 81.179 116.662C82.5548 116.112 83.5179 115.699 84.0683 115.424L84.2747 114.598C84.2747 114.598 84.6186 114.598 85.3065 114.598C86.1321 114.461 86.6136 114.323 86.7512 114.186V113.979C86.7512 113.704 86.7512 113.291 86.7512 112.741C86.7512 112.053 87.0264 111.778 87.5767 111.915L88.6086 112.535C89.8469 112.122 90.6724 111.571 91.0851 110.883C91.6355 110.058 92.461 109.301 93.5617 108.613C93.9744 108.338 94.3184 107.994 94.5936 107.581C95.0063 107.169 95.4879 106.894 96.0382 106.756C96.1758 106.756 96.3822 106.962 96.6573 107.375C97.0701 107.788 97.4828 107.719 97.8956 107.169L98.102 105.105L99.9594 104.486L100.991 103.041C100.991 103.041 100.991 103.11 100.991 103.248C101.129 103.248 101.266 103.248 101.404 103.248C101.954 103.248 102.574 102.697 103.261 101.596C103.949 100.496 104.087 99.7391 103.674 99.3263L105.738 97.0562C105.6 96.2306 105.876 95.1988 106.563 93.9605C107.389 92.7222 107.802 91.2088 107.802 89.4202C107.802 88.3195 107.458 87.0124 106.77 85.499C106.082 83.9855 104.706 82.3345 102.642 80.5459L101.61 79.9268C99.9594 78.8261 98.4459 78.0006 97.0701 77.4502C95.8318 76.7623 94.1808 76.0744 92.117 75.3865C92.117 75.3865 91.9106 75.2489 91.4979 74.9737L85.7193 73.3227C85.1689 72.9099 83.9307 72.566 82.0045 72.2908C80.0783 72.0156 78.7712 71.8092 78.0833 71.6716C77.8081 71.5341 77.4642 71.3277 77.0514 71.0525C76.7762 70.7773 76.5011 70.8461 76.2259 71.2589L74.3685 70.227C74.0933 70.3646 73.7494 70.4334 73.3366 70.4334C73.0614 70.4334 72.7863 70.3646 72.5111 70.227C72.3735 70.0894 71.9608 70.0206 71.2728 70.0206C70.3097 69.883 68.7275 69.4703 66.5261 68.7824C64.4623 68.0944 63.2929 67.888 63.0177 68.1632L57.6519 65.4803L57.0327 65.6867L55.1753 64.6548C55.5881 65.2051 55.3129 65.3427 54.3498 65.0676C53.3867 64.6548 52.286 64.1732 51.0478 63.6229C49.8095 62.935 48.8464 62.5222 48.1585 62.3846C45.8195 61.4215 43.6869 60.0457 41.7607 58.2571C39.9721 56.4685 39.0778 54.2671 39.0778 51.653C39.0778 49.314 39.2154 47.663 39.4906 46.6999C39.7658 45.7368 40.1097 44.9113 40.5225 44.2234C41.0728 43.5354 41.5544 42.5035 41.9671 41.1277C42.2423 40.7149 42.5863 40.3022 42.999 39.8894C43.5494 39.3391 43.8933 38.7887 44.0309 38.2384L45.6819 37.2065C45.8195 36.5186 46.1635 35.8306 46.7138 35.1427C47.4018 34.4548 48.0209 33.9732 48.5712 33.6981C50.3598 32.8726 52.3548 31.4967 54.5562 29.5705C56.8951 27.5067 59.1653 25.9933 61.3667 25.0302C61.917 24.755 62.3986 24.5486 62.8113 24.4111C63.2241 24.1359 63.7056 23.9295 64.256 23.7919L64.4623 24.2047C65.7006 23.7919 67.7644 23.1728 70.6537 22.3473C73.543 21.3842 76.7075 20.4211 80.1471 19.458C83.7243 18.4949 87.0264 17.6694 90.0532 16.9814C93.2177 16.2935 95.6942 15.9495 97.4828 15.9495C98.7211 15.9495 99.409 16.1559 99.5466 16.5687L102.023 15.124C102.161 15.2616 102.436 15.3992 102.849 15.5368C103.261 15.5368 103.537 15.468 103.674 15.3304L105.738 15.9495C106.288 15.6744 106.701 15.5368 106.976 15.5368C107.802 15.5368 108.696 15.812 109.659 16.3623C110.76 16.7751 111.585 16.9126 112.136 16.7751C112.824 16.4999 113.305 16.4311 113.58 16.5687C113.993 16.5687 114.406 16.5687 114.819 16.5687H115.644C116.057 16.5687 116.47 16.6375 116.882 16.7751C117.433 16.7751 117.983 17.0502 118.533 17.6006L119.565 17.807C119.978 18.2197 120.184 18.7013 120.184 19.2516C120.46 19.8019 121.285 20.1459 122.661 20.2835C124.037 20.4211 124.931 20.6962 125.344 21.109C126.445 21.9345 127.064 23.3104 127.201 25.2366C127.476 27.0252 127.614 28.6762 127.614 30.1896C127.476 31.7031 126.857 33.5605 125.757 35.7619C124.794 37.8256 123.555 39.4767 122.042 40.7149C121.354 41.2653 120.322 41.8844 118.946 42.5723C117.57 43.1227 116.538 43.6042 115.851 44.017C114.337 44.9801 112.686 45.4616 110.897 45.4616C108.283 45.4616 106.976 44.9113 106.976 43.8106C106.976 43.3978 107.458 42.9851 108.421 42.5723C109.109 42.2972 109.728 42.022 110.278 41.7468C110.966 41.3341 111.585 40.8525 112.136 40.3022C112.686 40.027 113.03 39.8894 113.168 39.8894C113.443 39.7518 113.649 39.6142 113.787 39.4767C114.062 39.3391 114.268 39.2015 114.406 39.0639C114.543 38.7887 114.819 38.5136 115.231 38.2384C116.057 37.5505 117.089 36.4498 118.327 34.9363C119.703 33.2853 120.666 32.047 121.216 31.2215C121.354 30.5336 121.629 29.6393 122.042 28.5386C122.592 27.3003 122.867 26.1997 122.867 25.2366C122.867 24.4111 122.661 23.7919 122.248 23.3792C122.111 23.3792 122.042 23.3104 122.042 23.1728L121.835 22.76C120.735 20.4211 118.533 19.114 115.231 18.8388C112.067 18.4261 109.384 18.2197 107.183 18.2197C107.183 18.2197 107.045 18.1509 106.77 18.0133C106.495 17.8757 106.357 17.9445 106.357 18.2197L101.817 18.6325L101.404 18.2197L97.0701 19.0452L96.6573 18.8388L92.117 20.0771C92.2546 19.8019 92.1858 19.7331 91.9106 19.8707C91.6355 19.8707 91.4979 19.8707 91.4979 19.8707L86.9576 21.109L86.7512 20.9026L84.6874 22.1409C84.6874 22.0033 84.6186 21.8657 84.481 21.7281C84.3434 21.5906 84.2747 21.5218 84.2747 21.5218C84.1371 21.6593 83.9995 21.8657 83.8619 22.1409C83.7243 22.2785 83.5179 22.4161 83.2428 22.5536L82.83 22.3473L79.9407 23.3792C79.9407 23.5167 79.6655 23.5855 79.1152 23.5855C75.4004 25.2366 71.3416 27.1628 66.9389 29.3641C62.6737 31.4279 59.3717 34.386 57.0327 38.2384L56.62 37.8256L54.7626 39.4767C54.625 39.6142 54.4186 39.8206 54.1434 40.0958C54.0059 40.371 53.7995 40.8525 53.5243 41.5404C53.1115 42.6411 52.4924 43.9482 51.6669 45.4616C50.979 46.9751 50.635 48.4197 50.635 49.7956C50.635 51.1714 50.9102 52.4785 51.4605 53.7168C52.0109 54.8174 52.4236 55.0926 52.6988 54.5423L54.5562 55.7805L55.1753 58.0507L55.5881 57.8443L58.271 59.9081H58.6838L61.9858 62.591L64.4623 64.0357H66.1134L68.5899 64.8612C68.8651 64.9988 69.0715 65.2051 69.209 65.4803C69.4842 65.6179 69.8282 65.4803 70.2409 65.0676L72.3047 66.5122C72.4423 66.3746 72.6487 66.3058 72.9239 66.3058C73.199 66.3058 73.4742 66.4434 73.7494 66.7186C74.0245 66.8562 74.2309 66.9937 74.3685 67.1313L74.7812 66.9249L82.0045 69.8142C82.2797 69.6767 82.6236 69.6079 83.0364 69.6079C83.7243 69.6079 84.2746 69.7455 84.6874 70.0206C85.2377 70.1582 85.7881 70.2958 86.3384 70.4334C86.6136 70.571 86.9576 70.7773 87.3703 71.0525C87.9207 71.3277 88.1958 71.5341 88.1958 71.6716C88.471 71.8092 88.7462 71.878 89.0213 71.878C89.4341 71.878 89.7781 71.878 90.0532 71.878L91.9106 72.4972L93.768 73.5291L95.6255 73.7354C95.6255 73.7354 96.1758 74.0106 97.2765 74.5609C98.5147 74.9737 99.753 75.3865 100.991 75.7992C102.367 76.212 103.124 76.4871 103.261 76.6247L104.5 77.863L104.706 77.6566L106.151 78.4821C107.664 79.4452 109.178 81.3026 110.691 84.0543C112.342 86.6685 113.168 89.5577 113.168 92.7222C113.168 94.786 112.824 96.8498 112.136 98.9136C111.585 100.84 110.897 102.422 110.072 103.66C108.008 106.412 105.738 108.889 103.261 111.09C100.922 113.291 98.7899 115.149 96.8637 116.662C96.1758 117.075 95.6942 117.419 95.4191 117.694C95.1439 117.969 94.7311 118.107 94.1808 118.107C93.768 118.244 93.4241 118.451 93.1489 118.726C91.2227 119.827 89.0901 120.79 86.7512 121.615C84.4122 122.578 82.3484 123.473 80.5598 124.298C79.7343 124.573 79.0464 124.711 78.4961 124.711C77.9457 124.848 77.3954 124.986 76.845 125.124C76.7074 125.124 76.4323 125.192 76.0195 125.33C75.7443 125.605 75.6068 125.674 75.6068 125.536L74.1621 126.568C74.0245 126.431 73.8182 126.362 73.543 126.362C72.9926 126.362 72.3735 126.637 71.6856 127.187C71.1352 127.738 70.5849 127.944 70.0346 127.807H69.8282C69.4154 127.807 68.8651 127.875 68.1772 128.013C67.6268 128.288 67.2141 128.288 66.9389 128.013L64.256 129.045L63.8432 128.013C63.7056 128.013 63.4992 128.15 63.2241 128.426C63.0865 128.838 62.8801 129.045 62.6049 129.045C62.6049 129.045 62.3298 128.907 61.7794 128.632C61.2291 128.357 60.8163 128.494 60.5412 129.045L58.271 129.664C58.1334 129.114 57.7207 128.838 57.0327 128.838C56.4824 128.838 56.0008 129.045 55.5881 129.458L53.9371 128.632V128.838L52.286 128.632L50.635 129.664Z" fill="#BCB1A4"/>
<path d="M157.32 115.424C156.494 115.424 156.081 114.942 156.081 113.979C156.081 113.291 156.288 112.466 156.7 111.503C157.801 109.164 159.039 105.862 160.415 101.596C161.929 97.3313 163.786 93.6853 165.987 90.6584C167.501 87.6316 168.877 84.6735 170.115 81.7842C171.491 78.7573 172.798 75.7304 174.036 72.7035C174.036 72.7035 173.899 72.6347 173.623 72.4972C173.348 72.222 173.211 71.9468 173.211 71.6716C172.523 71.1213 171.697 70.3646 170.734 69.4015C169.771 68.3008 169.702 67.2001 170.528 66.0994C170.803 65.8243 170.941 65.6867 170.941 65.6867C171.078 65.6867 171.147 65.6867 171.147 65.6867C171.147 65.5491 171.078 65.4803 170.941 65.4803C170.941 65.4803 170.941 65.4115 170.941 65.2739L170.734 65.0676C170.597 65.0676 170.459 65.0676 170.321 65.0676C170.321 64.93 170.253 64.8612 170.115 64.8612C169.565 64.8612 168.946 64.9988 168.258 65.2739C167.57 65.4115 166.882 65.4803 166.194 65.4803C165.368 65.4803 164.268 65.8243 162.892 66.5122C161.516 67.0625 160.278 67.5441 159.177 67.9568C158.627 68.0944 158.283 68.1632 158.145 68.1632C158.145 68.0256 157.87 68.0944 157.32 68.3696C157.182 68.5072 157.182 68.3008 157.32 67.7505C157.595 67.0625 157.732 66.581 157.732 66.3058C157.732 66.1682 157.664 66.0994 157.526 66.0994C157.251 66.0994 156.7 66.5122 155.875 67.3377C155.049 68.0256 154.499 68.4384 154.224 68.576C154.086 68.7136 154.018 68.9199 154.018 69.1951C154.155 69.4703 154.224 69.7455 154.224 70.0206C154.224 70.4334 153.88 70.9149 153.192 71.4653C152.504 71.878 152.023 72.222 151.747 72.4972C151.197 72.9099 150.509 73.1851 149.684 73.3227C148.996 73.3227 148.308 73.5978 147.62 74.1482C146.794 74.6985 146.382 75.1113 146.382 75.3865C146.519 75.6616 146.106 76.1432 145.143 76.8311C143.905 77.7942 142.185 79.2389 139.984 81.165C137.92 83.0912 136.338 84.8111 135.237 86.3245C132.623 89.489 130.215 93.135 128.014 97.2625C125.95 101.39 124.918 104.623 124.918 106.962C124.918 108.751 125.675 109.645 127.188 109.645C127.464 109.645 127.739 109.645 128.014 109.645C128.289 109.508 128.633 109.37 129.046 109.232L134.412 106.137L135.65 105.93V105.724L136.475 106.343C136.613 106.206 136.544 105.999 136.269 105.724C136.131 105.311 136.131 105.105 136.269 105.105C136.407 105.105 136.475 105.174 136.475 105.311C136.613 105.311 136.751 105.311 136.888 105.311L137.301 104.692C137.301 104.692 137.507 104.761 137.92 104.899C138.47 104.899 138.883 104.761 139.158 104.486C139.571 104.348 139.64 104.142 139.365 103.867C139.227 103.591 139.021 103.385 138.746 103.248L140.19 102.009C140.328 101.734 140.878 101.459 141.841 101.184C144.18 99.6703 146.106 97.8817 147.62 95.8179C149.271 93.6165 151.128 91.6215 153.192 89.8329H153.398L155.875 87.3564L155.669 86.7373L158.351 83.6416H158.764C158.902 83.3664 159.177 83.0224 159.59 82.6097C160.14 82.1969 160.484 81.853 160.622 81.5778C160.897 81.4402 161.516 80.7523 162.479 79.514C163.58 78.1382 164.612 77.0375 165.575 76.212C166.675 75.3865 167.295 74.9737 167.432 74.9737C167.57 74.9737 167.639 75.0425 167.639 75.1801C167.639 75.5928 167.432 76.212 167.019 77.0375C166.744 77.863 166.469 78.4133 166.194 78.6885C165.231 80.2019 163.992 81.9218 162.479 83.848C160.966 85.6366 160.071 86.7373 159.796 87.15C158.145 88.9386 156.15 91.3464 153.811 94.3732C151.472 97.2625 148.927 100.152 146.175 103.041C143.423 105.93 140.672 108.407 137.92 110.471C135.306 112.397 132.829 113.36 130.49 113.36C128.289 113.36 125.95 112.672 123.474 111.296C120.997 109.92 119.759 107.306 119.759 103.454C119.759 102.216 119.896 100.84 120.172 99.3263C120.584 97.6753 121.203 95.9555 122.029 94.1669C122.029 94.1669 122.167 94.0293 122.442 93.7541C122.717 93.3413 122.923 93.2038 123.061 93.3414C123.336 92.9286 123.405 92.5158 123.267 92.1031C123.267 91.5527 123.267 91.2088 123.267 91.0712L123.68 90.6584C123.955 89.145 124.987 87.7691 126.776 86.5309C128.564 85.2926 129.527 84.3295 129.665 83.6416C129.803 83.504 129.871 83.2976 129.871 83.0224L130.697 80.3395V79.514H131.522L132.141 78.6885L132.348 78.2757C132.073 78.1382 132.141 77.9318 132.554 77.6566C133.105 77.2439 133.38 77.0375 133.38 77.0375C133.517 76.7623 133.655 76.5559 133.792 76.4183C134.068 76.2808 134.274 76.1432 134.412 76.0056H135.856C136.131 75.5928 135.994 75.3865 135.444 75.3865C134.893 75.3865 134.618 75.3865 134.618 75.3865C134.618 75.2489 134.618 75.1801 134.618 75.1801C134.756 75.0425 134.824 74.9049 134.824 74.7673L137.095 72.9099C137.782 72.3596 138.47 71.878 139.158 71.4653C139.846 71.0525 140.465 70.571 141.016 70.0206C141.428 70.0206 141.497 70.227 141.222 70.6398C141.36 70.9149 141.497 70.9149 141.635 70.6398C141.91 70.3646 142.048 70.227 142.048 70.227L143.08 70.0206V69.8142C143.08 69.5391 143.148 69.1263 143.286 68.576C143.423 68.0256 143.492 67.6817 143.492 67.5441C146.382 65.3427 149.408 63.4165 152.573 61.7655C155.737 59.9769 158.833 59.0826 161.86 59.0826C165.437 59.0826 168.67 60.4584 171.56 63.2101L172.592 63.8293C172.729 63.8293 172.798 63.7605 172.798 63.6229C173.073 61.6967 174.655 60.2521 177.545 59.289C180.572 58.3259 183.254 57.8443 185.593 57.8443C188.07 57.8443 189.308 58.1883 189.308 58.8762C189.308 59.1514 188.895 59.6329 188.07 60.3209C187.657 60.596 186.969 61.2152 186.006 62.1782C185.043 63.1413 184.08 64.3108 183.117 65.6867C182.979 66.0994 182.773 66.5122 182.498 66.9249C182.223 67.3377 181.947 67.7505 181.672 68.1632C181.535 68.4384 181.328 68.7824 181.053 69.1951C180.916 69.4703 180.709 69.7455 180.434 70.0206C178.095 74.0106 176.238 77.3814 174.862 80.1331C173.486 82.8849 171.835 86.3933 169.909 90.6584C169.633 91.484 169.496 91.9655 169.496 92.1031C169.496 93.2038 170.115 93.7541 171.353 93.7541C172.179 93.7541 173.004 93.5477 173.83 93.135L175.894 92.3095C179.196 89.2826 182.635 86.7373 186.213 84.6735C186.35 84.6735 186.419 84.6735 186.419 84.6735C186.557 84.5359 186.694 84.4671 186.832 84.4671C187.244 84.4671 187.52 84.7423 187.657 85.2926C187.795 85.7054 187.657 86.0493 187.244 86.3245C183.254 88.5259 179.54 91.3464 176.1 94.786C175.962 95.0612 175.825 95.3363 175.687 95.6115C175.55 95.8867 175.343 96.1619 175.068 96.437C174.655 96.7122 174.243 97.1937 173.83 97.8817C173.417 98.5696 173.211 98.9824 173.211 99.1199C173.073 99.5327 172.867 99.6703 172.592 99.5327C172.454 99.3951 172.041 99.6015 171.353 100.152C171.216 100.289 171.078 100.565 170.941 100.977C170.941 101.39 170.872 101.734 170.734 102.009C170.459 102.422 170.184 102.766 169.909 103.041C169.633 103.179 169.496 103.316 169.496 103.454C169.358 104.004 169.083 104.348 168.67 104.486C168.395 104.486 168.12 104.623 167.845 104.899C167.707 104.899 167.639 104.967 167.639 105.105C167.639 106.343 167.501 106.894 167.226 106.756C166.951 106.618 166.675 106.756 166.4 107.169C166.125 107.719 165.781 107.994 165.368 107.994C164.543 108.269 164.199 108.476 164.336 108.613C164.612 108.751 164.818 108.889 164.956 109.026C165.231 109.026 165.024 109.232 164.336 109.645C164.061 109.783 163.786 110.196 163.511 110.883C163.236 111.434 162.961 111.847 162.685 112.122C162.273 112.397 161.86 112.603 161.447 112.741C161.034 112.878 160.69 113.154 160.415 113.566C159.177 114.805 158.145 115.424 157.32 115.424Z" fill="#BCB1A4"/>
<path d="M185.687 115.424C184.861 115.424 184.449 114.942 184.449 113.979C184.449 113.291 184.655 112.466 185.068 111.503C186.168 109.164 187.407 105.862 188.783 101.596C190.296 97.3313 192.153 93.6853 194.355 90.6584C195.043 89.145 196.075 87.2876 197.45 85.0862C198.964 82.7473 200.409 79.9956 201.784 76.8311V75.7992C201.784 75.3865 201.784 75.0425 201.784 74.7673C201.922 74.3546 202.06 73.9418 202.197 73.5291C202.748 72.4284 203.229 71.6716 203.642 71.2589C204.192 70.8461 204.742 70.0894 205.293 68.9887C205.293 68.7136 205.293 68.4384 205.293 68.1632C205.43 67.888 205.568 67.6129 205.706 67.3377C205.43 67.6129 205.362 67.4065 205.499 66.7186C205.224 66.7186 205.499 66.0306 206.325 64.6548C206.875 63.4165 207.288 62.7286 207.563 62.591H207.769C208.32 61.7655 208.801 61.0776 209.214 60.5272C209.627 59.8393 209.764 59.4265 209.627 59.289V58.8762C209.627 57.9131 209.902 57.0188 210.452 56.1933C211.14 55.3678 211.759 54.4735 212.31 53.5104C212.722 52.96 213.066 52.6849 213.342 52.6849C213.617 52.6849 213.754 52.7537 213.754 52.8912C213.892 52.8912 214.03 52.8912 214.167 52.8912C214.58 52.8912 214.786 52.5473 214.786 51.8593C214.786 51.5842 214.717 51.2402 214.58 50.8275C214.58 50.4147 214.511 49.9332 214.373 49.3828C214.511 48.6949 215.061 48.1445 216.024 47.7318L216.644 47.5254C217.332 44.6361 218.157 42.7099 219.12 41.7468C219.395 41.4717 219.671 41.1965 219.946 40.9213C220.221 40.6461 220.496 40.371 220.771 40.0958C222.422 38.3072 223.66 36.381 224.486 34.3172C224.761 33.7669 225.105 33.3541 225.518 33.0789C226.068 32.6662 226.55 32.1846 226.963 31.6343C227.238 31.2215 227.307 30.8088 227.169 30.396C227.169 29.8457 227.238 29.3641 227.375 28.9514C228.063 27.8507 228.545 27.2316 228.82 27.094C229.095 26.9564 229.37 26.8188 229.645 26.6812C230.058 26.406 230.746 25.7869 231.709 24.8238C232.122 24.1359 232.535 23.448 232.948 22.76C233.498 22.0721 234.048 21.3842 234.599 20.6962C235.424 19.7331 236.318 19.0452 237.281 18.6325C238.245 18.2197 239.208 17.6006 240.171 16.7751C240.446 16.4999 240.583 16.0871 240.583 15.5368C240.583 14.8489 240.721 14.3673 240.996 14.0921C245.812 10.2398 250.971 7.0065 256.475 4.39237C262.116 1.77825 266.45 0.471191 269.476 0.471191C270.577 0.471191 271.609 0.539983 272.572 0.677567C273.673 0.815151 274.705 1.02153 275.668 1.29671H276.081C276.768 1.29671 277.456 1.43429 278.144 1.70946C278.832 1.98463 279.451 2.2598 280.002 2.53497C280.552 2.53497 281.24 2.67255 282.065 2.94772C282.753 3.2229 283.166 3.63566 283.304 4.186C283.441 4.73634 283.304 5.1491 282.891 5.42426C282.753 5.56185 282.547 5.56185 282.272 5.42426C281.997 5.28668 281.722 5.21789 281.446 5.21789C281.171 5.21789 280.896 5.0803 280.621 4.80513C280.346 4.52996 280.071 4.32358 279.795 4.186C279.245 4.186 278.626 4.25479 277.938 4.39237C277.388 4.52996 276.768 4.59875 276.081 4.59875H275.461C274.498 4.59875 273.81 4.46117 273.398 4.186C273.122 3.77324 272.435 3.70445 271.334 3.97962C271.196 3.97962 270.784 4.04842 270.096 4.186C269.408 4.32358 268.926 4.39237 268.651 4.39237C263.698 5.63064 259.364 7.69443 255.649 10.5837C251.934 13.3354 248.632 16.4311 245.743 19.8707C242.991 23.3104 240.308 26.6124 237.694 29.7769C236.456 32.2534 235.218 34.2484 233.979 35.7619C233.842 35.8994 233.704 35.8306 233.567 35.5555C233.429 35.2803 233.291 35.2803 233.154 35.5555C232.741 35.9682 232.397 36.6562 232.122 37.6193C231.984 38.4448 231.709 39.1327 231.296 39.683C231.159 39.8206 231.021 39.7518 230.884 39.4767C230.746 39.2015 230.54 39.2015 230.265 39.4767C230.127 39.6142 229.921 40.1646 229.645 41.1277C229.508 41.9532 229.301 42.5035 229.026 42.7787C227.375 44.9801 225.587 47.1127 223.66 49.1764C221.734 51.2402 219.808 53.648 217.882 56.3997C215.13 60.6648 212.516 64.8612 210.04 68.9887C207.563 73.1163 204.949 77.6566 202.197 82.6097C201.234 84.2607 200.477 85.7742 199.927 87.15C199.514 88.3883 199.033 89.5578 198.482 90.6584C198.207 91.0712 198.07 91.6215 198.07 92.3095C198.07 93.2726 198.62 93.7541 199.721 93.7541C200.546 93.7541 201.372 93.5477 202.197 93.135L204.261 92.3095C207.563 89.2826 211.003 86.7373 214.58 84.6735C214.717 84.6735 214.786 84.6735 214.786 84.6735C214.924 84.5359 215.061 84.4671 215.199 84.4671C215.612 84.4671 215.887 84.7423 216.024 85.2926C216.162 85.7054 216.024 86.0493 215.612 86.3245C211.622 88.5259 207.907 91.3464 204.467 94.786C204.33 95.0612 204.192 95.3363 204.055 95.6115C203.917 95.8867 203.711 96.1619 203.435 96.437C203.16 96.7122 202.748 97.1937 202.197 97.8817C201.784 98.5696 201.578 98.9824 201.578 99.1199C201.44 99.5327 201.234 99.6703 200.959 99.5327C200.821 99.3951 200.409 99.6015 199.721 100.152C199.583 100.289 199.445 100.565 199.308 100.977C199.308 101.39 199.239 101.734 199.101 102.009C198.964 102.422 198.689 102.766 198.276 103.041C198.001 103.179 197.863 103.316 197.863 103.454C197.726 104.004 197.45 104.348 197.038 104.486C196.763 104.486 196.487 104.623 196.212 104.899C196.075 105.036 196.075 105.242 196.212 105.518C196.35 105.793 196.281 106.068 196.006 106.343C195.868 106.756 195.731 106.962 195.593 106.962C195.455 106.825 195.249 106.894 194.974 107.169C194.424 107.719 194.011 107.994 193.736 107.994C192.91 108.269 192.566 108.476 192.704 108.613C192.979 108.751 193.185 108.889 193.323 109.026C193.598 109.026 193.392 109.232 192.704 109.645C192.429 109.783 192.153 110.196 191.878 110.883C191.603 111.434 191.328 111.847 191.053 112.122C190.64 112.397 190.227 112.603 189.814 112.741C189.539 112.878 189.195 113.154 188.783 113.566C187.544 114.805 186.512 115.424 185.687 115.424Z" fill="#BCB1A4"/>
<path d="M252.729 50.4147C252.316 50.4147 251.904 50.2771 251.491 50.0019C251.216 49.7268 250.803 49.3828 250.253 48.9701C249.977 48.8325 249.634 48.6949 249.221 48.5573C248.946 48.2821 248.808 47.8694 248.808 47.319C248.67 47.1814 248.395 47.1127 247.982 47.1127C247.295 47.1127 246.951 46.6311 246.951 45.668C246.951 44.5673 247.501 43.8106 248.602 43.3978L249.634 42.5723V42.7787L250.459 41.7468H250.872C251.697 41.7468 252.248 41.3341 252.523 40.5085C252.936 39.683 253.761 39.1327 254.999 38.8575C255.825 38.5824 256.513 38.6511 257.063 39.0639C257.613 39.4767 258.301 39.683 259.127 39.683C259.952 39.683 260.847 39.4079 261.81 38.8575L264.905 38.2384C265.318 38.2384 265.525 38.376 265.525 38.6511C265.525 38.9263 265.112 39.2703 264.286 39.683C263.598 40.0958 263.117 40.4398 262.842 40.7149L262.635 40.9213L262.429 41.3341L261.603 42.366C260.778 43.329 259.815 44.4985 258.714 45.8744C257.751 47.1126 256.719 48.1445 255.618 48.9701C254.38 49.9332 253.417 50.4147 252.729 50.4147ZM221.36 115.424C220.534 115.424 220.121 114.942 220.121 113.979C220.121 113.291 220.328 112.466 220.741 111.503C221.841 109.164 223.08 105.862 224.455 101.596C225.969 97.3313 227.826 93.6853 230.028 90.6584C231.541 87.6316 232.917 84.6735 234.155 81.7842C235.531 78.7573 236.838 75.7304 238.076 72.7035C238.076 72.7035 237.939 72.6347 237.664 72.4972C237.526 72.222 237.457 71.9468 237.457 71.6716C236.632 71.1213 235.737 70.3646 234.774 69.4015C233.949 68.3008 233.88 67.2001 234.568 66.0994C234.843 65.8243 235.049 65.6867 235.187 65.6867C235.325 65.6867 235.393 65.6867 235.393 65.6867C235.393 65.5491 235.325 65.4803 235.187 65.4803C235.187 65.3427 235.187 65.2739 235.187 65.2739C235.187 64.7236 235.462 64.3796 236.013 64.242C236.563 64.1044 236.838 63.8981 236.838 63.6229C237.113 61.6967 238.764 60.2521 241.791 59.289C244.818 58.3259 247.501 57.8443 249.84 57.8443C252.179 57.8443 253.348 58.1883 253.348 58.8762C253.348 59.1514 252.936 59.6329 252.11 60.3209C251.697 60.596 251.009 61.2152 250.046 62.1782C249.083 63.1413 248.189 64.3108 247.363 65.6867L245.712 68.1632C245.575 68.4384 245.368 68.7824 245.093 69.1951C244.956 69.4703 244.749 69.7455 244.474 70.0206C242.273 74.0106 240.484 77.3814 239.108 80.1331C237.732 82.8849 236.081 86.3933 234.155 90.6584C233.88 91.484 233.742 92.0343 233.742 92.3095C233.742 93.2726 234.293 93.7541 235.393 93.7541C236.219 93.7541 237.044 93.5477 237.87 93.135L239.934 92.3095C243.236 89.2826 246.675 86.7373 250.253 84.6735C250.39 84.6735 250.459 84.6735 250.459 84.6735C250.597 84.5359 250.734 84.4671 250.872 84.4671C251.285 84.4671 251.56 84.7423 251.697 85.2926C251.835 85.7054 251.697 86.0493 251.285 86.3245C247.295 88.5259 243.58 91.3464 240.14 94.786C240.003 95.0612 239.865 95.3363 239.727 95.6115C239.59 95.8867 239.383 96.1619 239.108 96.437C238.833 96.7122 238.42 97.1937 237.87 97.8817C237.457 98.5696 237.251 98.9824 237.251 99.1199C237.113 99.5327 236.907 99.6703 236.632 99.5327C236.494 99.3951 236.081 99.6015 235.393 100.152C235.256 100.289 235.118 100.565 234.981 100.977C234.981 101.39 234.912 101.734 234.774 102.009C234.637 102.422 234.362 102.766 233.949 103.041C233.674 103.179 233.536 103.316 233.536 103.454C233.398 104.004 233.123 104.348 232.71 104.486C232.435 104.486 232.16 104.623 231.885 104.899C231.747 105.036 231.747 105.242 231.885 105.518C232.023 105.793 231.954 106.068 231.679 106.343C231.541 106.756 231.403 106.962 231.266 106.962C231.128 106.825 230.922 106.894 230.647 107.169C230.096 107.719 229.684 107.994 229.408 107.994C228.583 108.269 228.239 108.476 228.377 108.613C228.652 108.751 228.858 108.889 228.996 109.026C229.271 109.026 229.064 109.232 228.377 109.645C228.101 109.783 227.826 110.196 227.551 110.883C227.276 111.434 227.001 111.847 226.726 112.122C226.313 112.397 225.9 112.603 225.487 112.741C225.212 112.878 224.868 113.154 224.455 113.566C223.217 114.805 222.185 115.424 221.36 115.424Z" fill="#BCB1A4"/>
<path d="M255.41 115.424C254.585 115.424 254.172 114.942 254.172 113.979C254.172 113.291 254.379 112.466 254.791 111.503C255.892 109.164 257.199 105.862 258.713 101.596C260.226 97.3313 262.083 93.6853 264.285 90.6584L272.333 72.7035C272.333 72.7035 272.196 72.6347 271.921 72.4972C271.646 72.222 271.508 71.9468 271.508 71.6716C270.682 71.1213 269.788 70.3646 268.825 69.4015C268 68.3008 267.931 67.2001 268.619 66.0994C268.894 65.8243 269.1 65.6867 269.238 65.6867C269.375 65.6867 269.444 65.6867 269.444 65.6867V65.2739C269.444 64.7236 269.651 64.3796 270.063 64.242C270.614 64.1044 270.958 63.8981 271.095 63.6229C271.37 61.6967 272.953 60.2521 275.842 59.289C278.869 58.3259 281.552 57.8443 283.891 57.8443C286.23 57.8443 287.399 58.1883 287.399 58.8762C287.399 59.289 286.986 59.7705 286.161 60.3209C285.886 60.596 285.198 61.2152 284.097 62.1782C283.134 63.1413 282.24 64.3108 281.414 65.6867L279.969 68.1632L278.525 70.0206C276.323 74.0106 274.535 77.3814 273.159 80.1331C271.783 82.8849 270.132 86.3933 268.206 90.6584C267.793 91.484 267.587 92.1719 267.587 92.7222C267.587 93.4101 267.862 93.7541 268.412 93.7541C268.687 93.7541 268.963 93.6853 269.238 93.5477C269.651 93.2726 270.063 93.0662 270.476 92.9286C271.577 92.2407 272.471 91.6215 273.159 91.0712C273.985 90.3833 274.879 89.6953 275.842 89.0074C276.255 88.5947 276.599 88.5947 276.874 89.0074C277.149 89.2826 277.149 89.6953 276.874 90.2457C276.323 91.3464 275.911 92.0343 275.636 92.3095C275.498 92.447 275.292 92.5846 275.016 92.7222C274.741 92.8598 274.122 93.4789 273.159 94.5796L272.333 96.2306C272.058 96.5058 271.714 97.0562 271.302 97.8817C271.026 98.5696 270.889 98.9824 270.889 99.1199C270.889 99.3951 270.751 99.5327 270.476 99.5327C270.201 99.3951 269.788 99.6015 269.238 100.152C269.1 100.289 269.031 100.565 269.031 100.977C269.169 101.39 269.1 101.734 268.825 102.009C268.687 102.422 268.481 102.766 268.206 103.041C267.931 103.179 267.793 103.316 267.793 103.454C267.656 104.004 267.38 104.348 266.968 104.486C266.692 104.486 266.417 104.623 266.142 104.899C266.005 104.899 265.936 105.036 265.936 105.311C265.936 106.412 265.798 106.894 265.523 106.756C265.248 106.618 264.973 106.756 264.697 107.169C264.422 107.719 264.078 107.994 263.666 107.994C262.84 108.269 262.496 108.476 262.634 108.613C262.771 108.751 262.978 108.889 263.253 109.026C263.528 109.026 263.322 109.232 262.634 109.645C262.221 109.783 261.877 110.196 261.602 110.883C261.327 111.434 261.051 111.847 260.776 112.122C260.501 112.397 260.157 112.603 259.744 112.741C259.332 112.878 258.988 113.154 258.713 113.566C257.474 114.805 256.374 115.424 255.41 115.424ZM316.911 113.773C316.361 113.773 315.879 113.773 315.467 113.773C315.054 113.635 314.641 113.498 314.228 113.36C312.852 113.085 311.614 112.672 310.513 112.122C309.55 111.571 308.725 110.54 308.037 109.026C307.899 108.338 307.555 107.444 307.005 106.343C306.592 105.242 306.317 104.211 306.18 103.248C306.042 102.56 305.973 101.734 305.973 100.771C305.836 100.083 305.767 99.1887 305.767 98.0881C305.492 96.7122 305.354 95.4739 305.354 94.3732C305.492 93.2726 305.56 91.9655 305.56 90.4521C305.56 88.9386 305.629 87.8379 305.767 87.15C306.042 85.9117 306.18 85.2926 306.18 85.2926C306.18 85.155 306.18 84.4671 306.18 83.2288C306.317 81.5778 306.386 79.858 306.386 78.0694C306.386 76.2808 306.455 74.8361 306.592 73.7354C307.005 69.6079 306.18 67.5441 304.116 67.5441C303.29 67.5441 302.19 67.888 300.814 68.576C300.676 68.9887 300.401 69.2639 299.988 69.4015C299.713 69.4015 299.3 69.5391 298.75 69.8142L297.718 70.4334C297.718 70.571 297.58 70.6398 297.305 70.6398C297.03 70.5022 296.892 70.571 296.892 70.8461C297.03 71.3965 296.961 71.7404 296.686 71.878C296.549 72.0156 296.342 71.9468 296.067 71.6716L293.797 73.3227C293.797 73.4603 293.59 73.7354 293.178 74.1482L292.971 74.3546C292.421 74.9049 291.939 75.1801 291.527 75.1801L290.908 75.7992C290.908 75.9368 290.77 76.212 290.495 76.6247C290.357 76.8999 290.013 76.9687 289.463 76.8311L288.431 77.863C287.881 78.6885 287.399 79.1701 286.986 79.3076C286.711 79.4452 286.367 79.5828 285.954 79.7204L284.303 81.7842L283.478 81.9906C283.478 82.5409 282.859 83.3664 281.621 84.4671C280.52 85.5678 279.763 86.3245 279.35 86.7373C278.938 87.15 278.525 87.3564 278.112 87.3564C277.837 87.3564 277.699 87.2188 277.699 86.9436C277.699 86.806 278.043 86.2557 278.731 85.2926C279.282 84.7423 280.107 83.7104 281.208 82.1969C282.446 80.6835 283.134 79.9956 283.272 80.1331C283.959 79.4452 284.441 78.7573 284.716 78.0694C284.991 77.2439 285.473 76.5559 286.161 76.0056C286.161 76.1432 286.161 76.2808 286.161 76.4183C286.298 76.4183 286.367 76.4183 286.367 76.4183C286.642 76.4183 286.986 76.0744 287.399 75.3865C287.812 74.5609 288.087 74.217 288.225 74.3546L291.733 71.2589C291.733 71.1213 292.077 70.8461 292.765 70.4334C293.315 70.1582 293.659 70.0206 293.797 70.0206C293.934 70.0206 294.278 69.6079 294.829 68.7824L296.273 67.7505C296.411 67.4753 296.549 67.5441 296.686 67.9568C296.961 68.232 297.168 68.3008 297.305 68.1632L297.924 66.7186C298.2 66.3058 298.612 65.9619 299.163 65.6867C299.851 65.2739 300.538 64.8612 301.226 64.4484C302.877 62.7974 304.116 61.9719 304.941 61.9719H305.767C307.555 61.2839 309.206 60.94 310.72 60.94C312.921 60.94 314.641 61.7655 315.879 63.4165C316.154 63.8293 316.43 64.586 316.705 65.6867C316.98 65.8243 317.049 66.0306 316.911 66.3058C316.911 66.4434 316.98 66.6498 317.118 66.9249C317.255 67.2001 317.53 67.5441 317.943 67.9568C318.356 68.232 318.562 68.576 318.562 68.9887V69.4015C318.562 69.9518 318.218 70.4334 317.53 70.8461C318.218 71.3965 318.493 71.7404 318.356 71.878C318.356 71.878 318.287 72.0844 318.149 72.4972L317.737 75.3865C317.599 76.3495 317.393 77.1063 317.118 77.6566C316.842 78.0694 316.567 78.8261 316.292 79.9268C316.842 80.7523 316.842 81.3026 316.292 81.5778H315.879L315.673 82.4033C315.673 82.6785 315.81 82.9537 316.086 83.2288L315.467 84.4671C315.604 84.3295 315.673 84.3295 315.673 84.4671C315.81 84.4671 315.879 84.4671 315.879 84.4671C315.742 84.7423 315.535 85.2926 315.26 86.1181C314.985 86.806 314.779 87.3564 314.641 87.7691C314.503 88.4571 314.228 88.801 313.815 88.801C313.403 88.801 313.265 89.145 313.403 89.8329C313.54 89.9705 313.609 90.4521 313.609 91.2776C313.747 91.9655 313.678 92.3095 313.403 92.3095L312.99 94.786V95.4051C312.99 96.0931 312.852 96.781 312.577 97.4689C312.44 98.1568 312.302 98.8448 312.164 99.5327C312.027 100.221 311.889 100.977 311.752 101.803C311.752 102.491 311.752 103.179 311.752 103.867C311.752 104.417 311.752 105.036 311.752 105.724C311.889 106.274 312.027 106.825 312.164 107.375C312.164 107.513 312.371 107.925 312.784 108.613C313.196 109.301 313.403 109.714 313.403 109.852L314.022 110.471C314.297 110.608 314.71 110.608 315.26 110.471C315.948 110.333 316.43 110.402 316.705 110.677C317.943 110.815 319.525 110.196 321.451 108.82C323.515 107.306 325.373 105.655 327.024 103.867C327.436 103.454 327.849 103.248 328.262 103.248C328.537 103.248 328.744 103.454 328.881 103.867C329.019 104.279 328.881 104.83 328.468 105.518C326.267 108.682 324.203 110.883 322.277 112.122C320.351 113.222 318.562 113.773 316.911 113.773Z" fill="#BCB1A4"/>
<path d="M150.217 156.38C147.113 156.38 144.57 155.818 142.589 154.696C140.608 153.54 138.973 152.071 137.685 150.287L140.707 147.811C142.061 149.495 143.48 150.75 144.966 151.575C146.485 152.401 148.285 152.813 150.365 152.813C152.875 152.813 154.79 152.236 156.111 151.08C157.432 149.924 158.092 148.306 158.092 146.226C158.092 144.542 157.613 143.238 156.656 142.313C155.698 141.355 154.03 140.678 151.653 140.282L147.79 139.638C146.106 139.341 144.686 138.895 143.53 138.301C142.407 137.707 141.499 136.997 140.806 136.171C140.112 135.313 139.617 134.388 139.32 133.397C139.023 132.374 138.874 131.317 138.874 130.227C138.874 127.057 139.914 124.663 141.994 123.045C144.075 121.427 146.882 120.618 150.415 120.618C153.188 120.618 155.516 121.081 157.399 122.005C159.314 122.93 160.849 124.234 162.005 125.918L159.083 128.444C158.125 127.19 156.969 126.166 155.615 125.373C154.262 124.581 152.512 124.185 150.365 124.185C148.021 124.185 146.221 124.68 144.966 125.671C143.712 126.661 143.084 128.147 143.084 130.128C143.084 131.68 143.546 132.952 144.471 133.942C145.429 134.9 147.129 135.593 149.573 136.023L153.288 136.666C154.972 136.964 156.391 137.409 157.547 138.004C158.703 138.598 159.627 139.308 160.321 140.134C161.047 140.959 161.559 141.884 161.856 142.907C162.154 143.931 162.302 145.004 162.302 146.127C162.302 149.33 161.245 151.839 159.132 153.655C157.052 155.472 154.08 156.38 150.217 156.38Z" fill="#BCB1A4"/>
<path d="M181.253 155.785C179.305 155.785 177.868 155.24 176.944 154.151C176.052 153.061 175.607 151.658 175.607 149.941V133.596H167.087V130.227H173.427C174.286 130.227 174.88 130.062 175.21 129.732C175.574 129.369 175.755 128.758 175.755 127.899V121.213H179.569V130.227H191.209V133.596H179.569V152.417H191.209V155.785H181.253Z" fill="#BCB1A4"/>
<path d="M215.757 151.625H215.559C215.294 152.252 214.964 152.863 214.568 153.457C214.172 154.019 213.676 154.514 213.082 154.943C212.521 155.373 211.844 155.719 211.051 155.983C210.259 156.248 209.334 156.38 208.277 156.38C205.603 156.38 203.456 155.538 201.838 153.854C200.22 152.137 199.411 149.726 199.411 146.622V130.227H203.374V145.929C203.374 148.273 203.886 150.023 204.909 151.179C205.933 152.302 207.435 152.863 209.417 152.863C210.209 152.863 210.985 152.764 211.745 152.566C212.504 152.368 213.181 152.071 213.775 151.674C214.37 151.278 214.849 150.783 215.212 150.188C215.575 149.561 215.757 148.818 215.757 147.959V130.227H219.719V155.785H215.757V151.625Z" fill="#BCB1A4"/>
<path d="M245.604 151.625H245.406C243.755 154.795 241.13 156.38 237.531 156.38C234.394 156.38 231.934 155.207 230.151 152.863C228.401 150.519 227.526 147.233 227.526 143.006C227.526 138.78 228.401 135.494 230.151 133.15C231.934 130.805 234.394 129.633 237.531 129.633C241.13 129.633 243.755 131.218 245.406 134.388H245.604V119.133H249.567V155.785H245.604V151.625ZM239.066 152.863C239.958 152.863 240.8 152.747 241.592 152.516C242.385 152.285 243.078 151.955 243.673 151.526C244.267 151.063 244.729 150.519 245.059 149.891C245.423 149.231 245.604 148.471 245.604 147.613V138.4C245.604 137.541 245.423 136.799 245.059 136.171C244.729 135.511 244.267 134.966 243.673 134.537C243.078 134.074 242.385 133.728 241.592 133.496C240.8 133.265 239.958 133.15 239.066 133.15C236.755 133.15 234.955 133.86 233.667 135.28C232.413 136.666 231.785 138.516 231.785 140.827V145.186C231.785 147.497 232.413 149.363 233.667 150.783C234.955 152.17 236.755 152.863 239.066 152.863Z" fill="#BCB1A4"/>
<path d="M270.697 124.581C269.541 124.581 268.732 124.35 268.27 123.888C267.808 123.392 267.577 122.781 267.577 122.055V121.262C267.577 120.536 267.808 119.942 268.27 119.479C268.732 118.984 269.541 118.736 270.697 118.736C271.853 118.736 272.662 118.984 273.124 119.479C273.586 119.942 273.818 120.536 273.818 121.262V122.055C273.818 122.781 273.586 123.392 273.124 123.888C272.662 124.35 271.853 124.581 270.697 124.581ZM259.503 152.417H268.716V133.596H259.503V130.227H272.678V152.417H281.297V155.785H259.503V152.417Z" fill="#BCB1A4"/>
<path d="M298.811 156.38C297.028 156.38 295.41 156.066 293.957 155.439C292.537 154.811 291.316 153.92 290.292 152.764C289.301 151.575 288.542 150.172 288.013 148.554C287.485 146.903 287.221 145.054 287.221 143.006C287.221 140.992 287.485 139.159 288.013 137.508C288.542 135.857 289.301 134.454 290.292 133.298C291.316 132.11 292.537 131.202 293.957 130.574C295.41 129.947 297.028 129.633 298.811 129.633C300.594 129.633 302.196 129.947 303.616 130.574C305.069 131.202 306.29 132.11 307.281 133.298C308.305 134.454 309.081 135.857 309.609 137.508C310.137 139.159 310.401 140.992 310.401 143.006C310.401 145.054 310.137 146.903 309.609 148.554C309.081 150.172 308.305 151.575 307.281 152.764C306.29 153.92 305.069 154.811 303.616 155.439C302.196 156.066 300.594 156.38 298.811 156.38ZM298.811 152.962C301.024 152.962 302.807 152.302 304.16 150.981C305.514 149.66 306.191 147.613 306.191 144.839V141.174C306.191 138.4 305.514 136.353 304.16 135.032C302.807 133.711 301.024 133.051 298.811 133.051C296.599 133.051 294.816 133.711 293.462 135.032C292.108 136.353 291.431 138.4 291.431 141.174V144.839C291.431 147.613 292.108 149.66 293.462 150.981C294.816 152.302 296.599 152.962 298.811 152.962Z" fill="#BCB1A4"/>
</svg>
