<svg width="329" height="150" viewBox="0 0 329 150" fill="none" xmlns="http://www.w3.org/2000/svg">
<path d="M50.5964 129.202L48.739 128.583C48.6014 128.996 48.2575 129.133 47.7071 128.996C47.2944 128.996 46.9504 128.858 46.6753 128.583C45.9873 127.482 45.2306 127.001 44.4051 127.138C43.5796 127.413 42.4789 127.276 41.103 126.725H40.8967C40.4839 126.725 40.0024 126.794 39.452 126.932C39.0393 127.207 38.6265 127.276 38.2137 127.138L36.7691 125.9C36.7691 126.037 36.6315 126.106 36.3563 126.106C35.9436 126.106 35.5308 126.037 35.1181 125.9C34.7053 125.762 34.5677 125.625 34.7053 125.487L31.1969 123.63L30.7841 123.836L28.514 121.36C28.3764 121.497 28.2388 121.566 28.1012 121.566C27.826 121.566 27.5509 121.36 27.2757 120.947C27.0005 120.672 26.7942 120.534 26.6566 120.534C25.8311 119.846 24.868 119.158 23.7673 118.47C22.8042 117.92 21.8411 117.301 20.878 116.613C20.7404 116.475 20.6716 116.2 20.6716 115.787C20.6716 115.512 20.534 115.306 20.2589 115.168C19.8461 114.755 19.3645 114.343 18.8142 113.93C18.2639 113.517 17.9199 113.036 17.7823 112.485L16.9568 112.692C16.1313 111.178 15.1682 109.802 14.0675 108.564C12.9668 107.326 12.4853 105.675 12.6229 103.611H12.2101L9.52719 102.579V101.96C9.3896 101.96 9.18322 102.029 8.90805 102.166C8.63288 102.166 8.28892 102.098 7.87616 101.96C6.91306 101.547 6.01876 101.066 5.19325 100.515C4.36773 99.8274 3.7486 99.0019 3.33584 98.0388C3.19826 97.6261 2.99188 97.4197 2.71671 97.4197C2.57912 97.4197 2.44154 97.3509 2.30395 97.2133C2.02878 96.5254 1.61603 95.9063 1.06568 95.3559C0.515342 94.8056 0.308964 94.1176 0.446549 93.2921L1.06568 88.1327C2.16637 86.8944 2.99188 86.2753 3.54222 86.2753C4.09256 86.2753 4.36773 86.8944 4.36773 88.1327L3.12946 90.1965L3.33584 92.673C3.61101 92.9482 4.02377 93.0858 4.57411 93.0858C5.12445 93.0858 5.53721 93.017 5.81238 92.8794L5.606 94.1176L6.43152 95.5623L6.63789 95.1495L7.87616 95.5623L8.90805 97.0069C9.18322 96.4566 9.45839 96.4566 9.73357 97.0069C10.0087 97.4197 10.1463 97.6261 10.1463 97.6261L11.1782 96.8006C11.0406 96.1126 10.903 95.4247 10.7655 94.7368C10.6279 93.9113 10.5591 93.1545 10.5591 92.4666C10.5591 91.5035 10.6279 90.8156 10.7655 90.4028C11.1782 88.8894 11.3158 87.7199 11.1782 86.8944C11.1782 86.8944 11.4534 86.4129 12.0037 85.4498C12.5541 84.3491 13.1044 83.6612 13.6547 83.386L15.3058 82.3541L15.7185 82.9732C15.5809 83.1108 15.3058 83.5236 14.893 84.2115C14.4803 84.8994 14.1363 85.381 13.8611 85.6561C12.7604 87.9951 12.3477 90.334 12.6229 92.673C12.6229 92.8106 12.6229 93.017 12.6229 93.2921C12.7604 93.4297 12.7604 93.7049 12.6229 94.1176V97.0069C12.898 97.1445 13.0356 97.6949 13.0356 98.658C13.0356 99.4835 13.1732 99.8274 13.4484 99.6899C14.1363 99.5523 14.6866 99.7586 15.0994 100.309C15.6497 100.722 16.0625 100.515 16.3377 99.6899L17.7823 101.341H19.8461C19.7085 101.616 20.0525 101.891 20.878 102.166C21.8411 102.304 22.8042 102.373 23.7673 102.373C24.7304 102.373 25.2119 102.373 25.2119 102.373L26.4502 103.405C26.4502 103.267 26.6566 103.405 27.0693 103.817H27.2757C27.6885 103.817 28.1012 103.68 28.514 103.405C29.0643 103.129 29.4771 102.992 29.7522 102.992C30.4402 103.129 31.1281 103.405 31.816 103.817C32.6415 104.23 33.2607 104.23 33.6734 103.817L35.3245 104.437L37.1819 103.405C37.457 103.68 38.0074 103.955 38.8329 104.23C39.1081 104.368 39.5208 104.437 40.0712 104.437C41.3094 104.437 42.2037 104.161 42.7541 103.611L43.5796 104.643C45.5058 104.505 47.432 104.505 49.3582 104.643C51.4219 104.643 53.3481 104.643 55.1368 104.643C56.6502 104.643 58.0948 104.643 59.4707 104.643C60.9841 104.505 62.4288 104.368 63.8046 104.23C64.2174 104.23 64.5614 104.23 64.8365 104.23C65.1117 104.093 65.3181 104.024 65.4557 104.024C66.4188 104.024 67.5194 103.749 68.7577 103.198C69.996 102.648 71.0279 102.373 71.8534 102.373C72.1286 102.373 72.7477 102.166 73.7108 101.754C74.8115 101.203 75.1554 101.547 74.7427 102.786L72.6789 103.817L72.0598 103.611C71.9222 103.749 71.303 104.093 70.2024 104.643C69.2393 105.056 68.6889 105.124 68.5513 104.849L64.2174 105.468C63.6671 105.606 62.8415 105.744 61.7409 105.881C60.6402 106.019 60.0898 106.019 60.0898 105.881L58.2324 106.294C58.2324 106.156 58.0948 106.088 57.8197 106.088C57.2693 106.088 56.4438 106.294 55.3431 106.707C54.38 107.119 53.8297 107.257 53.6921 107.119C53.5545 106.844 52.8666 106.844 51.6283 107.119C50.5276 107.257 49.427 107.326 48.3263 107.326C46.6753 107.326 45.7809 107.051 45.6434 106.5L43.9923 107.119C44.2675 106.844 44.1299 106.707 43.5796 106.707C43.1668 106.569 42.8229 106.569 42.5477 106.707L42.3413 107.739C42.0661 107.876 41.791 107.876 41.5158 107.739C41.2406 107.601 40.9655 107.463 40.6903 107.326C39.8648 106.913 38.5577 106.707 36.7691 106.707C34.9805 106.707 33.2607 106.638 31.6096 106.5C29.9586 106.363 28.9267 106.019 28.514 105.468L26.863 106.294C26.3126 106.294 25.4871 106.225 24.3864 106.088C23.4233 105.812 22.6666 105.606 22.1163 105.468C21.1532 105.193 20.0525 104.918 18.8142 104.643C17.7135 104.368 16.6128 104.299 15.5122 104.437L16.544 106.088V106.5C17.5071 107.051 18.2639 107.945 18.8142 109.183C19.5021 110.284 20.534 110.697 21.9099 110.422L22.529 113.104L24.18 114.136C24.3176 113.999 24.4552 113.93 24.5928 113.93C25.0055 113.93 25.6935 114.205 26.6566 114.755C27.6197 115.306 28.3764 115.719 28.9267 115.994L29.5459 115.581L30.5778 117.438C30.7153 117.301 30.8529 117.232 30.9905 117.232C31.4033 117.232 31.8848 117.37 32.4352 117.645C32.9855 117.92 33.3295 117.989 33.467 117.851L34.9117 118.264L36.3563 117.851C36.9067 118.677 37.2507 119.296 37.3882 119.709C37.5258 120.121 37.7322 120.396 38.0074 120.534C38.6953 120.809 38.6953 121.016 38.0074 121.153C37.457 121.291 37.1819 121.497 37.1819 121.772L37.3882 122.185H39.2456C39.2456 121.772 39.7272 121.428 40.6903 121.153C41.791 121.016 42.8917 120.947 43.9923 120.947C45.6434 120.947 46.6065 121.084 46.8816 121.36C47.432 121.635 47.5696 121.635 47.2944 121.36L49.1518 121.153L50.3901 122.185C50.6652 121.772 50.9404 121.566 51.2156 121.566C51.6283 121.566 51.9723 121.635 52.2475 121.772C52.6602 122.047 52.8666 122.185 52.8666 122.185C53.1418 122.323 53.4169 122.047 53.6921 121.36C54.1049 120.809 54.5864 120.603 55.1368 120.74L55.9623 120.947C56.9254 120.947 57.8885 120.809 58.8516 120.534C59.9522 120.259 60.5714 120.534 60.709 121.36L62.1536 120.328L63.1855 120.534L62.7727 122.185C62.7727 122.735 62.8415 123.011 62.9791 123.011C63.2543 123.011 63.5983 122.529 64.011 121.566C64.5614 120.74 64.8365 120.672 64.8365 121.36L66.2812 119.709C66.6939 119.984 67.2443 120.121 67.9322 120.121C69.0329 120.121 70.0648 119.709 71.0279 118.883C71.991 118.195 73.1604 117.714 74.5363 117.438L74.7427 117.851C75.0178 117.714 75.293 117.576 75.5682 117.438C75.9809 117.438 76.1873 117.576 76.1873 117.851L78.4575 117.645C79.0078 117.232 79.9021 116.75 81.1404 116.2C82.5163 115.65 83.4794 115.237 84.0297 114.962L84.2361 114.136C84.2361 114.136 84.58 114.136 85.268 114.136C86.0935 113.999 86.575 113.861 86.7126 113.724V113.517C86.7126 113.242 86.7126 112.829 86.7126 112.279C86.7126 111.591 86.9878 111.316 87.5381 111.453L88.57 112.073C89.8083 111.66 90.6338 111.109 91.0466 110.422C91.5969 109.596 92.4224 108.839 93.5231 108.151C93.9358 107.876 94.2798 107.532 94.555 107.119C94.9677 106.707 95.4493 106.432 95.9996 106.294C96.1372 106.294 96.3436 106.5 96.6188 106.913C97.0315 107.326 97.4443 107.257 97.857 106.707L98.0634 104.643L99.9208 104.024L100.953 102.579C100.953 102.579 100.953 102.648 100.953 102.786C101.09 102.786 101.228 102.786 101.365 102.786C101.916 102.786 102.535 102.235 103.223 101.135C103.911 100.034 104.048 99.2771 103.636 98.8643L105.699 96.5942C105.562 95.7687 105.837 94.7368 106.525 93.4985C107.35 92.2602 107.763 90.7468 107.763 88.9582C107.763 87.8575 107.419 86.5504 106.731 85.037C106.043 83.5236 104.668 81.8725 102.604 80.0839L101.572 79.4648C99.9208 78.3641 98.4074 77.5386 97.0315 76.9883C95.7932 76.3003 94.1422 75.6124 92.0784 74.9245C92.0784 74.9245 91.8721 74.7869 91.4593 74.5117L85.6807 72.8607C85.1304 72.4479 83.8921 72.104 81.9659 71.8288C80.0397 71.5536 78.7327 71.3473 78.0447 71.2097C77.7696 71.0721 77.4256 70.8657 77.0128 70.5905C76.7377 70.3154 76.4625 70.3842 76.1873 70.7969L74.3299 69.765C74.0548 69.9026 73.7108 69.9714 73.298 69.9714C73.0229 69.9714 72.7477 69.9026 72.4725 69.765C72.3349 69.6274 71.9222 69.5586 71.2342 69.5586C70.2711 69.4211 68.6889 69.0083 66.4876 68.3204C64.4238 67.6325 63.2543 67.4261 62.9791 67.7012L57.6133 65.0183L56.9942 65.2247L55.1368 64.1928C55.5495 64.7432 55.2743 64.8807 54.3112 64.6056C53.3481 64.1928 52.2475 63.7113 51.0092 63.1609C49.7709 62.473 48.8078 62.0602 48.1199 61.9227C45.7809 60.9596 43.6484 59.5837 41.7222 57.7951C39.9336 56.0065 39.0393 53.8051 39.0393 51.191C39.0393 48.852 39.1768 47.201 39.452 46.2379C39.7272 45.2748 40.0712 44.4493 40.4839 43.7614C41.0343 43.0735 41.5158 42.0416 41.9286 40.6657C42.2037 40.253 42.5477 39.8402 42.9604 39.4274C43.5108 38.8771 43.8548 38.3268 43.9923 37.7764L45.6434 36.7445C45.7809 36.0566 46.1249 35.3687 46.6753 34.6807C47.3632 33.9928 47.9823 33.5113 48.5327 33.2361C50.3213 32.4106 52.3163 31.0347 54.5176 29.1085C56.8566 27.0447 59.1267 25.5313 61.3281 24.5682C61.8784 24.293 62.36 24.0867 62.7727 23.9491C63.1855 23.6739 63.6671 23.4675 64.2174 23.3299L64.4238 23.7427C65.662 23.3299 67.7258 22.7108 70.6151 21.8853C73.5044 20.9222 76.6689 19.9591 80.1085 18.996C83.6857 18.0329 86.9878 17.2074 90.0147 16.5195C93.1791 15.8315 95.6557 15.4876 97.4443 15.4876C98.6825 15.4876 99.3705 15.694 99.5081 16.1067L101.985 14.6621C102.122 14.7996 102.397 14.9372 102.81 15.0748C103.223 15.0748 103.498 15.006 103.636 14.8684L105.699 15.4876C106.25 15.2124 106.663 15.0748 106.938 15.0748C107.763 15.0748 108.657 15.35 109.621 15.9003C110.721 16.3131 111.547 16.4507 112.097 16.3131C112.785 16.0379 113.267 15.9691 113.542 16.1067C113.955 16.1067 114.367 16.1067 114.78 16.1067H115.606C116.018 16.1067 116.431 16.1755 116.844 16.3131C117.394 16.3131 117.945 16.5883 118.495 17.1386L119.527 17.345C119.939 17.7577 120.146 18.2393 120.146 18.7896C120.421 19.34 121.247 19.6839 122.622 19.8215C123.998 19.9591 124.893 20.2343 125.305 20.647C126.406 21.4725 127.025 22.8484 127.163 24.7746C127.438 26.5632 127.575 28.2142 127.575 29.7277C127.438 31.2411 126.819 33.0985 125.718 35.2999C124.755 37.3637 123.517 39.0147 122.003 40.2529C121.315 40.8033 120.283 41.4224 118.908 42.1104C117.532 42.6607 116.5 43.1422 115.812 43.555C114.298 44.5181 112.647 44.9996 110.859 44.9996C108.245 44.9996 106.938 44.4493 106.938 43.3486C106.938 42.9359 107.419 42.5231 108.382 42.1104C109.07 41.8352 109.689 41.56 110.24 41.2848C110.928 40.8721 111.547 40.3905 112.097 39.8402C112.647 39.565 112.991 39.4274 113.129 39.4274C113.404 39.2899 113.611 39.1523 113.748 39.0147C114.023 38.8771 114.23 38.7395 114.367 38.6019C114.505 38.3268 114.78 38.0516 115.193 37.7764C116.018 37.0885 117.05 35.9878 118.288 34.4744C119.664 32.8233 120.627 31.5851 121.178 30.7596C121.315 30.0716 121.591 29.1773 122.003 28.0766C122.554 26.8384 122.829 25.7377 122.829 24.7746C122.829 23.9491 122.622 23.3299 122.21 22.9172C122.072 22.9172 122.003 22.8484 122.003 22.7108L121.797 22.2981C120.696 19.9591 118.495 18.652 115.193 18.3769C112.028 17.9641 109.345 17.7577 107.144 17.7577C107.144 17.7577 107.006 17.6889 106.731 17.5514C106.456 17.4138 106.319 17.4826 106.319 17.7577L101.778 18.1705L101.365 17.7577L97.0315 18.5832L96.6188 18.3769L92.0784 19.6151C92.216 19.34 92.1472 19.2712 91.8721 19.4088C91.5969 19.4088 91.4593 19.4088 91.4593 19.4088L86.919 20.647L86.7126 20.4407L84.6488 21.6789C84.6488 21.5413 84.58 21.4037 84.4425 21.2662C84.3049 21.1286 84.2361 21.0598 84.2361 21.0598C84.0985 21.1974 83.9609 21.4037 83.8233 21.6789C83.6857 21.8165 83.4794 21.9541 83.2042 22.0917L82.7914 21.8853L79.9021 22.9172C79.9021 23.0548 79.627 23.1236 79.0766 23.1236C75.3618 24.7746 71.303 26.7008 66.9003 28.9022C62.6352 30.9659 59.3331 33.924 56.9942 37.7764L56.5814 37.3637L54.724 39.0147C54.5864 39.1523 54.38 39.3586 54.1049 39.6338C53.9673 39.909 53.7609 40.3905 53.4857 41.0785C53.073 42.1792 52.4538 43.4862 51.6283 44.9996C50.9404 46.5131 50.5964 47.9577 50.5964 49.3336C50.5964 50.7094 50.8716 52.0165 51.422 53.2548C51.9723 54.3555 52.385 54.6306 52.6602 54.0803L54.5176 55.3186L55.1368 57.5887L55.5495 57.3823L58.2324 59.4461H58.6452L61.9472 62.129L64.4238 63.5737H66.0748L68.5513 64.3992C68.8265 64.5368 69.0329 64.7432 69.1705 65.0183C69.4456 65.1559 69.7896 65.0183 70.2024 64.6056L72.2661 66.0502C72.4037 65.9126 72.6101 65.8438 72.8853 65.8438C73.1604 65.8438 73.4356 65.9814 73.7108 66.2566C73.986 66.3942 74.1923 66.5318 74.3299 66.6694L74.7427 66.463L81.9659 69.3523C82.2411 69.2147 82.585 69.1459 82.9978 69.1459C83.6857 69.1459 84.2361 69.2835 84.6488 69.5586C85.1992 69.6962 85.7495 69.8338 86.2999 69.9714C86.575 70.109 86.919 70.3154 87.3317 70.5905C87.8821 70.8657 88.1573 71.0721 88.1573 71.2097C88.4324 71.3473 88.7076 71.4161 88.9828 71.4161C89.3955 71.4161 89.7395 71.4161 90.0147 71.4161L91.8721 72.0352L93.7295 73.0671L95.5869 73.2735C95.5869 73.2735 96.1372 73.5486 97.2379 74.099C98.4762 74.5117 99.7144 74.9245 100.953 75.3372C102.329 75.75 103.085 76.0252 103.223 76.1628L104.461 77.401L104.668 77.1946L106.112 78.0201C107.626 78.9832 109.139 80.8407 110.652 83.5924C112.304 86.2065 113.129 89.0958 113.129 92.2602C113.129 94.324 112.785 96.3878 112.097 98.4516C111.547 100.378 110.859 101.96 110.033 103.198C107.97 105.95 105.699 108.427 103.223 110.628C100.884 112.829 98.7513 114.687 96.8251 116.2C96.1372 116.613 95.6557 116.957 95.3805 117.232C95.1053 117.507 94.6926 117.645 94.1422 117.645C93.7295 117.782 93.3855 117.989 93.1103 118.264C91.1841 119.365 89.0516 120.328 86.7126 121.153C84.3737 122.116 82.3099 123.011 80.5213 123.836C79.6957 124.111 79.0078 124.249 78.4575 124.249C77.9071 124.386 77.3568 124.524 76.8065 124.662C76.6689 124.662 76.3937 124.73 75.9809 124.868C75.7058 125.143 75.5682 125.212 75.5682 125.074L74.1236 126.106C73.986 125.969 73.7796 125.9 73.5044 125.9C72.9541 125.9 72.3349 126.175 71.647 126.725C71.0967 127.276 70.5463 127.482 69.996 127.345H69.7896C69.3768 127.345 68.8265 127.413 68.1386 127.551C67.5882 127.826 67.1755 127.826 66.9003 127.551L64.2174 128.583L63.8046 127.551C63.6671 127.551 63.4607 127.688 63.1855 127.964C63.0479 128.376 62.8415 128.583 62.5664 128.583C62.5664 128.583 62.2912 128.445 61.7409 128.17C61.1905 127.895 60.7778 128.032 60.5026 128.583L58.2324 129.202C58.0948 128.652 57.6821 128.376 56.9942 128.376C56.4438 128.376 55.9623 128.583 55.5495 128.996L53.8985 128.17V128.376L52.2475 128.17L50.5964 129.202Z" fill="white"/>
<path d="M157.281 114.962C156.456 114.962 156.043 114.48 156.043 113.517C156.043 112.829 156.249 112.004 156.662 111.041C157.763 108.702 159.001 105.4 160.377 101.135C161.89 96.8694 163.748 93.2233 165.949 90.1965C167.462 87.1696 168.838 84.2115 170.076 81.3222C171.452 78.2953 172.759 75.2684 173.998 72.2416C173.998 72.2416 173.86 72.1728 173.585 72.0352C173.31 71.76 173.172 71.4848 173.172 71.2097C172.484 70.6593 171.659 69.9026 170.696 68.9395C169.733 67.8388 169.664 66.7381 170.489 65.6375C170.764 65.3623 170.902 65.2247 170.902 65.2247C171.04 65.2247 171.108 65.2247 171.108 65.2247C171.108 65.0871 171.04 65.0183 170.902 65.0183C170.902 65.0183 170.902 64.9495 170.902 64.812L170.696 64.6056C170.558 64.6056 170.42 64.6056 170.283 64.6056C170.283 64.468 170.214 64.3992 170.076 64.3992C169.526 64.3992 168.907 64.5368 168.219 64.812C167.531 64.9495 166.843 65.0183 166.155 65.0183C165.33 65.0183 164.229 65.3623 162.853 66.0502C161.477 66.6006 160.239 67.0821 159.138 67.4949C158.588 67.6325 158.244 67.7012 158.107 67.7012C158.107 67.5637 157.831 67.6325 157.281 67.9076C157.143 68.0452 157.143 67.8388 157.281 67.2885C157.556 66.6006 157.694 66.119 157.694 65.8438C157.694 65.7063 157.625 65.6375 157.487 65.6375C157.212 65.6375 156.662 66.0502 155.836 66.8757C155.011 67.5637 154.461 67.9764 154.185 68.114C154.048 68.2516 153.979 68.458 153.979 68.7331C154.117 69.0083 154.185 69.2835 154.185 69.5586C154.185 69.9714 153.841 70.453 153.153 71.0033C152.466 71.4161 151.984 71.76 151.709 72.0352C151.158 72.4479 150.471 72.7231 149.645 72.8607C148.957 72.8607 148.269 73.1359 147.581 73.6862C146.756 74.2366 146.343 74.6493 146.343 74.9245C146.481 75.1996 146.068 75.6812 145.105 76.3691C143.866 77.3322 142.147 78.7769 139.945 80.7031C137.881 82.6293 136.299 84.3491 135.199 85.8625C132.584 89.027 130.177 92.673 127.975 96.8006C125.912 100.928 124.88 104.161 124.88 106.5C124.88 108.289 125.636 109.183 127.15 109.183C127.425 109.183 127.7 109.183 127.975 109.183C128.251 109.046 128.594 108.908 129.007 108.77L134.373 105.675L135.611 105.468V105.262L136.437 105.881C136.574 105.744 136.506 105.537 136.23 105.262C136.093 104.849 136.093 104.643 136.23 104.643C136.368 104.643 136.437 104.712 136.437 104.849C136.574 104.849 136.712 104.849 136.85 104.849L137.262 104.23C137.262 104.23 137.469 104.299 137.881 104.437C138.432 104.437 138.845 104.299 139.12 104.024C139.533 103.886 139.601 103.68 139.326 103.405C139.189 103.129 138.982 102.923 138.707 102.786L140.152 101.547C140.289 101.272 140.84 100.997 141.803 100.722C144.142 99.2083 146.068 97.4197 147.581 95.3559C149.232 93.1545 151.09 91.1596 153.153 89.3709H153.36L155.836 86.8944L155.63 86.2753L158.313 83.1796H158.726C158.863 82.9044 159.138 82.5605 159.551 82.1477C160.102 81.735 160.445 81.391 160.583 81.1158C160.858 80.9782 161.477 80.2903 162.44 79.052C163.541 77.6762 164.573 76.5755 165.536 75.75C166.637 74.9245 167.256 74.5117 167.394 74.5117C167.531 74.5117 167.6 74.5805 167.6 74.7181C167.6 75.1309 167.394 75.75 166.981 76.5755C166.706 77.401 166.43 77.9514 166.155 78.2265C165.192 79.74 163.954 81.4598 162.44 83.386C160.927 85.1746 160.033 86.2753 159.758 86.688C158.107 88.4766 156.112 90.8844 153.773 93.9113C151.434 96.8006 148.888 99.6899 146.137 102.579C143.385 105.468 140.633 107.945 137.881 110.009C135.267 111.935 132.791 112.898 130.452 112.898C128.251 112.898 125.912 112.21 123.435 110.834C120.958 109.458 119.72 106.844 119.72 102.992C119.72 101.754 119.858 100.378 120.133 98.8643C120.546 97.2133 121.165 95.4935 121.99 93.7049C121.99 93.7049 122.128 93.5673 122.403 93.2921C122.678 92.8794 122.885 92.7418 123.022 92.8794C123.297 92.4666 123.366 92.0539 123.229 91.6411C123.229 91.0908 123.229 90.7468 123.229 90.6092L123.641 90.1965C123.917 88.683 124.948 87.3072 126.737 86.0689C128.526 84.8306 129.489 83.8675 129.626 83.1796C129.764 83.042 129.833 82.8356 129.833 82.5605L130.658 79.8776V79.052H131.484L132.103 78.2265L132.309 77.8138C132.034 77.6762 132.103 77.4698 132.516 77.1946C133.066 76.7819 133.341 76.5755 133.341 76.5755C133.479 76.3003 133.616 76.094 133.754 75.9564C134.029 75.8188 134.235 75.6812 134.373 75.5436H135.818C136.093 75.1309 135.955 74.9245 135.405 74.9245C134.855 74.9245 134.579 74.9245 134.579 74.9245C134.579 74.7869 134.579 74.7181 134.579 74.7181C134.717 74.5805 134.786 74.4429 134.786 74.3053L137.056 72.4479C137.744 71.8976 138.432 71.4161 139.12 71.0033C139.808 70.5905 140.427 70.109 140.977 69.5586C141.39 69.5586 141.459 69.765 141.184 70.1778C141.321 70.453 141.459 70.453 141.596 70.1778C141.871 69.9026 142.009 69.765 142.009 69.765L143.041 69.5586V69.3523C143.041 69.0771 143.11 68.6643 143.247 68.114C143.385 67.5637 143.454 67.2197 143.454 67.0821C146.343 64.8807 149.37 62.9545 152.534 61.3035C155.699 59.5149 158.794 58.6206 161.821 58.6206C165.399 58.6206 168.632 59.9965 171.521 62.7482L172.553 63.3673C172.691 63.3673 172.759 63.2985 172.759 63.1609C173.035 61.2347 174.617 59.7901 177.506 58.827C180.533 57.8639 183.216 57.3823 185.555 57.3823C188.031 57.3823 189.27 57.7263 189.27 58.4142C189.27 58.6894 188.857 59.1709 188.031 59.8589C187.619 60.134 186.931 60.7532 185.968 61.7163C185.004 62.6794 184.041 63.8489 183.078 65.2247C182.941 65.6375 182.734 66.0502 182.459 66.463C182.184 66.8757 181.909 67.2885 181.634 67.7012C181.496 67.9764 181.29 68.3204 181.015 68.7331C180.877 69.0083 180.671 69.2835 180.395 69.5586C178.056 73.5486 176.199 76.9195 174.823 79.6712C173.447 82.4229 171.796 85.9313 169.87 90.1965C169.595 91.022 169.457 91.5035 169.457 91.6411C169.457 92.7418 170.076 93.2921 171.315 93.2921C172.14 93.2921 172.966 93.0858 173.791 92.673L175.855 91.8475C179.157 88.8206 182.597 86.2753 186.174 84.2115C186.312 84.2115 186.38 84.2115 186.38 84.2115C186.518 84.0739 186.656 84.0051 186.793 84.0051C187.206 84.0051 187.481 84.2803 187.619 84.8306C187.756 85.2434 187.619 85.5873 187.206 85.8625C183.216 88.0639 179.501 90.8844 176.061 94.324C175.924 94.5992 175.786 94.8744 175.649 95.1495C175.511 95.4247 175.305 95.6999 175.03 95.9751C174.617 96.2502 174.204 96.7318 173.791 97.4197C173.379 98.1076 173.172 98.5204 173.172 98.658C173.035 99.0707 172.828 99.2083 172.553 99.0707C172.415 98.9331 172.003 99.1395 171.315 99.6899C171.177 99.8274 171.04 100.103 170.902 100.515C170.902 100.928 170.833 101.272 170.696 101.547C170.42 101.96 170.145 102.304 169.87 102.579C169.595 102.717 169.457 102.854 169.457 102.992C169.32 103.542 169.045 103.886 168.632 104.024C168.357 104.024 168.081 104.161 167.806 104.437C167.669 104.437 167.6 104.505 167.6 104.643C167.6 105.881 167.462 106.432 167.187 106.294C166.912 106.156 166.637 106.294 166.362 106.707C166.086 107.257 165.743 107.532 165.33 107.532C164.504 107.807 164.16 108.014 164.298 108.151C164.573 108.289 164.779 108.427 164.917 108.564C165.192 108.564 164.986 108.77 164.298 109.183C164.023 109.321 163.748 109.734 163.472 110.422C163.197 110.972 162.922 111.385 162.647 111.66C162.234 111.935 161.821 112.141 161.409 112.279C160.996 112.417 160.652 112.692 160.377 113.104C159.138 114.343 158.107 114.962 157.281 114.962Z" fill="white"/>
<path d="M185.648 114.962C184.823 114.962 184.41 114.48 184.41 113.517C184.41 112.829 184.616 112.004 185.029 111.041C186.13 108.702 187.368 105.4 188.744 101.135C190.257 96.8694 192.115 93.2233 194.316 90.1965C195.004 88.683 196.036 86.8256 197.412 84.6243C198.925 82.2853 200.37 79.5336 201.746 76.3691V75.3372C201.746 74.9245 201.746 74.5805 201.746 74.3053C201.883 73.8926 202.021 73.4798 202.159 73.0671C202.709 71.9664 203.19 71.2097 203.603 70.7969C204.154 70.3842 204.704 69.6274 205.254 68.5268C205.254 68.2516 205.254 67.9764 205.254 67.7012C205.392 67.4261 205.529 67.1509 205.667 66.8757C205.392 67.1509 205.323 66.9445 205.461 66.2566C205.185 66.2566 205.461 65.5687 206.286 64.1928C206.836 62.9546 207.249 62.2666 207.524 62.129H207.731C208.281 61.3035 208.763 60.6156 209.175 60.0653C209.588 59.3773 209.726 58.9646 209.588 58.827V58.4142C209.588 57.4511 209.863 56.5568 210.414 55.7313C211.102 54.9058 211.721 54.0115 212.271 53.0484C212.684 52.4981 213.028 52.2229 213.303 52.2229C213.578 52.2229 213.716 52.2917 213.716 52.4293C213.853 52.4293 213.991 52.4293 214.129 52.4293C214.541 52.4293 214.748 52.0853 214.748 51.3974C214.748 51.1222 214.679 50.7782 214.541 50.3655C214.541 49.9527 214.472 49.4712 214.335 48.9208C214.472 48.2329 215.023 47.6826 215.986 47.2698L216.605 47.0634C217.293 44.1741 218.118 42.2479 219.082 41.2848C219.357 41.0097 219.632 40.7345 219.907 40.4593C220.182 40.1842 220.457 39.909 220.733 39.6338C222.384 37.8452 223.622 35.919 224.447 33.8552C224.723 33.3049 225.067 32.8921 225.479 32.617C226.03 32.2042 226.511 31.7227 226.924 31.1723C227.199 30.7596 227.268 30.3468 227.13 29.934C227.13 29.3837 227.199 28.9022 227.337 28.4894C228.025 27.3887 228.506 26.7696 228.781 26.632C229.057 26.4944 229.332 26.3568 229.607 26.2192C230.02 25.9441 230.708 25.3249 231.671 24.3618C232.083 23.6739 232.496 22.986 232.909 22.2981C233.459 21.6101 234.01 20.9222 234.56 20.2343C235.385 19.2712 236.28 18.5832 237.243 18.1705C238.206 17.7577 239.169 17.1386 240.132 16.3131C240.407 16.0379 240.545 15.6252 240.545 15.0748C240.545 14.3869 240.683 13.9053 240.958 13.6302C245.773 9.77778 250.933 6.54452 256.436 3.9304C262.077 1.31628 266.411 0.00921631 269.438 0.00921631C270.539 0.00921631 271.57 0.0780081 272.534 0.215592C273.634 0.353175 274.666 0.559555 275.629 0.834731H276.042C276.73 0.834731 277.418 0.972314 278.106 1.24748C278.794 1.52266 279.413 1.79783 279.963 2.073C280.513 2.073 281.201 2.21058 282.027 2.48575C282.715 2.76092 283.128 3.17368 283.265 3.72402C283.403 4.27437 283.265 4.68712 282.852 4.96229C282.715 5.09987 282.508 5.09987 282.233 4.96229C281.958 4.82471 281.683 4.75591 281.408 4.75591C281.133 4.75591 280.857 4.61833 280.582 4.34315C280.307 4.06798 280.032 3.86161 279.757 3.72402C279.206 3.72402 278.587 3.79282 277.899 3.9304C277.349 4.06798 276.73 4.13678 276.042 4.13678H275.423C274.46 4.13678 273.772 3.99919 273.359 3.72402C273.084 3.31126 272.396 3.24247 271.295 3.51765C271.158 3.51765 270.745 3.58644 270.057 3.72402C269.369 3.86161 268.888 3.9304 268.612 3.9304C263.659 5.16867 259.325 7.23245 255.611 10.1217C251.896 12.8735 248.594 15.9691 245.704 19.4088C242.953 22.8484 240.27 26.1504 237.656 29.3149C236.417 31.7914 235.179 33.7864 233.941 35.2999C233.803 35.4375 233.666 35.3687 233.528 35.0935C233.39 34.8183 233.253 34.8183 233.115 35.0935C232.703 35.5063 232.359 36.1942 232.083 37.1573C231.946 37.9828 231.671 38.6707 231.258 39.2211C231.12 39.3586 230.983 39.2899 230.845 39.0147C230.708 38.7395 230.501 38.7395 230.226 39.0147C230.088 39.1523 229.882 39.7026 229.607 40.6657C229.469 41.4912 229.263 42.0416 228.988 42.3167C227.337 44.5181 225.548 46.6507 223.622 48.7145C221.696 50.7782 219.77 53.186 217.843 55.9377C215.092 60.2028 212.477 64.3992 210.001 68.5268C207.524 72.6543 204.91 77.1946 202.159 82.1477C201.195 83.7987 200.439 85.3122 199.888 86.688C199.476 87.9263 198.994 89.0958 198.444 90.1965C198.169 90.6092 198.031 91.1596 198.031 91.8475C198.031 92.8106 198.581 93.2921 199.682 93.2921C200.508 93.2921 201.333 93.0858 202.159 92.673L204.222 91.8475C207.524 88.8206 210.964 86.2753 214.541 84.2115C214.679 84.2115 214.748 84.2115 214.748 84.2115C214.885 84.0739 215.023 84.0051 215.16 84.0051C215.573 84.0051 215.848 84.2803 215.986 84.8306C216.124 85.2434 215.986 85.5873 215.573 85.8625C211.583 88.0639 207.868 90.8844 204.429 94.324C204.291 94.5992 204.154 94.8744 204.016 95.1495C203.878 95.4247 203.672 95.6999 203.397 95.9751C203.122 96.2502 202.709 96.7318 202.159 97.4197C201.746 98.1076 201.539 98.5204 201.539 98.658C201.402 99.0707 201.195 99.2083 200.92 99.0707C200.783 98.9331 200.37 99.1395 199.682 99.6899C199.544 99.8274 199.407 100.103 199.269 100.515C199.269 100.928 199.2 101.272 199.063 101.547C198.925 101.96 198.65 102.304 198.237 102.579C197.962 102.717 197.825 102.854 197.825 102.992C197.687 103.542 197.412 103.886 196.999 104.024C196.724 104.024 196.449 104.161 196.174 104.437C196.036 104.574 196.036 104.781 196.174 105.056C196.311 105.331 196.242 105.606 195.967 105.881C195.83 106.294 195.692 106.5 195.554 106.5C195.417 106.363 195.211 106.432 194.935 106.707C194.385 107.257 193.972 107.532 193.697 107.532C192.872 107.807 192.528 108.014 192.665 108.151C192.94 108.289 193.147 108.427 193.284 108.564C193.56 108.564 193.353 108.77 192.665 109.183C192.39 109.321 192.115 109.734 191.84 110.422C191.565 110.972 191.289 111.385 191.014 111.66C190.601 111.935 190.189 112.141 189.776 112.279C189.501 112.417 189.157 112.692 188.744 113.104C187.506 114.343 186.474 114.962 185.648 114.962Z" fill="white"/>
<path d="M252.691 49.9527C252.278 49.9527 251.865 49.8151 251.452 49.54C251.177 49.2648 250.764 48.9208 250.214 48.5081C249.939 48.3705 249.595 48.2329 249.182 48.0953C248.907 47.8202 248.769 47.4074 248.769 46.8571C248.632 46.7195 248.357 46.6507 247.944 46.6507C247.256 46.6507 246.912 46.1691 246.912 45.206C246.912 44.1053 247.462 43.3486 248.563 42.9359L249.595 42.1104V42.3167L250.42 41.2848H250.833C251.659 41.2848 252.209 40.8721 252.484 40.0466C252.897 39.2211 253.723 38.6707 254.961 38.3955C255.786 38.1204 256.474 38.1892 257.025 38.6019C257.575 39.0147 258.263 39.2211 259.088 39.2211C259.914 39.2211 260.808 38.9459 261.771 38.3955L264.867 37.7764C265.28 37.7764 265.486 37.914 265.486 38.1892C265.486 38.4643 265.073 38.8083 264.248 39.2211C263.56 39.6338 263.078 39.9778 262.803 40.2529L262.597 40.4593L262.39 40.8721L261.565 41.904C260.739 42.8671 259.776 44.0366 258.676 45.4124C257.712 46.6507 256.681 47.6826 255.58 48.5081C254.342 49.4712 253.379 49.9527 252.691 49.9527ZM221.321 114.962C220.496 114.962 220.083 114.48 220.083 113.517C220.083 112.829 220.289 112.004 220.702 111.041C221.803 108.702 223.041 105.4 224.417 101.135C225.93 96.8694 227.788 93.2233 229.989 90.1965C231.502 87.1696 232.878 84.2115 234.117 81.3222C235.492 78.2953 236.799 75.2684 238.038 72.2416C238.038 72.2416 237.9 72.1728 237.625 72.0352C237.487 71.76 237.419 71.4848 237.419 71.2097C236.593 70.6593 235.699 69.9026 234.736 68.9395C233.91 67.8388 233.841 66.7381 234.529 65.6375C234.804 65.3623 235.011 65.2247 235.148 65.2247C235.286 65.2247 235.355 65.2247 235.355 65.2247C235.355 65.0871 235.286 65.0183 235.148 65.0183C235.148 64.8807 235.148 64.812 235.148 64.812C235.148 64.2616 235.424 63.9176 235.974 63.7801C236.524 63.6425 236.799 63.4361 236.799 63.1609C237.075 61.2347 238.726 59.7901 241.753 58.827C244.779 57.8639 247.462 57.3823 249.801 57.3823C252.14 57.3823 253.31 57.7263 253.31 58.4142C253.31 58.6894 252.897 59.1709 252.071 59.8589C251.659 60.134 250.971 60.7532 250.008 61.7163C249.045 62.6794 248.15 63.8489 247.325 65.2247L245.674 67.7012C245.536 67.9764 245.33 68.3204 245.055 68.7331C244.917 69.0083 244.711 69.2835 244.435 69.5586C242.234 73.5486 240.445 76.9195 239.07 79.6712C237.694 82.4229 236.043 85.9313 234.117 90.1965C233.841 91.022 233.704 91.5723 233.704 91.8475C233.704 92.8106 234.254 93.2921 235.355 93.2921C236.18 93.2921 237.006 93.0858 237.831 92.673L239.895 91.8475C243.197 88.8206 246.637 86.2753 250.214 84.2115C250.352 84.2115 250.42 84.2115 250.42 84.2115C250.558 84.0739 250.696 84.0051 250.833 84.0051C251.246 84.0051 251.521 84.2803 251.659 84.8306C251.796 85.2434 251.659 85.5873 251.246 85.8625C247.256 88.0639 243.541 90.8844 240.102 94.324C239.964 94.5992 239.826 94.8744 239.689 95.1495C239.551 95.4247 239.345 95.6999 239.07 95.9751C238.794 96.2502 238.382 96.7318 237.831 97.4197C237.419 98.1076 237.212 98.5204 237.212 98.658C237.075 99.0707 236.868 99.2083 236.593 99.0707C236.456 98.9331 236.043 99.1395 235.355 99.6899C235.217 99.8274 235.08 100.103 234.942 100.515C234.942 100.928 234.873 101.272 234.736 101.547C234.598 101.96 234.323 102.304 233.91 102.579C233.635 102.717 233.497 102.854 233.497 102.992C233.36 103.542 233.085 103.886 232.672 104.024C232.397 104.024 232.122 104.161 231.846 104.437C231.709 104.574 231.709 104.781 231.846 105.056C231.984 105.331 231.915 105.606 231.64 105.881C231.502 106.294 231.365 106.5 231.227 106.5C231.09 106.363 230.883 106.432 230.608 106.707C230.058 107.257 229.645 107.532 229.37 107.532C228.544 107.807 228.2 108.014 228.338 108.151C228.613 108.289 228.82 108.427 228.957 108.564C229.232 108.564 229.026 108.77 228.338 109.183C228.063 109.321 227.788 109.734 227.512 110.422C227.237 110.972 226.962 111.385 226.687 111.66C226.274 111.935 225.861 112.141 225.449 112.279C225.174 112.417 224.83 112.692 224.417 113.104C223.179 114.343 222.147 114.962 221.321 114.962Z" fill="white"/>
<path d="M255.372 114.962C254.546 114.962 254.134 114.48 254.134 113.517C254.134 112.829 254.34 112.004 254.753 111.041C255.853 108.702 257.161 105.4 258.674 101.135C260.187 96.8694 262.045 93.2233 264.246 90.1965L272.295 72.2416C272.295 72.2416 272.157 72.1728 271.882 72.0352C271.607 71.76 271.469 71.4848 271.469 71.2097C270.644 70.6593 269.75 69.9026 268.786 68.9395C267.961 67.8388 267.892 66.7381 268.58 65.6375C268.855 65.3623 269.062 65.2247 269.199 65.2247C269.337 65.2247 269.406 65.2247 269.406 65.2247V64.812C269.406 64.2616 269.612 63.9176 270.025 63.7801C270.575 63.6425 270.919 63.4361 271.057 63.1609C271.332 61.2347 272.914 59.7901 275.803 58.827C278.83 57.8639 281.513 57.3823 283.852 57.3823C286.191 57.3823 287.361 57.7263 287.361 58.4142C287.361 58.827 286.948 59.3085 286.122 59.8589C285.847 60.134 285.159 60.7532 284.058 61.7163C283.095 62.6794 282.201 63.8489 281.376 65.2247L279.931 67.7012L278.486 69.5586C276.285 73.5486 274.496 76.9195 273.12 79.6712C271.745 82.4229 270.094 85.9313 268.167 90.1965C267.755 91.022 267.548 91.7099 267.548 92.2602C267.548 92.9482 267.823 93.2921 268.374 93.2921C268.649 93.2921 268.924 93.2233 269.199 93.0858C269.612 92.8106 270.025 92.6042 270.438 92.4666C271.538 91.7787 272.432 91.1596 273.12 90.6092C273.946 89.9213 274.84 89.2334 275.803 88.5454C276.216 88.1327 276.56 88.1327 276.835 88.5454C277.11 88.8206 277.11 89.2334 276.835 89.7837C276.285 90.8844 275.872 91.5723 275.597 91.8475C275.459 91.9851 275.253 92.1227 274.978 92.2602C274.703 92.3978 274.084 93.017 273.12 94.1176L272.295 95.7687C272.02 96.0438 271.676 96.5942 271.263 97.4197C270.988 98.1076 270.85 98.5204 270.85 98.658C270.85 98.9331 270.713 99.0707 270.438 99.0707C270.162 98.9331 269.75 99.1395 269.199 99.6899C269.062 99.8274 268.993 100.103 268.993 100.515C269.13 100.928 269.062 101.272 268.786 101.547C268.649 101.96 268.443 102.304 268.167 102.579C267.892 102.717 267.755 102.854 267.755 102.992C267.617 103.542 267.342 103.886 266.929 104.024C266.654 104.024 266.379 104.161 266.104 104.437C265.966 104.437 265.897 104.574 265.897 104.849C265.897 105.95 265.76 106.432 265.484 106.294C265.209 106.156 264.934 106.294 264.659 106.707C264.384 107.257 264.04 107.532 263.627 107.532C262.802 107.807 262.458 108.014 262.595 108.151C262.733 108.289 262.939 108.427 263.214 108.564C263.489 108.564 263.283 108.77 262.595 109.183C262.182 109.321 261.838 109.734 261.563 110.422C261.288 110.972 261.013 111.385 260.738 111.66C260.463 111.935 260.119 112.141 259.706 112.279C259.293 112.417 258.949 112.692 258.674 113.104C257.436 114.343 256.335 114.962 255.372 114.962ZM316.873 113.311C316.322 113.311 315.841 113.311 315.428 113.311C315.015 113.173 314.602 113.036 314.19 112.898C312.814 112.623 311.576 112.21 310.475 111.66C309.512 111.109 308.686 110.078 307.998 108.564C307.861 107.876 307.517 106.982 306.966 105.881C306.554 104.781 306.279 103.749 306.141 102.786C306.003 102.098 305.935 101.272 305.935 100.309C305.797 99.6211 305.728 98.7268 305.728 97.6261C305.453 96.2502 305.315 95.012 305.315 93.9113C305.453 92.8106 305.522 91.5035 305.522 89.9901C305.522 88.4766 305.591 87.376 305.728 86.688C306.003 85.4498 306.141 84.8306 306.141 84.8306C306.141 84.693 306.141 84.0051 306.141 82.7668C306.279 81.1158 306.347 79.396 306.347 77.6074C306.347 75.8188 306.416 74.3741 306.554 73.2735C306.966 69.1459 306.141 67.0821 304.077 67.0821C303.252 67.0821 302.151 67.4261 300.775 68.114C300.637 68.5268 300.362 68.8019 299.95 68.9395C299.674 68.9395 299.262 69.0771 298.711 69.3523L297.679 69.9714C297.679 70.109 297.542 70.1778 297.267 70.1778C296.991 70.0402 296.854 70.109 296.854 70.3842C296.991 70.9345 296.923 71.2785 296.648 71.4161C296.51 71.5536 296.304 71.4848 296.028 71.2097L293.758 72.8607C293.758 72.9983 293.552 73.2735 293.139 73.6862L292.933 73.8926C292.382 74.4429 291.901 74.7181 291.488 74.7181L290.869 75.3372C290.869 75.4748 290.731 75.75 290.456 76.1628C290.319 76.4379 289.975 76.5067 289.424 76.3691L288.392 77.401C287.842 78.2265 287.361 78.7081 286.948 78.8457C286.673 78.9833 286.329 79.1208 285.916 79.2584L284.265 81.3222L283.439 81.5286C283.439 82.0789 282.82 82.9044 281.582 84.0051C280.481 85.1058 279.725 85.8625 279.312 86.2753C278.899 86.688 278.486 86.8944 278.073 86.8944C277.798 86.8944 277.661 86.7568 277.661 86.4817C277.661 86.3441 278.005 85.7937 278.693 84.8306C279.243 84.2803 280.068 83.2484 281.169 81.735C282.407 80.2215 283.095 79.5336 283.233 79.6712C283.921 78.9832 284.402 78.2953 284.678 77.6074C284.953 76.7819 285.434 76.094 286.122 75.5436C286.122 75.6812 286.122 75.8188 286.122 75.9564C286.26 75.9564 286.329 75.9564 286.329 75.9564C286.604 75.9564 286.948 75.6124 287.361 74.9245C287.773 74.099 288.048 73.755 288.186 73.8926L291.694 70.7969C291.694 70.6593 292.038 70.3842 292.726 69.9714C293.277 69.6962 293.621 69.5586 293.758 69.5586C293.896 69.5586 294.24 69.1459 294.79 68.3204L296.235 67.2885C296.372 67.0133 296.51 67.0821 296.648 67.4949C296.923 67.77 297.129 67.8388 297.267 67.7012L297.886 66.2566C298.161 65.8438 298.574 65.4999 299.124 65.2247C299.812 64.812 300.5 64.3992 301.188 63.9864C302.839 62.3354 304.077 61.5099 304.903 61.5099H305.728C307.517 60.822 309.168 60.478 310.681 60.478C312.883 60.478 314.602 61.3035 315.841 62.9545C316.116 63.3673 316.391 64.124 316.666 65.2247C316.941 65.3623 317.01 65.5687 316.873 65.8438C316.873 65.9814 316.941 66.1878 317.079 66.463C317.217 66.7381 317.492 67.0821 317.904 67.4949C318.317 67.77 318.524 68.114 318.524 68.5268V68.9395C318.524 69.4899 318.18 69.9714 317.492 70.3842C318.18 70.9345 318.455 71.2785 318.317 71.4161C318.317 71.4161 318.248 71.6224 318.111 72.0352L317.698 74.9245C317.561 75.8876 317.354 76.6443 317.079 77.1946C316.804 77.6074 316.529 78.3641 316.253 79.4648C316.804 80.2903 316.804 80.8407 316.253 81.1158H315.841L315.634 81.9413C315.634 82.2165 315.772 82.4917 316.047 82.7668L315.428 84.0051C315.566 83.8675 315.634 83.8675 315.634 84.0051C315.772 84.0051 315.841 84.0051 315.841 84.0051C315.703 84.2803 315.497 84.8306 315.222 85.6561C314.946 86.3441 314.74 86.8944 314.602 87.3072C314.465 87.9951 314.19 88.3391 313.777 88.3391C313.364 88.3391 313.227 88.683 313.364 89.3709C313.502 89.5085 313.571 89.9901 313.571 90.8156C313.708 91.5035 313.639 91.8475 313.364 91.8475L312.951 94.324V94.9432C312.951 95.6311 312.814 96.319 312.539 97.0069C312.401 97.6949 312.263 98.3828 312.126 99.0707C311.988 99.7587 311.851 100.515 311.713 101.341C311.713 102.029 311.713 102.717 311.713 103.405C311.713 103.955 311.713 104.574 311.713 105.262C311.851 105.812 311.988 106.363 312.126 106.913C312.126 107.051 312.332 107.463 312.745 108.151C313.158 108.839 313.364 109.252 313.364 109.39L313.983 110.009C314.258 110.146 314.671 110.146 315.222 110.009C315.909 109.871 316.391 109.94 316.666 110.215C317.904 110.353 319.487 109.734 321.413 108.358C323.477 106.844 325.334 105.193 326.985 103.405C327.398 102.992 327.811 102.786 328.223 102.786C328.499 102.786 328.705 102.992 328.843 103.405C328.98 103.817 328.843 104.368 328.43 105.056C326.228 108.22 324.165 110.422 322.238 111.66C320.312 112.76 318.524 113.311 316.873 113.311Z" fill="white"/>
<path d="M187.904 149.775C185.648 149.775 183.8 149.367 182.36 148.551C180.92 147.711 179.732 146.643 178.796 145.347L180.992 143.547C181.976 144.771 183.008 145.683 184.088 146.283C185.192 146.883 186.5 147.183 188.012 147.183C189.836 147.183 191.228 146.763 192.188 145.923C193.148 145.083 193.628 143.907 193.628 142.395C193.628 141.171 193.28 140.223 192.584 139.551C191.888 138.855 190.676 138.363 188.948 138.075L186.14 137.607C184.916 137.391 183.884 137.067 183.044 136.635C182.228 136.203 181.568 135.687 181.064 135.087C180.56 134.463 180.2 133.791 179.984 133.071C179.768 132.327 179.66 131.559 179.66 130.767C179.66 128.463 180.416 126.723 181.928 125.547C183.44 124.371 185.48 123.783 188.048 123.783C190.064 123.783 191.756 124.119 193.124 124.791C194.516 125.463 195.632 126.411 196.472 127.635L194.348 129.471C193.652 128.559 192.812 127.815 191.828 127.239C190.844 126.663 189.572 126.375 188.012 126.375C186.308 126.375 185 126.735 184.088 127.455C183.176 128.175 182.72 129.255 182.72 130.695C182.72 131.823 183.056 132.747 183.728 133.467C184.424 134.163 185.66 134.667 187.436 134.979L190.136 135.447C191.36 135.663 192.392 135.987 193.232 136.419C194.072 136.851 194.744 137.367 195.248 137.967C195.776 138.567 196.148 139.239 196.364 139.983C196.58 140.727 196.688 141.507 196.688 142.323C196.688 144.651 195.92 146.475 194.384 147.795C192.872 149.115 190.712 149.775 187.904 149.775Z" fill="white"/>
<path d="M210.462 149.343C209.046 149.343 208.002 148.947 207.33 148.155C206.682 147.363 206.358 146.343 206.358 145.095V133.215H200.166V130.767H204.774C205.398 130.767 205.83 130.647 206.07 130.407C206.334 130.143 206.466 129.699 206.466 129.075V124.215H209.238V130.767H217.698V133.215H209.238V146.895H217.698V149.343H210.462Z" fill="white"/>
<path d="M235.54 146.319H235.396C235.204 146.775 234.964 147.219 234.676 147.651C234.388 148.059 234.028 148.419 233.596 148.731C233.188 149.043 232.696 149.295 232.12 149.487C231.544 149.679 230.872 149.775 230.104 149.775C228.16 149.775 226.6 149.163 225.424 147.939C224.248 146.691 223.66 144.939 223.66 142.683V130.767H226.54V142.179C226.54 143.883 226.912 145.155 227.656 145.995C228.4 146.811 229.492 147.219 230.932 147.219C231.508 147.219 232.072 147.147 232.624 147.003C233.176 146.859 233.668 146.643 234.1 146.355C234.532 146.067 234.88 145.707 235.144 145.275C235.408 144.819 235.54 144.279 235.54 143.655V130.767H238.42V149.343H235.54V146.319Z" fill="white"/>
<path d="M257.234 146.319H257.09C255.89 148.623 253.982 149.775 251.366 149.775C249.086 149.775 247.298 148.923 246.002 147.219C244.73 145.515 244.094 143.127 244.094 140.055C244.094 136.983 244.73 134.595 246.002 132.891C247.298 131.187 249.086 130.335 251.366 130.335C253.982 130.335 255.89 131.487 257.09 133.791H257.234V122.703H260.114V149.343H257.234V146.319ZM252.482 147.219C253.13 147.219 253.742 147.135 254.318 146.967C254.894 146.799 255.398 146.559 255.83 146.247C256.262 145.911 256.598 145.515 256.838 145.059C257.102 144.579 257.234 144.027 257.234 143.403V136.707C257.234 136.083 257.102 135.543 256.838 135.087C256.598 134.607 256.262 134.211 255.83 133.899C255.398 133.563 254.894 133.311 254.318 133.143C253.742 132.975 253.13 132.891 252.482 132.891C250.802 132.891 249.494 133.407 248.558 134.439C247.646 135.447 247.19 136.791 247.19 138.471V141.639C247.19 143.319 247.646 144.675 248.558 145.707C249.494 146.715 250.802 147.219 252.482 147.219Z" fill="white"/>
<path d="M275.472 126.663C274.632 126.663 274.044 126.495 273.708 126.159C273.372 125.799 273.204 125.355 273.204 124.827V124.251C273.204 123.723 273.372 123.291 273.708 122.955C274.044 122.595 274.632 122.415 275.472 122.415C276.312 122.415 276.9 122.595 277.236 122.955C277.572 123.291 277.74 123.723 277.74 124.251V124.827C277.74 125.355 277.572 125.799 277.236 126.159C276.9 126.495 276.312 126.663 275.472 126.663ZM267.336 146.895H274.032V133.215H267.336V130.767H276.912V146.895H283.176V149.343H267.336V146.895Z" fill="white"/>
<path d="M295.906 149.775C294.61 149.775 293.434 149.547 292.378 149.091C291.346 148.635 290.458 147.987 289.714 147.147C288.994 146.283 288.442 145.263 288.058 144.087C287.674 142.887 287.482 141.543 287.482 140.055C287.482 138.591 287.674 137.259 288.058 136.059C288.442 134.859 288.994 133.839 289.714 132.999C290.458 132.135 291.346 131.475 292.378 131.019C293.434 130.563 294.61 130.335 295.906 130.335C297.202 130.335 298.366 130.563 299.398 131.019C300.454 131.475 301.342 132.135 302.062 132.999C302.806 133.839 303.37 134.859 303.754 136.059C304.138 137.259 304.33 138.591 304.33 140.055C304.33 141.543 304.138 142.887 303.754 144.087C303.37 145.263 302.806 146.283 302.062 147.147C301.342 147.987 300.454 148.635 299.398 149.091C298.366 149.547 297.202 149.775 295.906 149.775ZM295.906 147.291C297.514 147.291 298.81 146.811 299.794 145.851C300.778 144.891 301.27 143.403 301.27 141.387V138.723C301.27 136.707 300.778 135.219 299.794 134.259C298.81 133.299 297.514 132.819 295.906 132.819C294.298 132.819 293.002 133.299 292.018 134.259C291.034 135.219 290.542 136.707 290.542 138.723V141.387C290.542 143.403 291.034 144.891 292.018 145.851C293.002 146.811 294.298 147.291 295.906 147.291Z" fill="white"/>
</svg>
