<svg width="329" height="157" viewBox="0 0 329 157" fill="none" xmlns="http://www.w3.org/2000/svg">
<path d="M50.2932 130.13L48.4358 129.511C48.2982 129.924 47.9543 130.061 47.4039 129.924C46.9912 129.924 46.6472 129.786 46.372 129.511C45.6841 128.41 44.9274 127.929 44.1019 128.066C43.2764 128.342 42.1757 128.204 40.7998 127.654H40.5934C40.1807 127.654 39.6991 127.722 39.1488 127.86C38.736 128.135 38.3233 128.204 37.9105 128.066L36.4659 126.828C36.4659 126.966 36.3283 127.035 36.0531 127.035C35.6404 127.035 35.2276 126.966 34.8149 126.828C34.4021 126.691 34.2645 126.553 34.4021 126.415L30.8937 124.558L30.4809 124.764L28.2108 122.288C28.0732 122.425 27.9356 122.494 27.798 122.494C27.5228 122.494 27.2477 122.288 26.9725 121.875C26.6973 121.6 26.4909 121.462 26.3534 121.462C25.5278 120.774 24.5647 120.086 23.4641 119.399C22.501 118.848 21.5379 118.229 20.5748 117.541C20.4372 117.404 20.3684 117.128 20.3684 116.716C20.3684 116.44 20.2308 116.234 19.9556 116.096C19.5429 115.684 19.0613 115.271 18.511 114.858C17.9606 114.445 17.6167 113.964 17.4791 113.414L16.6536 113.62C15.8281 112.107 14.865 110.731 13.7643 109.492C12.6636 108.254 12.1821 106.603 12.3196 104.539H11.9069L9.22396 103.507V102.888C9.08638 102.888 8.88 102.957 8.60483 103.095C8.32966 103.095 7.9857 103.026 7.57294 102.888C6.60984 102.476 5.71554 101.994 4.89002 101.444C4.06451 100.756 3.44538 99.9302 3.03262 98.9671C2.89503 98.5544 2.68866 98.348 2.41349 98.348C2.2759 98.348 2.13832 98.2792 2.00073 98.1416C1.72556 97.4537 1.3128 96.8345 0.762461 96.2842C0.212119 95.7339 0.00574097 95.0459 0.143326 94.2204L0.762461 89.061C1.86314 87.8227 2.68866 87.2036 3.239 87.2036C3.78934 87.2036 4.06451 87.8227 4.06451 89.061L2.82624 91.1247L3.03262 93.6013C3.30779 93.8765 3.72055 94.014 4.27089 94.014C4.82123 94.014 5.23399 93.9452 5.50916 93.8077L5.30278 95.0459L6.12829 96.4906L6.33467 96.0778L7.57294 96.4906L8.60483 97.9352C8.88 97.3849 9.15517 97.3849 9.43034 97.9352C9.70551 98.348 9.8431 98.5544 9.8431 98.5544L10.875 97.7288C10.7374 97.0409 10.5998 96.353 10.4622 95.6651C10.3246 94.8395 10.2559 94.0828 10.2559 93.3949C10.2559 92.4318 10.3246 91.7439 10.4622 91.3311C10.875 89.8177 11.0126 88.6482 10.875 87.8227C10.875 87.8227 11.1502 87.3411 11.7005 86.3781C12.2508 85.2774 12.8012 84.5894 13.3515 84.3143L15.0026 83.2824L15.4153 83.9015C15.2777 84.0391 15.0026 84.4519 14.5898 85.1398C14.177 85.8277 13.8331 86.3093 13.5579 86.5844C12.4572 88.9234 12.0445 91.2623 12.3196 93.6013C12.3196 93.7389 12.3196 93.9452 12.3196 94.2204C12.4572 94.358 12.4572 94.6332 12.3196 95.0459V97.9352C12.5948 98.0728 12.7324 98.6232 12.7324 99.5863C12.7324 100.412 12.87 100.756 13.1451 100.618C13.8331 100.481 14.3834 100.687 14.7962 101.237C15.3465 101.65 15.7593 101.444 16.0344 100.618L17.4791 102.269H19.5429C19.4053 102.544 19.7492 102.82 20.5748 103.095C21.5379 103.232 22.501 103.301 23.4641 103.301C24.4272 103.301 24.9087 103.301 24.9087 103.301L26.147 104.333C26.147 104.195 26.3534 104.333 26.7661 104.746H26.9725C27.3852 104.746 27.798 104.608 28.2108 104.333C28.7611 104.058 29.1739 103.92 29.449 103.92C30.1369 104.058 30.8249 104.333 31.5128 104.746C32.3383 105.158 32.9574 105.158 33.3702 104.746L35.0212 105.365L36.8786 104.333C37.1538 104.608 37.7041 104.883 38.5297 105.158C38.8048 105.296 39.2176 105.365 39.7679 105.365C41.0062 105.365 41.9005 105.09 42.4508 104.539L43.2764 105.571C45.2026 105.434 47.1287 105.434 49.0549 105.571C51.1187 105.571 53.0449 105.571 54.8335 105.571C56.347 105.571 57.7916 105.571 59.1675 105.571C60.6809 105.434 62.1256 105.296 63.5014 105.158C63.9142 105.158 64.2581 105.158 64.5333 105.158C64.8085 105.021 65.0149 104.952 65.1524 104.952C66.1155 104.952 67.2162 104.677 68.4545 104.127C69.6928 103.576 70.7246 103.301 71.5502 103.301C71.8253 103.301 72.4445 103.095 73.4076 102.682C74.5083 102.132 74.8522 102.476 74.4395 103.714L72.3757 104.746L71.7565 104.539C71.619 104.677 70.9998 105.021 69.8991 105.571C68.936 105.984 68.3857 106.053 68.2481 105.778L63.9142 106.397C63.3638 106.534 62.5383 106.672 61.4376 106.809C60.337 106.947 59.7866 106.947 59.7866 106.809L57.9292 107.222C57.9292 107.085 57.7916 107.016 57.5164 107.016C56.9661 107.016 56.1406 107.222 55.0399 107.635C54.0768 108.048 53.5265 108.185 53.3889 108.048C53.2513 107.773 52.5634 107.773 51.3251 108.048C50.2244 108.185 49.1237 108.254 48.0231 108.254C46.372 108.254 45.4777 107.979 45.3401 107.429L43.6891 108.048C43.9643 107.773 43.8267 107.635 43.2764 107.635C42.8636 107.497 42.5196 107.497 42.2445 107.635L42.0381 108.667C41.7629 108.804 41.4877 108.804 41.2126 108.667C40.9374 108.529 40.6622 108.392 40.3871 108.254C39.5616 107.841 38.2545 107.635 36.4659 107.635C34.6773 107.635 32.9574 107.566 31.3064 107.429C29.6554 107.291 28.6235 106.947 28.2108 106.397L26.5597 107.222C26.0094 107.222 25.1839 107.153 24.0832 107.016C23.1201 106.741 22.3634 106.534 21.813 106.397C20.8499 106.122 19.7492 105.846 18.511 105.571C17.4103 105.296 16.3096 105.227 15.2089 105.365L16.2408 107.016V107.429C17.2039 107.979 17.9606 108.873 18.511 110.112C19.1989 111.212 20.2308 111.625 21.6067 111.35L22.2258 114.033L23.8768 115.065C24.0144 114.927 24.152 114.858 24.2896 114.858C24.7023 114.858 25.3903 115.133 26.3534 115.684C27.3164 116.234 28.0732 116.647 28.6235 116.922L29.2426 116.509L30.2745 118.367C30.4121 118.229 30.5497 118.16 30.6873 118.16C31.1 118.16 31.5816 118.298 32.1319 118.573C32.6823 118.848 33.0262 118.917 33.1638 118.779L34.6085 119.192L36.0531 118.779C36.6035 119.605 36.9474 120.224 37.085 120.637C37.2226 121.05 37.429 121.325 37.7041 121.462C38.3921 121.738 38.3921 121.944 37.7041 122.081C37.1538 122.219 36.8786 122.425 36.8786 122.701L37.085 123.113H38.9424C38.9424 122.701 39.424 122.357 40.3871 122.081C41.4877 121.944 42.5884 121.875 43.6891 121.875C45.3401 121.875 46.3032 122.013 46.5784 122.288C47.1287 122.563 47.2663 122.563 46.9912 122.288L48.8486 122.081L50.0868 123.113C50.362 122.701 50.6372 122.494 50.9123 122.494C51.3251 122.494 51.6691 122.563 51.9442 122.701C52.357 122.976 52.5634 123.113 52.5634 123.113C52.8385 123.251 53.1137 122.976 53.3889 122.288C53.8016 121.738 54.2832 121.531 54.8335 121.669L55.659 121.875C56.6221 121.875 57.5852 121.738 58.5483 121.462C59.649 121.187 60.2682 121.462 60.4057 122.288L61.8504 121.256L62.8823 121.462L62.4695 123.113C62.4695 123.664 62.5383 123.939 62.6759 123.939C62.9511 123.939 63.295 123.457 63.7078 122.494C64.2581 121.669 64.5333 121.6 64.5333 122.288L65.978 120.637C66.3907 120.912 66.9411 121.05 67.629 121.05C68.7297 121.05 69.7615 120.637 70.7246 119.811C71.6877 119.123 72.8572 118.642 74.2331 118.367L74.4395 118.779C74.7146 118.642 74.9898 118.504 75.265 118.367C75.6777 118.367 75.8841 118.504 75.8841 118.779L78.1543 118.573C78.7046 118.16 79.5989 117.679 80.8372 117.128C82.213 116.578 83.1761 116.165 83.7265 115.89L83.9329 115.065C83.9329 115.065 84.2768 115.065 84.9647 115.065C85.7903 114.927 86.2718 114.789 86.4094 114.652V114.445C86.4094 114.17 86.4094 113.758 86.4094 113.207C86.4094 112.519 86.6846 112.244 87.2349 112.382L88.2668 113.001C89.5051 112.588 90.3306 112.038 90.7433 111.35C91.2937 110.524 92.1192 109.768 93.2199 109.08C93.6326 108.804 93.9766 108.461 94.2518 108.048C94.6645 107.635 95.1461 107.36 95.6964 107.222C95.834 107.222 96.0404 107.429 96.3155 107.841C96.7283 108.254 97.141 108.185 97.5538 107.635L97.7602 105.571L99.6176 104.952L100.649 103.507C100.649 103.507 100.649 103.576 100.649 103.714C100.787 103.714 100.925 103.714 101.062 103.714C101.613 103.714 102.232 103.163 102.92 102.063C103.608 100.962 103.745 100.205 103.332 99.7926L105.396 97.5225C105.259 96.697 105.534 95.6651 106.222 94.4268C107.047 93.1885 107.46 91.6751 107.46 89.8865C107.46 88.7858 107.116 87.4787 106.428 85.9653C105.74 84.4519 104.364 82.8008 102.301 81.0122L101.269 80.3931C99.6176 79.2924 98.1041 78.4669 96.7283 77.9165C95.49 77.2286 93.839 76.5407 91.7752 75.8528C91.7752 75.8528 91.5688 75.7152 91.1561 75.44L85.3775 73.789C84.8272 73.3762 83.5889 73.0323 81.6627 72.7571C79.7365 72.4819 78.4294 72.2755 77.7415 72.138C77.4663 72.0004 77.1224 71.794 76.7096 71.5188C76.4344 71.2437 76.1593 71.3124 75.8841 71.7252L74.0267 70.6933C73.7515 70.8309 73.4076 70.8997 72.9948 70.8997C72.7196 70.8997 72.4445 70.8309 72.1693 70.6933C72.0317 70.5557 71.619 70.4869 70.931 70.4869C69.9679 70.3493 68.3857 69.9366 66.1843 69.2487C64.1206 68.5607 62.9511 68.3544 62.6759 68.6295L57.3101 65.9466L56.6909 66.153L54.8335 65.1211C55.2463 65.6714 54.9711 65.809 54.008 65.5339C53.0449 65.1211 51.9442 64.6396 50.706 64.0892C49.4677 63.4013 48.5046 62.9885 47.8167 62.8509C45.4777 61.8878 43.3451 60.512 41.419 58.7234C39.6303 56.9348 38.736 54.7334 38.736 52.1193C38.736 49.7803 38.8736 48.1293 39.1488 47.1662C39.424 46.2031 39.7679 45.3776 40.1807 44.6897C40.731 44.0017 41.2126 42.9698 41.6253 41.594C41.9005 41.1812 42.2445 40.7685 42.6572 40.3557C43.2076 39.8054 43.5515 39.255 43.6891 38.7047L45.3401 37.6728C45.4777 36.9849 45.8217 36.297 46.372 35.609C47.06 34.9211 47.6791 34.4396 48.2294 34.1644C50.018 33.3389 52.013 31.963 54.2144 30.0368C56.5534 27.973 58.8235 26.4596 61.0249 25.4965C61.5752 25.2213 62.0568 25.0149 62.4695 24.8774C62.8823 24.6022 63.3638 24.3958 63.9142 24.2582L64.1205 24.671C65.3588 24.2582 67.4226 23.6391 70.3119 22.8136C73.2012 21.8505 76.3657 20.8874 79.8053 19.9243C83.3825 18.9612 86.6846 18.1357 89.7114 17.4477C92.8759 16.7598 95.3524 16.4159 97.1411 16.4159C98.3793 16.4159 99.0672 16.6222 99.2048 17.035L101.681 15.5903C101.819 15.7279 102.094 15.8655 102.507 16.0031C102.92 16.0031 103.195 15.9343 103.332 15.7967L105.396 16.4159C105.947 16.1407 106.359 16.0031 106.634 16.0031C107.46 16.0031 108.354 16.2783 109.317 16.8286C110.418 17.2414 111.244 17.379 111.794 17.2414C112.482 16.9662 112.963 16.8974 113.239 17.035C113.651 17.035 114.064 17.035 114.477 17.035H115.302C115.715 17.035 116.128 17.1038 116.541 17.2414C117.091 17.2414 117.641 17.5165 118.192 18.0669L119.224 18.2733C119.636 18.686 119.843 19.1676 119.843 19.7179C120.118 20.2682 120.943 20.6122 122.319 20.7498C123.695 20.8874 124.589 21.1626 125.002 21.5753C126.103 22.4008 126.722 23.7767 126.859 25.7029C127.135 27.4915 127.272 29.1425 127.272 30.6559C127.135 32.1694 126.516 34.0268 125.415 36.2282C124.452 38.2919 123.213 39.943 121.7 41.1812C121.012 41.7316 119.98 42.3507 118.604 43.0386C117.229 43.589 116.197 44.0705 115.509 44.4833C113.995 45.4464 112.344 45.9279 110.556 45.9279C107.942 45.9279 106.634 45.3776 106.634 44.2769C106.634 43.8642 107.116 43.4514 108.079 43.0386C108.767 42.7635 109.386 42.4883 109.937 42.2131C110.624 41.8004 111.244 41.3188 111.794 40.7685C112.344 40.4933 112.688 40.3557 112.826 40.3557C113.101 40.2181 113.307 40.0806 113.445 39.943C113.72 39.8054 113.926 39.6678 114.064 39.5302C114.202 39.255 114.477 38.9799 114.89 38.7047C115.715 38.0168 116.747 36.9161 117.985 35.4026C119.361 33.7516 120.324 32.5134 120.875 31.6878C121.012 30.9999 121.287 30.1056 121.7 29.0049C122.25 27.7667 122.526 26.666 122.526 25.7029C122.526 24.8774 122.319 24.2582 121.906 23.8455C121.769 23.8455 121.7 23.7767 121.7 23.6391L121.494 23.2263C120.393 20.8874 118.192 19.5803 114.89 19.3052C111.725 18.8924 109.042 18.686 106.841 18.686C106.841 18.686 106.703 18.6172 106.428 18.4796C106.153 18.3421 106.015 18.4108 106.015 18.686L101.475 19.0988L101.062 18.686L96.7283 19.5115L96.3155 19.3052L91.7752 20.5434C91.9128 20.2683 91.844 20.1995 91.5688 20.337C91.2937 20.337 91.1561 20.337 91.1561 20.337L86.6158 21.5753L86.4094 21.3689L84.3456 22.6072C84.3456 22.4696 84.2768 22.332 84.1392 22.1944C84.0016 22.0569 83.9329 21.9881 83.9329 21.9881C83.7953 22.1257 83.6577 22.332 83.5201 22.6072C83.3825 22.7448 83.1761 22.8824 82.901 23.02L82.4882 22.8136L79.5989 23.8455C79.5989 23.9831 79.3237 24.0518 78.7734 24.0518C75.0586 25.7029 70.9998 27.6291 66.5971 29.8304C62.3319 31.8942 59.0299 34.8523 56.6909 38.7047L56.2782 38.2919L54.4208 39.943C54.2832 40.0806 54.0768 40.2869 53.8016 40.5621C53.6641 40.8373 53.4577 41.3188 53.1825 42.0067C52.7698 43.1074 52.1506 44.4145 51.3251 45.9279C50.6372 47.4414 50.2932 48.886 50.2932 50.2619C50.2932 51.6377 50.5684 52.9448 51.1187 54.1831C51.6691 55.2837 52.0818 55.5589 52.357 55.0086L54.2144 56.2468L54.8335 58.517L55.2463 58.3106L57.9292 60.3744H58.342L61.644 63.0573L64.1205 64.502H65.7716L68.2481 65.3275C68.5233 65.4651 68.7297 65.6714 68.8672 65.9466C69.1424 66.0842 69.4864 65.9466 69.8991 65.5339L71.9629 66.9785C72.1005 66.8409 72.3069 66.7721 72.5821 66.7721C72.8572 66.7721 73.1324 66.9097 73.4076 67.1849C73.6827 67.3225 73.8891 67.4601 74.0267 67.5976L74.4395 67.3913L81.6627 70.2806C81.9379 70.143 82.2818 70.0742 82.6946 70.0742C83.3825 70.0742 83.9329 70.2118 84.3456 70.4869C84.896 70.6245 85.4463 70.7621 85.9966 70.8997C86.2718 71.0373 86.6158 71.2437 87.0285 71.5188C87.5789 71.794 87.854 72.0004 87.854 72.138C88.1292 72.2755 88.4044 72.3443 88.6796 72.3443C89.0923 72.3443 89.4363 72.3443 89.7114 72.3443L91.5688 72.9635L93.4262 73.9954L95.2837 74.2017C95.2837 74.2017 95.834 74.4769 96.9347 75.0273C98.1729 75.44 99.4112 75.8528 100.649 76.2655C102.025 76.6783 102.782 76.9534 102.92 77.091L104.158 78.3293L104.364 78.1229L105.809 78.9484C107.322 79.9115 108.836 81.7689 110.349 84.5206C112 87.1348 112.826 90.0241 112.826 93.1885C112.826 95.2523 112.482 97.3161 111.794 99.3799C111.244 101.306 110.556 102.888 109.73 104.127C107.666 106.878 105.396 109.355 102.92 111.556C100.581 113.758 98.4481 115.615 96.5219 117.128C95.834 117.541 95.3524 117.885 95.0773 118.16C94.8021 118.435 94.3893 118.573 93.839 118.573C93.4262 118.711 93.0823 118.917 92.8071 119.192C90.8809 120.293 88.7483 121.256 86.4094 122.081C84.0704 123.045 82.0067 123.939 80.218 124.764C79.3925 125.04 78.7046 125.177 78.1543 125.177C77.6039 125.315 77.0536 125.452 76.5032 125.59C76.3657 125.59 76.0905 125.659 75.6777 125.796C75.4026 126.071 75.265 126.14 75.265 126.003L73.8203 127.035C73.6827 126.897 73.4764 126.828 73.2012 126.828C72.6508 126.828 72.0317 127.103 71.3438 127.654C70.7934 128.204 70.2431 128.41 69.6928 128.273H69.4864C69.0736 128.273 68.5233 128.342 67.8354 128.479C67.285 128.754 66.8723 128.754 66.5971 128.479L63.9142 129.511L63.5014 128.479C63.3638 128.479 63.1574 128.617 62.8823 128.892C62.7447 129.305 62.5383 129.511 62.2631 129.511C62.2631 129.511 61.988 129.373 61.4376 129.098C60.8873 128.823 60.4745 128.961 60.1994 129.511L57.9292 130.13C57.7916 129.58 57.3789 129.305 56.6909 129.305C56.1406 129.305 55.659 129.511 55.2463 129.924L53.5953 129.098V129.305L51.9442 129.098L50.2932 130.13Z" fill="black"/>
<path d="M156.978 115.89C156.152 115.89 155.74 115.409 155.74 114.445C155.74 113.758 155.946 112.932 156.359 111.969C157.459 109.63 158.698 106.328 160.073 102.063C161.587 97.7976 163.444 94.1516 165.646 91.1247C167.159 88.0979 168.535 85.1398 169.773 82.2505C171.149 79.2236 172.456 76.1967 173.694 73.1698C173.694 73.1698 173.557 73.1011 173.282 72.9635C173.007 72.6883 172.869 72.4131 172.869 72.138C172.181 71.5876 171.355 70.8309 170.392 69.8678C169.429 68.7671 169.36 67.6664 170.186 66.5657C170.461 66.2906 170.599 66.153 170.599 66.153C170.736 66.153 170.805 66.153 170.805 66.153C170.805 66.0154 170.736 65.9466 170.599 65.9466C170.599 65.9466 170.599 65.8778 170.599 65.7402L170.392 65.5339C170.255 65.5339 170.117 65.5339 169.98 65.5339C169.98 65.3963 169.911 65.3275 169.773 65.3275C169.223 65.3275 168.604 65.4651 167.916 65.7402C167.228 65.8778 166.54 65.9466 165.852 65.9466C165.027 65.9466 163.926 66.2906 162.55 66.9785C161.174 67.5288 159.936 68.0104 158.835 68.4231C158.285 68.5607 157.941 68.6295 157.803 68.6295C157.803 68.4919 157.528 68.5607 156.978 68.8359C156.84 68.9735 156.84 68.7671 156.978 68.2168C157.253 67.5288 157.391 67.0473 157.391 66.7721C157.391 66.6345 157.322 66.5657 157.184 66.5657C156.909 66.5657 156.359 66.9785 155.533 67.804C154.708 68.4919 154.157 68.9047 153.882 69.0423C153.745 69.1799 153.676 69.3862 153.676 69.6614C153.813 69.9366 153.882 70.2118 153.882 70.4869C153.882 70.8997 153.538 71.3812 152.85 71.9316C152.162 72.3443 151.681 72.6883 151.406 72.9635C150.855 73.3762 150.167 73.6514 149.342 73.789C148.654 73.789 147.966 74.0642 147.278 74.6145C146.453 75.1648 146.04 75.5776 146.04 75.8528C146.177 76.1279 145.765 76.6095 144.801 77.2974C143.563 78.2605 141.843 79.7052 139.642 81.6314C137.578 83.5576 135.996 85.2774 134.895 86.7908C132.281 89.9553 129.873 93.6013 127.672 97.7288C125.608 101.856 124.576 105.09 124.576 107.429C124.576 109.217 125.333 110.112 126.847 110.112C127.122 110.112 127.397 110.112 127.672 110.112C127.947 109.974 128.291 109.836 128.704 109.699L134.07 106.603L135.308 106.397V106.19L136.134 106.809C136.271 106.672 136.202 106.466 135.927 106.19C135.79 105.778 135.79 105.571 135.927 105.571C136.065 105.571 136.134 105.64 136.134 105.778C136.271 105.778 136.409 105.778 136.546 105.778L136.959 105.158C136.959 105.158 137.166 105.227 137.578 105.365C138.129 105.365 138.541 105.227 138.817 104.952C139.229 104.814 139.298 104.608 139.023 104.333C138.885 104.058 138.679 103.851 138.404 103.714L139.848 102.476C139.986 102.2 140.536 101.925 141.499 101.65C143.838 100.137 145.765 98.348 147.278 96.2842C148.929 94.0828 150.786 92.0878 152.85 90.2992H153.057L155.533 87.8227L155.327 87.2036L158.01 84.1079H158.422C158.56 83.8327 158.835 83.4888 159.248 83.076C159.798 82.6632 160.142 82.3193 160.28 82.0441C160.555 81.9065 161.174 81.2186 162.137 79.9803C163.238 78.6045 164.27 77.5038 165.233 76.6783C166.334 75.8528 166.953 75.44 167.09 75.44C167.228 75.44 167.297 75.5088 167.297 75.6464C167.297 76.0591 167.09 76.6783 166.678 77.5038C166.402 78.3293 166.127 78.8796 165.852 79.1548C164.889 80.6683 163.651 82.3881 162.137 84.3143C160.624 86.1029 159.73 87.2036 159.454 87.6163C157.803 89.4049 155.808 91.8127 153.469 94.8396C151.13 97.7288 148.585 100.618 145.833 103.507C143.082 106.397 140.33 108.873 137.578 110.937C134.964 112.863 132.488 113.826 130.149 113.826C127.947 113.826 125.608 113.138 123.132 111.763C120.655 110.387 119.417 107.773 119.417 103.92C119.417 102.682 119.555 101.306 119.83 99.7926C120.242 98.1416 120.862 96.4218 121.687 94.6332C121.687 94.6332 121.825 94.4956 122.1 94.2204C122.375 93.8077 122.581 93.6701 122.719 93.8077C122.994 93.3949 123.063 92.9821 122.925 92.5694C122.925 92.019 122.925 91.6751 122.925 91.5375L123.338 91.1247C123.613 89.6113 124.645 88.2355 126.434 86.9972C128.222 85.7589 129.186 84.7958 129.323 84.1079C129.461 83.9703 129.53 83.7639 129.53 83.4888L130.355 80.8058V79.9803H131.181L131.8 79.1548L132.006 78.7421C131.731 78.6045 131.8 78.3981 132.212 78.1229C132.763 77.7102 133.038 77.5038 133.038 77.5038C133.176 77.2286 133.313 77.0222 133.451 76.8847C133.726 76.7471 133.932 76.6095 134.07 76.4719H135.514C135.79 76.0591 135.652 75.8528 135.102 75.8528C134.551 75.8528 134.276 75.8528 134.276 75.8528C134.276 75.7152 134.276 75.6464 134.276 75.6464C134.414 75.5088 134.483 75.3712 134.483 75.2336L136.753 73.3762C137.441 72.8259 138.129 72.3443 138.817 71.9316C139.504 71.5188 140.124 71.0373 140.674 70.4869C141.087 70.4869 141.155 70.6933 140.88 71.1061C141.018 71.3812 141.155 71.3812 141.293 71.1061C141.568 70.8309 141.706 70.6933 141.706 70.6933L142.738 70.4869V70.2806C142.738 70.0054 142.807 69.5926 142.944 69.0423C143.082 68.4919 143.15 68.148 143.15 68.0104C146.04 65.809 149.067 63.8828 152.231 62.2318C155.396 60.4432 158.491 59.5489 161.518 59.5489C165.095 59.5489 168.329 60.9247 171.218 63.6765L172.25 64.2956C172.387 64.2956 172.456 64.2268 172.456 64.0892C172.731 62.163 174.314 60.7184 177.203 59.7553C180.23 58.7922 182.913 58.3106 185.252 58.3106C187.728 58.3106 188.966 58.6546 188.966 59.3425C188.966 59.6177 188.554 60.0992 187.728 60.7872C187.315 61.0623 186.627 61.6815 185.664 62.6446C184.701 63.6077 183.738 64.7771 182.775 66.153C182.637 66.5657 182.431 66.9785 182.156 67.3913C181.881 67.804 181.606 68.2168 181.33 68.6295C181.193 68.9047 180.986 69.2487 180.711 69.6614C180.574 69.9366 180.367 70.2118 180.092 70.4869C177.753 74.4769 175.896 77.8477 174.52 80.5995C173.144 83.3512 171.493 86.8596 169.567 91.1247C169.292 91.9503 169.154 92.4318 169.154 92.5694C169.154 93.6701 169.773 94.2204 171.012 94.2204C171.837 94.2204 172.663 94.014 173.488 93.6013L175.552 92.7758C178.854 89.7489 182.294 87.2036 185.871 85.1398C186.008 85.1398 186.077 85.1398 186.077 85.1398C186.215 85.0022 186.352 84.9334 186.49 84.9334C186.903 84.9334 187.178 85.2086 187.315 85.7589C187.453 86.1717 187.315 86.5156 186.903 86.7908C182.913 88.9922 179.198 91.8127 175.758 95.2523C175.621 95.5275 175.483 95.8026 175.345 96.0778C175.208 96.353 175.002 96.6282 174.726 96.9033C174.314 97.1785 173.901 97.66 173.488 98.348C173.075 99.0359 172.869 99.4487 172.869 99.5863C172.731 99.999 172.525 100.137 172.25 99.999C172.112 99.8614 171.699 100.068 171.012 100.618C170.874 100.756 170.736 101.031 170.599 101.444C170.599 101.856 170.53 102.2 170.392 102.476C170.117 102.888 169.842 103.232 169.567 103.507C169.292 103.645 169.154 103.783 169.154 103.92C169.017 104.471 168.741 104.814 168.329 104.952C168.053 104.952 167.778 105.09 167.503 105.365C167.366 105.365 167.297 105.434 167.297 105.571C167.297 106.809 167.159 107.36 166.884 107.222C166.609 107.085 166.334 107.222 166.058 107.635C165.783 108.185 165.439 108.461 165.027 108.461C164.201 108.736 163.857 108.942 163.995 109.08C164.27 109.217 164.476 109.355 164.614 109.492C164.889 109.492 164.683 109.699 163.995 110.112C163.719 110.249 163.444 110.662 163.169 111.35C162.894 111.9 162.619 112.313 162.344 112.588C161.931 112.863 161.518 113.07 161.105 113.207C160.693 113.345 160.349 113.62 160.073 114.033C158.835 115.271 157.803 115.89 156.978 115.89Z" fill="black"/>
<path d="M185.345 115.89C184.52 115.89 184.107 115.409 184.107 114.445C184.107 113.758 184.313 112.932 184.726 111.969C185.827 109.63 187.065 106.328 188.441 102.063C189.954 97.7976 191.812 94.1516 194.013 91.1247C194.701 89.6113 195.733 87.7539 197.109 85.5525C198.622 83.2136 200.067 80.4619 201.443 77.2974V76.2655C201.443 75.8528 201.443 75.5088 201.443 75.2336C201.58 74.8209 201.718 74.4081 201.855 73.9954C202.406 72.8947 202.887 72.138 203.3 71.7252C203.85 71.3124 204.401 70.5557 204.951 69.455C204.951 69.1799 204.951 68.9047 204.951 68.6295C205.089 68.3544 205.226 68.0792 205.364 67.804C205.089 68.0792 205.02 67.8728 205.157 67.1849C204.882 67.1849 205.157 66.497 205.983 65.1211C206.533 63.8828 206.946 63.1949 207.221 63.0573H207.428C207.978 62.2318 208.459 61.5439 208.872 60.9935C209.285 60.3056 209.423 59.8929 209.285 59.7553V59.3425C209.285 58.3794 209.56 57.4851 210.11 56.6596C210.798 55.8341 211.418 54.9398 211.968 53.9767C212.381 53.4263 212.725 53.1512 213 53.1512C213.275 53.1512 213.413 53.22 213.413 53.3575C213.55 53.3575 213.688 53.3575 213.825 53.3575C214.238 53.3575 214.444 53.0136 214.444 52.3257C214.444 52.0505 214.376 51.7065 214.238 51.2938C214.238 50.881 214.169 50.3995 214.032 49.8491C214.169 49.1612 214.72 48.6108 215.683 48.1981L216.302 47.9917C216.99 45.1024 217.815 43.1762 218.778 42.2131C219.054 41.938 219.329 41.6628 219.604 41.3876C219.879 41.1124 220.154 40.8373 220.429 40.5621C222.08 38.7735 223.319 36.8473 224.144 34.7835C224.419 34.2332 224.763 33.8204 225.176 33.5452C225.726 33.1325 226.208 32.6509 226.621 32.1006C226.896 31.6878 226.965 31.2751 226.827 30.8623C226.827 30.312 226.896 29.8304 227.033 29.4177C227.721 28.317 228.203 27.6979 228.478 27.5603C228.753 27.4227 229.028 27.2851 229.304 27.1475C229.716 26.8724 230.404 26.2532 231.367 25.2901C231.78 24.6022 232.193 23.9143 232.606 23.2263C233.156 22.5384 233.706 21.8505 234.257 21.1626C235.082 20.1995 235.977 19.5115 236.94 19.0988C237.903 18.686 238.866 18.0669 239.829 17.2414C240.104 16.9662 240.242 16.5534 240.242 16.0031C240.242 15.3152 240.379 14.8336 240.654 14.5585C245.47 10.7061 250.629 7.47281 256.133 4.85868C261.774 2.24456 266.108 0.9375 269.135 0.9375C270.235 0.9375 271.267 1.00629 272.23 1.14388C273.331 1.28146 274.363 1.48784 275.326 1.76301H275.739C276.427 1.76301 277.115 1.9006 277.803 2.17577C278.49 2.45094 279.11 2.72611 279.66 3.00128C280.21 3.00128 280.898 3.13886 281.724 3.41403C282.412 3.68921 282.824 4.10196 282.962 4.65231C283.1 5.20265 282.962 5.61541 282.549 5.89057C282.412 6.02816 282.205 6.02816 281.93 5.89057C281.655 5.75299 281.38 5.6842 281.105 5.6842C280.829 5.6842 280.554 5.54661 280.279 5.27143C280.004 4.99627 279.729 4.78989 279.454 4.65231C278.903 4.65231 278.284 4.7211 277.596 4.85868C277.046 4.99627 276.427 5.06506 275.739 5.06506H275.12C274.157 5.06506 273.469 4.92748 273.056 4.65231C272.781 4.23955 272.093 4.17076 270.992 4.44593C270.854 4.44593 270.442 4.51472 269.754 4.65231C269.066 4.78989 268.584 4.85868 268.309 4.85868C263.356 6.09695 259.022 8.16074 255.307 11.05C251.592 13.8017 248.29 16.8974 245.401 20.337C242.649 23.7767 239.967 27.0787 237.352 30.2432C236.114 32.7197 234.876 34.7147 233.638 36.2282C233.5 36.3657 233.362 36.297 233.225 36.0218C233.087 35.7466 232.95 35.7466 232.812 36.0218C232.399 36.4345 232.055 37.1225 231.78 38.0856C231.643 38.9111 231.367 39.599 230.955 40.1493C230.817 40.2869 230.68 40.2181 230.542 39.943C230.404 39.6678 230.198 39.6678 229.923 39.943C229.785 40.0806 229.579 40.6309 229.304 41.594C229.166 42.4195 228.96 42.9698 228.685 43.245C227.034 45.4464 225.245 47.579 223.319 49.6427C221.392 51.7065 219.466 54.1143 217.54 56.866C214.788 61.1311 212.174 65.3275 209.698 69.455C207.221 73.5826 204.607 78.1229 201.855 83.076C200.892 84.727 200.136 86.2405 199.585 87.6163C199.172 88.8546 198.691 90.0241 198.141 91.1247C197.865 91.5375 197.728 92.0878 197.728 92.7758C197.728 93.7389 198.278 94.2204 199.379 94.2204C200.204 94.2204 201.03 94.014 201.855 93.6013L203.919 92.7758C207.221 89.7489 210.661 87.2036 214.238 85.1398C214.376 85.1398 214.444 85.1398 214.444 85.1398C214.582 85.0022 214.72 84.9334 214.857 84.9334C215.27 84.9334 215.545 85.2086 215.683 85.7589C215.82 86.1717 215.683 86.5156 215.27 86.7908C211.28 88.9922 207.565 91.8127 204.126 95.2523C203.988 95.5275 203.85 95.8026 203.713 96.0778C203.575 96.353 203.369 96.6282 203.094 96.9033C202.818 97.1785 202.406 97.66 201.855 98.348C201.443 99.0359 201.236 99.4487 201.236 99.5863C201.099 99.999 200.892 100.137 200.617 99.999C200.48 99.8614 200.067 100.068 199.379 100.618C199.241 100.756 199.104 101.031 198.966 101.444C198.966 101.856 198.897 102.2 198.76 102.476C198.622 102.888 198.347 103.232 197.934 103.507C197.659 103.645 197.521 103.783 197.521 103.92C197.384 104.471 197.109 104.814 196.696 104.952C196.421 104.952 196.146 105.09 195.87 105.365C195.733 105.502 195.733 105.709 195.87 105.984C196.008 106.259 195.939 106.534 195.664 106.809C195.526 107.222 195.389 107.429 195.251 107.429C195.114 107.291 194.907 107.36 194.632 107.635C194.082 108.185 193.669 108.461 193.394 108.461C192.568 108.736 192.224 108.942 192.362 109.08C192.637 109.217 192.844 109.355 192.981 109.492C193.256 109.492 193.05 109.699 192.362 110.112C192.087 110.249 191.812 110.662 191.536 111.35C191.261 111.9 190.986 112.313 190.711 112.588C190.298 112.863 189.885 113.07 189.473 113.207C189.198 113.345 188.854 113.62 188.441 114.033C187.203 115.271 186.171 115.89 185.345 115.89Z" fill="black"/>
<path d="M252.387 50.881C251.975 50.881 251.562 50.7434 251.149 50.4683C250.874 50.1931 250.461 49.8491 249.911 49.4364C249.636 49.2988 249.292 49.1612 248.879 49.0236C248.604 48.7484 248.466 48.3357 248.466 47.7853C248.329 47.6478 248.053 47.579 247.641 47.579C246.953 47.579 246.609 47.0974 246.609 46.1343C246.609 45.0336 247.159 44.2769 248.26 43.8642L249.292 43.0386V43.245L250.117 42.2131H250.53C251.355 42.2131 251.906 41.8004 252.181 40.9749C252.594 40.1493 253.419 39.599 254.658 39.3238C255.483 39.0487 256.171 39.1175 256.721 39.5302C257.272 39.943 257.96 40.1493 258.785 40.1493C259.611 40.1493 260.505 39.8742 261.468 39.3238L264.564 38.7047C264.976 38.7047 265.183 38.8423 265.183 39.1175C265.183 39.3926 264.77 39.7366 263.945 40.1493C263.257 40.5621 262.775 40.9061 262.5 41.1812L262.294 41.3876L262.087 41.8004L261.262 42.8323C260.436 43.7954 259.473 44.9648 258.372 46.3407C257.409 47.579 256.377 48.6108 255.277 49.4364C254.038 50.3995 253.075 50.881 252.387 50.881ZM221.018 115.89C220.192 115.89 219.78 115.409 219.78 114.445C219.78 113.758 219.986 112.932 220.399 111.969C221.499 109.63 222.738 106.328 224.114 102.063C225.627 97.7976 227.484 94.1516 229.686 91.1247C231.199 88.0979 232.575 85.1398 233.813 82.2505C235.189 79.2236 236.496 76.1967 237.735 73.1698C237.735 73.1698 237.597 73.1011 237.322 72.9635C237.184 72.6883 237.115 72.4131 237.115 72.138C236.29 71.5876 235.396 70.8309 234.432 69.8678C233.607 68.7671 233.538 67.6664 234.226 66.5657C234.501 66.2906 234.708 66.153 234.845 66.153C234.983 66.153 235.052 66.153 235.052 66.153C235.052 66.0154 234.983 65.9466 234.845 65.9466C234.845 65.809 234.845 65.7402 234.845 65.7402C234.845 65.1899 235.12 64.8459 235.671 64.7083C236.221 64.5708 236.496 64.3644 236.496 64.0892C236.771 62.163 238.422 60.7184 241.449 59.7553C244.476 58.7922 247.159 58.3106 249.498 58.3106C251.837 58.3106 253.007 58.6546 253.007 59.3425C253.007 59.6177 252.594 60.0992 251.768 60.7872C251.355 61.0623 250.668 61.6815 249.704 62.6446C248.741 63.6077 247.847 64.7771 247.022 66.153L245.371 68.6295C245.233 68.9047 245.027 69.2487 244.751 69.6614C244.614 69.9366 244.407 70.2118 244.132 70.4869C241.931 74.4769 240.142 77.8477 238.766 80.5995C237.391 83.3512 235.74 86.8596 233.813 91.1247C233.538 91.9503 233.401 92.5006 233.401 92.7758C233.401 93.7389 233.951 94.2204 235.052 94.2204C235.877 94.2204 236.703 94.014 237.528 93.6013L239.592 92.7758C242.894 89.7489 246.334 87.2036 249.911 85.1398C250.048 85.1398 250.117 85.1398 250.117 85.1398C250.255 85.0022 250.392 84.9334 250.53 84.9334C250.943 84.9334 251.218 85.2086 251.355 85.7589C251.493 86.1717 251.355 86.5156 250.943 86.7908C246.953 88.9922 243.238 91.8127 239.798 95.2523C239.661 95.5275 239.523 95.8026 239.386 96.0778C239.248 96.353 239.042 96.6282 238.766 96.9033C238.491 97.1785 238.078 97.66 237.528 98.348C237.115 99.0359 236.909 99.4487 236.909 99.5863C236.771 99.999 236.565 100.137 236.29 99.999C236.152 99.8614 235.74 100.068 235.052 100.618C234.914 100.756 234.776 101.031 234.639 101.444C234.639 101.856 234.57 102.2 234.432 102.476C234.295 102.888 234.02 103.232 233.607 103.507C233.332 103.645 233.194 103.783 233.194 103.92C233.057 104.471 232.781 104.814 232.369 104.952C232.094 104.952 231.818 105.09 231.543 105.365C231.406 105.502 231.406 105.709 231.543 105.984C231.681 106.259 231.612 106.534 231.337 106.809C231.199 107.222 231.062 107.429 230.924 107.429C230.786 107.291 230.58 107.36 230.305 107.635C229.755 108.185 229.342 108.461 229.067 108.461C228.241 108.736 227.897 108.942 228.035 109.08C228.31 109.217 228.516 109.355 228.654 109.492C228.929 109.492 228.723 109.699 228.035 110.112C227.76 110.249 227.484 110.662 227.209 111.35C226.934 111.9 226.659 112.313 226.384 112.588C225.971 112.863 225.558 113.07 225.145 113.207C224.87 113.345 224.526 113.62 224.114 114.033C222.875 115.271 221.843 115.89 221.018 115.89Z" fill="black"/>
<path d="M255.069 115.89C254.243 115.89 253.83 115.409 253.83 114.445C253.83 113.758 254.037 112.932 254.45 111.969C255.55 109.63 256.857 106.328 258.371 102.063C259.884 97.7976 261.742 94.1516 263.943 91.1247L271.992 73.1698C271.992 73.1698 271.854 73.1011 271.579 72.9635C271.304 72.6883 271.166 72.4131 271.166 72.138C270.341 71.5876 269.446 70.8309 268.483 69.8678C267.658 68.7671 267.589 67.6664 268.277 66.5657C268.552 66.2906 268.758 66.153 268.896 66.153C269.034 66.153 269.102 66.153 269.102 66.153V65.7402C269.102 65.1899 269.309 64.8459 269.722 64.7083C270.272 64.5708 270.616 64.3644 270.753 64.0892C271.029 62.163 272.611 60.7184 275.5 59.7553C278.527 58.7922 281.21 58.3106 283.549 58.3106C285.888 58.3106 287.057 58.6546 287.057 59.3425C287.057 59.7553 286.645 60.2368 285.819 60.7872C285.544 61.0623 284.856 61.6815 283.755 62.6446C282.792 63.6077 281.898 64.7771 281.072 66.153L279.628 68.6295L278.183 70.4869C275.982 74.4769 274.193 77.8477 272.817 80.5995C271.441 83.3512 269.79 86.8596 267.864 91.1247C267.451 91.9503 267.245 92.6382 267.245 93.1885C267.245 93.8764 267.52 94.2204 268.07 94.2204C268.346 94.2204 268.621 94.1516 268.896 94.014C269.309 93.7389 269.722 93.5325 270.134 93.3949C271.235 92.707 272.129 92.0878 272.817 91.5375C273.643 90.8496 274.537 90.1617 275.5 89.4737C275.913 89.061 276.257 89.061 276.532 89.4737C276.807 89.7489 276.807 90.1616 276.532 90.712C275.982 91.8127 275.569 92.5006 275.294 92.7758C275.156 92.9134 274.95 93.0509 274.675 93.1885C274.399 93.3261 273.78 93.9452 272.817 95.0459L271.992 96.697C271.717 96.9721 271.373 97.5225 270.96 98.348C270.685 99.0359 270.547 99.4487 270.547 99.5863C270.547 99.8614 270.409 99.999 270.134 99.999C269.859 99.8614 269.446 100.068 268.896 100.618C268.758 100.756 268.69 101.031 268.69 101.444C268.827 101.856 268.758 102.2 268.483 102.476C268.346 102.888 268.139 103.232 267.864 103.507C267.589 103.645 267.451 103.783 267.451 103.92C267.314 104.471 267.039 104.814 266.626 104.952C266.351 104.952 266.076 105.09 265.8 105.365C265.663 105.365 265.594 105.502 265.594 105.778C265.594 106.878 265.456 107.36 265.181 107.222C264.906 107.085 264.631 107.222 264.356 107.635C264.081 108.185 263.737 108.461 263.324 108.461C262.498 108.736 262.154 108.942 262.292 109.08C262.429 109.217 262.636 109.355 262.911 109.492C263.186 109.492 262.98 109.699 262.292 110.112C261.879 110.249 261.535 110.662 261.26 111.35C260.985 111.9 260.71 112.313 260.435 112.588C260.159 112.863 259.815 113.07 259.403 113.207C258.99 113.345 258.646 113.62 258.371 114.033C257.132 115.271 256.032 115.89 255.069 115.89ZM316.569 114.239C316.019 114.239 315.537 114.239 315.125 114.239C314.712 114.102 314.299 113.964 313.886 113.826C312.511 113.551 311.272 113.138 310.172 112.588C309.209 112.038 308.383 111.006 307.695 109.492C307.558 108.804 307.214 107.91 306.663 106.809C306.25 105.709 305.975 104.677 305.838 103.714C305.7 103.026 305.631 102.2 305.631 101.237C305.494 100.549 305.425 99.655 305.425 98.5544C305.15 97.1785 305.012 95.9402 305.012 94.8396C305.15 93.7389 305.219 92.4318 305.219 90.9184C305.219 89.4049 305.287 88.3042 305.425 87.6163C305.7 86.378 305.838 85.7589 305.838 85.7589C305.838 85.6213 305.838 84.9334 305.838 83.6951C305.975 82.0441 306.044 80.3243 306.044 78.5357C306.044 76.7471 306.113 75.3024 306.25 74.2017C306.663 70.0742 305.838 68.0104 303.774 68.0104C302.948 68.0104 301.848 68.3544 300.472 69.0423C300.334 69.455 300.059 69.7302 299.646 69.8678C299.371 69.8678 298.958 70.0054 298.408 70.2806L297.376 70.8997C297.376 71.0373 297.239 71.1061 296.963 71.1061C296.688 70.9685 296.551 71.0373 296.551 71.3124C296.688 71.8628 296.619 72.2068 296.344 72.3443C296.207 72.4819 296 72.4131 295.725 72.138L293.455 73.789C293.455 73.9266 293.249 74.2017 292.836 74.6145L292.63 74.8209C292.079 75.3712 291.598 75.6464 291.185 75.6464L290.566 76.2655C290.566 76.4031 290.428 76.6783 290.153 77.091C290.015 77.3662 289.671 77.435 289.121 77.2974L288.089 78.3293C287.539 79.1548 287.057 79.6364 286.645 79.7739C286.369 79.9115 286.025 80.0491 285.613 80.1867L283.962 82.2505L283.136 82.4569C283.136 83.0072 282.517 83.8327 281.279 84.9334C280.178 86.0341 279.421 86.7908 279.009 87.2036C278.596 87.6163 278.183 87.8227 277.77 87.8227C277.495 87.8227 277.358 87.6851 277.358 87.4099C277.358 87.2723 277.701 86.722 278.389 85.7589C278.94 85.2086 279.765 84.1767 280.866 82.6632C282.104 81.1498 282.792 80.4619 282.93 80.5995C283.618 79.9115 284.099 79.2236 284.374 78.5357C284.65 77.7102 285.131 77.0222 285.819 76.4719C285.819 76.6095 285.819 76.7471 285.819 76.8847C285.957 76.8847 286.025 76.8847 286.025 76.8847C286.301 76.8847 286.645 76.5407 287.057 75.8528C287.47 75.0272 287.745 74.6833 287.883 74.8209L291.391 71.7252C291.391 71.5876 291.735 71.3124 292.423 70.8997C292.973 70.6245 293.317 70.4869 293.455 70.4869C293.593 70.4869 293.937 70.0742 294.487 69.2487L295.932 68.2168C296.069 67.9416 296.207 68.0104 296.344 68.4231C296.619 68.6983 296.826 68.7671 296.963 68.6295L297.583 67.1849C297.858 66.7721 298.27 66.4282 298.821 66.153C299.509 65.7402 300.197 65.3275 300.885 64.9147C302.536 63.2637 303.774 62.4382 304.599 62.4382H305.425C307.214 61.7503 308.865 61.4063 310.378 61.4063C312.579 61.4063 314.299 62.2318 315.537 63.8828C315.813 64.2956 316.088 65.0523 316.363 66.153C316.638 66.2906 316.707 66.497 316.569 66.7721C316.569 66.9097 316.638 67.1161 316.776 67.3913C316.913 67.6664 317.189 68.0104 317.601 68.4231C318.014 68.6983 318.22 69.0423 318.22 69.455V69.8678C318.22 70.4181 317.876 70.8997 317.189 71.3124C317.876 71.8628 318.152 72.2068 318.014 72.3443C318.014 72.3443 317.945 72.5507 317.808 72.9635L317.395 75.8528C317.257 76.8159 317.051 77.5726 316.776 78.1229C316.501 78.5357 316.225 79.2924 315.95 80.3931C316.501 81.2186 316.501 81.7689 315.95 82.0441H315.537L315.331 82.8696C315.331 83.1448 315.469 83.42 315.744 83.6951L315.125 84.9334C315.262 84.7958 315.331 84.7958 315.331 84.9334C315.469 84.9334 315.537 84.9334 315.537 84.9334C315.4 85.2086 315.194 85.7589 314.918 86.5844C314.643 87.2724 314.437 87.8227 314.299 88.2355C314.162 88.9234 313.886 89.2673 313.474 89.2673C313.061 89.2673 312.923 89.6113 313.061 90.2992C313.199 90.4368 313.267 90.9184 313.267 91.7439C313.405 92.4318 313.336 92.7758 313.061 92.7758L312.648 95.2523V95.8714C312.648 96.5594 312.511 97.2473 312.235 97.9352C312.098 98.6232 311.96 99.3111 311.823 99.999C311.685 100.687 311.547 101.444 311.41 102.269C311.41 102.957 311.41 103.645 311.41 104.333C311.41 104.883 311.41 105.502 311.41 106.19C311.547 106.741 311.685 107.291 311.823 107.841C311.823 107.979 312.029 108.392 312.442 109.08C312.855 109.768 313.061 110.18 313.061 110.318L313.68 110.937C313.955 111.075 314.368 111.075 314.918 110.937C315.606 110.799 316.088 110.868 316.363 111.143C317.601 111.281 319.183 110.662 321.11 109.286C323.173 107.773 325.031 106.122 326.682 104.333C327.095 103.92 327.507 103.714 327.92 103.714C328.195 103.714 328.402 103.92 328.539 104.333C328.677 104.746 328.539 105.296 328.127 105.984C325.925 109.148 323.861 111.35 321.935 112.588C320.009 113.689 318.22 114.239 316.569 114.239Z" fill="black"/>
<path d="M149.875 156.846C146.771 156.846 144.228 156.285 142.247 155.162C140.266 154.006 138.631 152.537 137.344 150.754L140.365 148.277C141.719 149.961 143.139 151.216 144.625 152.042C146.143 152.867 147.943 153.28 150.023 153.28C152.533 153.28 154.448 152.702 155.769 151.546C157.09 150.39 157.75 148.772 157.75 146.692C157.75 145.008 157.271 143.704 156.314 142.779C155.356 141.822 153.689 141.145 151.311 140.748L147.448 140.105C145.764 139.807 144.344 139.362 143.188 138.767C142.065 138.173 141.157 137.463 140.464 136.637C139.771 135.779 139.275 134.854 138.978 133.864C138.681 132.84 138.532 131.783 138.532 130.694C138.532 127.524 139.572 125.13 141.653 123.512C143.733 121.894 146.54 121.085 150.073 121.085C152.847 121.085 155.175 121.547 157.057 122.472C158.972 123.396 160.507 124.701 161.663 126.385L158.741 128.911C157.783 127.656 156.627 126.632 155.274 125.84C153.92 125.047 152.17 124.651 150.023 124.651C147.679 124.651 145.879 125.146 144.625 126.137C143.37 127.128 142.742 128.613 142.742 130.595C142.742 132.147 143.205 133.418 144.129 134.409C145.087 135.366 146.787 136.06 149.231 136.489L152.946 137.133C154.63 137.43 156.05 137.876 157.205 138.47C158.361 139.064 159.286 139.774 159.979 140.6C160.706 141.425 161.217 142.35 161.515 143.374C161.812 144.397 161.96 145.47 161.96 146.593C161.96 149.796 160.904 152.306 158.79 154.122C156.71 155.938 153.738 156.846 149.875 156.846Z" fill="black"/>
<path d="M180.911 156.252C178.963 156.252 177.527 155.707 176.602 154.617C175.711 153.527 175.265 152.124 175.265 150.407V134.062H166.745V130.694H173.085C173.944 130.694 174.538 130.529 174.868 130.198C175.232 129.835 175.413 129.224 175.413 128.366V121.679H179.227V130.694H190.867V134.062H179.227V152.884H190.867V156.252H180.911Z" fill="black"/>
<path d="M215.415 152.091H215.217C214.953 152.718 214.622 153.329 214.226 153.924C213.83 154.485 213.335 154.98 212.74 155.41C212.179 155.839 211.502 156.186 210.709 156.45C209.917 156.714 208.992 156.846 207.936 156.846C205.261 156.846 203.115 156.004 201.497 154.32C199.879 152.603 199.07 150.192 199.07 147.088V130.694H203.032V146.395C203.032 148.739 203.544 150.49 204.568 151.645C205.591 152.768 207.094 153.329 209.075 153.329C209.867 153.329 210.643 153.23 211.403 153.032C212.162 152.834 212.839 152.537 213.434 152.141C214.028 151.744 214.507 151.249 214.87 150.655C215.233 150.027 215.415 149.284 215.415 148.426V130.694H219.377V156.252H215.415V152.091Z" fill="black"/>
<path d="M245.263 152.091H245.064C243.413 155.261 240.788 156.846 237.189 156.846C234.052 156.846 231.592 155.674 229.809 153.329C228.059 150.985 227.184 147.699 227.184 143.473C227.184 139.246 228.059 135.961 229.809 133.616C231.592 131.272 234.052 130.099 237.189 130.099C240.788 130.099 243.413 131.684 245.064 134.854H245.263V119.599H249.225V156.252H245.263V152.091ZM238.724 153.329C239.616 153.329 240.458 153.214 241.251 152.983C242.043 152.751 242.736 152.421 243.331 151.992C243.925 151.53 244.387 150.985 244.718 150.357C245.081 149.697 245.263 148.938 245.263 148.079V138.866C245.263 138.008 245.081 137.265 244.718 136.637C244.387 135.977 243.925 135.432 243.331 135.003C242.736 134.541 242.043 134.194 241.251 133.963C240.458 133.732 239.616 133.616 238.724 133.616C236.413 133.616 234.613 134.326 233.326 135.746C232.071 137.133 231.443 138.982 231.443 141.293V145.652C231.443 147.963 232.071 149.829 233.326 151.249C234.613 152.636 236.413 153.329 238.724 153.329Z" fill="black"/>
<path d="M270.355 125.047C269.2 125.047 268.391 124.816 267.928 124.354C267.466 123.859 267.235 123.248 267.235 122.521V121.729C267.235 121.002 267.466 120.408 267.928 119.946C268.391 119.45 269.2 119.203 270.355 119.203C271.511 119.203 272.32 119.45 272.782 119.946C273.245 120.408 273.476 121.002 273.476 121.729V122.521C273.476 123.248 273.245 123.859 272.782 124.354C272.32 124.816 271.511 125.047 270.355 125.047ZM259.161 152.884H268.374V134.062H259.161V130.694H272.336V152.884H280.955V156.252H259.161V152.884Z" fill="black"/>
<path d="M298.469 156.846C296.686 156.846 295.068 156.532 293.615 155.905C292.195 155.278 290.974 154.386 289.95 153.23C288.959 152.042 288.2 150.638 287.672 149.02C287.143 147.369 286.879 145.52 286.879 143.473C286.879 141.458 287.143 139.626 287.672 137.975C288.2 136.324 288.959 134.92 289.95 133.765C290.974 132.576 292.195 131.668 293.615 131.04C295.068 130.413 296.686 130.099 298.469 130.099C300.252 130.099 301.854 130.413 303.274 131.04C304.727 131.668 305.949 132.576 306.939 133.765C307.963 134.92 308.739 136.324 309.267 137.975C309.795 139.626 310.06 141.458 310.06 143.473C310.06 145.52 309.795 147.369 309.267 149.02C308.739 150.638 307.963 152.042 306.939 153.23C305.949 154.386 304.727 155.278 303.274 155.905C301.854 156.532 300.252 156.846 298.469 156.846ZM298.469 153.428C300.682 153.428 302.465 152.768 303.819 151.447C305.173 150.126 305.849 148.079 305.849 145.305V141.64C305.849 138.866 305.173 136.819 303.819 135.498C302.465 134.177 300.682 133.517 298.469 133.517C296.257 133.517 294.474 134.177 293.12 135.498C291.766 136.819 291.089 138.866 291.089 141.64V145.305C291.089 148.079 291.766 150.126 293.12 151.447C294.474 152.768 296.257 153.428 298.469 153.428Z" fill="black"/>
</svg>
